<?xml version="1.0" encoding="UTF-8"?>
<svg id="_圖層_5" data-name="圖層 5" xmlns="http://www.w3.org/2000/svg" xmlns:xlink="http://www.w3.org/1999/xlink" viewBox="0 0 1000 1000">
  <defs>
    <style>
      .cls-1 {
        fill: #f19c5d;
      }

      .cls-2 {
        fill: #9f3138;
      }

      .cls-3 {
        fill: #a5303b;
      }

      .cls-4 {
        fill: #cabca9;
      }

      .cls-5 {
        fill: #302834;
      }

      .cls-6 {
        fill: #612b27;
      }

      .cls-7 {
        filter: url(#drop-shadow-1);
        font-family: 'Cubic_11', 'Cubic 11';
        font-size: 54.17px;
        stroke: #fff;
        stroke-miterlimit: 10;
      }

      .cls-8 {
        letter-spacing: 0em;
      }

      .cls-9 {
        letter-spacing: -.08em;
      }
    </style>
    <filter id="drop-shadow-1" filterUnits="userSpaceOnUse">
      <feOffset dx="7" dy="7"/>
      <feGaussianBlur result="blur" stdDeviation="5"/>
      <feFlood flood-color="#000" flood-opacity=".75"/>
      <feComposite in2="blur" operator="in"/>
      <feComposite in="SourceGraphic"/>
    </filter>
  </defs>
  <g>
    <rect class="cls-5" x="702.62" y="507.44" width="18.42" height="18.42"/>
    <rect class="cls-5" x="702.62" y="489.02" width="18.42" height="18.42"/>
    <rect class="cls-5" x="702.62" y="470.6" width="18.42" height="18.42"/>
    <rect class="cls-5" x="702.62" y="452.18" width="18.42" height="18.42"/>
    <rect class="cls-5" x="702.62" y="433.76" width="18.42" height="18.42"/>
    <rect class="cls-5" x="702.62" y="415.34" width="18.42" height="18.42"/>
    <rect class="cls-5" x="702.62" y="396.92" width="18.42" height="18.42"/>
    <rect class="cls-5" x="702.62" y="378.5" width="18.42" height="18.42"/>
    <rect class="cls-5" x="702.62" y="360.08" width="18.42" height="18.42"/>
    <rect class="cls-5" x="702.62" y="341.66" width="18.42" height="18.42"/>
    <rect class="cls-5" x="684.2" y="525.86" width="18.42" height="18.42"/>
    <rect class="cls-5" x="684.2" y="507.44" width="18.42" height="18.42"/>
    <rect class="cls-6" x="684.2" y="489.02" width="18.42" height="18.42"/>
    <rect class="cls-6" x="684.2" y="470.6" width="18.42" height="18.42"/>
    <rect class="cls-6" x="684.2" y="452.18" width="18.42" height="18.42"/>
    <rect class="cls-6" x="684.2" y="433.76" width="18.42" height="18.42"/>
    <rect class="cls-6" x="684.2" y="415.34" width="18.42" height="18.42"/>
    <rect class="cls-6" x="684.2" y="396.92" width="18.42" height="18.42"/>
    <rect class="cls-6" x="684.2" y="378.5" width="18.42" height="18.42"/>
    <rect class="cls-5" x="684.2" y="360.08" width="18.42" height="18.42"/>
    <rect class="cls-5" x="684.2" y="341.66" width="18.42" height="18.42"/>
    <rect class="cls-5" x="684.2" y="323.24" width="18.42" height="18.42"/>
    <rect class="cls-5" x="684.2" y="304.82" width="18.42" height="18.42"/>
    <rect class="cls-5" x="665.78" y="525.86" width="18.42" height="18.42"/>
    <rect class="cls-6" x="665.78" y="507.44" width="18.42" height="18.42"/>
    <rect class="cls-6" x="665.78" y="489.02" width="18.42" height="18.42"/>
    <rect class="cls-6" x="665.78" y="470.6" width="18.42" height="18.42"/>
    <rect class="cls-6" x="665.78" y="452.18" width="18.42" height="18.42"/>
    <rect class="cls-6" x="665.78" y="433.76" width="18.42" height="18.42"/>
    <rect class="cls-6" x="665.78" y="415.34" width="18.42" height="18.42"/>
    <rect class="cls-6" x="665.78" y="396.92" width="18.42" height="18.42"/>
    <rect class="cls-5" x="665.78" y="378.5" width="18.42" height="18.42"/>
    <rect class="cls-5" x="665.78" y="360.08" width="18.42" height="18.42"/>
    <rect class="cls-3" x="665.78" y="341.66" width="18.42" height="18.42"/>
    <rect class="cls-3" x="665.78" y="323.24" width="18.42" height="18.42"/>
    <rect class="cls-5" x="665.78" y="304.82" width="18.42" height="18.42"/>
    <rect class="cls-5" x="647.36" y="636.38" width="18.42" height="18.42"/>
    <rect class="cls-5" x="647.36" y="617.96" width="18.42" height="18.42"/>
    <rect class="cls-5" x="647.36" y="599.54" width="18.42" height="18.42"/>
    <rect class="cls-5" x="647.36" y="581.12" width="18.42" height="18.42"/>
    <rect class="cls-5" x="647.36" y="562.7" width="18.42" height="18.42"/>
    <rect class="cls-5" x="647.36" y="544.28" width="18.42" height="18.42"/>
    <rect class="cls-5" x="647.36" y="525.86" width="18.42" height="18.42"/>
    <rect class="cls-5" x="647.36" y="507.44" width="18.42" height="18.42"/>
    <rect class="cls-5" x="647.36" y="489.02" width="18.42" height="18.42"/>
    <rect class="cls-5" x="647.36" y="470.6" width="18.42" height="18.42"/>
    <rect class="cls-5" x="647.36" y="452.18" width="18.42" height="18.42"/>
    <rect class="cls-6" x="647.36" y="433.76" width="18.42" height="18.42"/>
    <rect class="cls-6" x="647.36" y="415.34" width="18.42" height="18.42"/>
    <rect class="cls-5" x="647.36" y="396.92" width="18.42" height="18.42"/>
    <rect class="cls-5" x="647.36" y="378.5" width="18.42" height="18.42"/>
    <rect class="cls-3" x="647.36" y="360.08" width="18.42" height="18.42"/>
    <rect class="cls-3" x="647.36" y="341.66" width="18.42" height="18.42"/>
    <rect class="cls-3" x="647.36" y="323.24" width="18.42" height="18.42"/>
    <rect class="cls-5" x="647.36" y="304.82" width="18.42" height="18.42"/>
    <rect class="cls-5" x="628.94" y="654.8" width="18.42" height="18.42"/>
    <rect class="cls-3" x="628.94" y="636.38" width="18.42" height="18.42"/>
    <rect class="cls-3" x="628.94" y="617.96" width="18.42" height="18.42"/>
    <rect class="cls-3" x="628.94" y="599.54" width="18.42" height="18.42"/>
    <rect class="cls-3" x="628.94" y="581.12" width="18.42" height="18.42"/>
    <rect class="cls-3" x="628.94" y="562.7" width="18.42" height="18.42"/>
    <rect class="cls-3" x="628.94" y="544.28" width="18.42" height="18.42"/>
    <rect class="cls-3" x="628.94" y="525.86" width="18.42" height="18.42"/>
    <rect class="cls-3" x="628.94" y="507.44" width="18.42" height="18.42"/>
    <rect class="cls-3" x="628.94" y="489.02" width="18.42" height="18.42"/>
    <rect class="cls-3" x="628.94" y="470.6" width="18.42" height="18.42"/>
    <rect class="cls-3" x="628.94" y="452.18" width="18.42" height="18.42"/>
    <rect class="cls-5" x="628.94" y="433.76" width="18.42" height="18.42"/>
    <rect class="cls-5" x="628.94" y="415.34" width="18.42" height="18.42"/>
    <rect class="cls-5" x="628.94" y="396.92" width="18.42" height="18.42"/>
    <rect class="cls-3" x="628.94" y="378.5" width="18.42" height="18.42"/>
    <rect class="cls-3" x="628.94" y="360.08" width="18.42" height="18.42"/>
    <rect class="cls-3" x="628.94" y="341.66" width="18.42" height="18.42"/>
    <rect class="cls-5" x="628.94" y="323.24" width="18.42" height="18.42"/>
    <rect class="cls-5" x="628.94" y="304.82" width="18.42" height="18.42"/>
    <rect class="cls-5" x="610.52" y="673.22" width="18.42" height="18.42"/>
    <rect class="cls-3" x="610.52" y="654.8" width="18.42" height="18.42"/>
    <rect class="cls-3" x="610.52" y="636.38" width="18.42" height="18.42"/>
    <rect class="cls-3" x="610.52" y="617.96" width="18.42" height="18.42"/>
    <rect class="cls-3" x="610.52" y="599.54" width="18.42" height="18.42"/>
    <rect class="cls-3" x="610.52" y="581.12" width="18.42" height="18.42"/>
    <rect class="cls-3" x="610.52" y="562.7" width="18.42" height="18.42"/>
    <rect class="cls-3" x="610.52" y="544.28" width="18.42" height="18.42"/>
    <rect class="cls-3" x="610.52" y="525.86" width="18.42" height="18.42"/>
    <rect class="cls-3" x="610.52" y="507.44" width="18.42" height="18.42"/>
    <rect class="cls-3" x="610.52" y="489.02" width="18.42" height="18.42"/>
    <rect class="cls-3" x="610.52" y="470.6" width="18.42" height="18.42"/>
    <rect class="cls-3" x="610.52" y="452.18" width="18.42" height="18.42"/>
    <rect class="cls-3" x="610.52" y="433.76" width="18.42" height="18.42"/>
    <rect class="cls-3" x="610.52" y="415.34" width="18.42" height="18.42"/>
    <rect class="cls-5" x="610.52" y="396.92" width="18.42" height="18.42"/>
    <rect class="cls-3" x="610.52" y="378.5" width="18.42" height="18.42"/>
    <rect class="cls-3" x="610.52" y="360.08" width="18.42" height="18.42"/>
    <rect class="cls-5" x="610.52" y="341.66" width="18.42" height="18.42"/>
    <rect class="cls-5" x="610.52" y="323.24" width="18.42" height="18.42"/>
    <rect class="cls-5" x="592.1" y="691.64" width="18.42" height="18.42"/>
    <rect class="cls-3" x="592.1" y="673.22" width="18.42" height="18.42"/>
    <rect class="cls-3" x="592.1" y="654.8" width="18.42" height="18.42"/>
    <rect class="cls-3" x="592.1" y="636.38" width="18.42" height="18.42"/>
    <rect class="cls-3" x="592.1" y="617.96" width="18.42" height="18.42"/>
    <rect class="cls-3" x="592.1" y="599.54" width="18.42" height="18.42"/>
    <rect class="cls-3" x="592.1" y="581.12" width="18.42" height="18.42"/>
    <rect class="cls-3" x="592.1" y="562.7" width="18.42" height="18.42"/>
    <rect class="cls-3" x="592.1" y="544.28" width="18.42" height="18.42"/>
    <rect class="cls-3" x="592.1" y="525.86" width="18.42" height="18.42"/>
    <rect class="cls-3" x="592.1" y="507.44" width="18.42" height="18.42"/>
    <rect class="cls-3" x="592.1" y="489.02" width="18.42" height="18.42"/>
    <rect class="cls-3" x="592.1" y="470.6" width="18.42" height="18.42"/>
    <rect class="cls-3" x="592.1" y="452.18" width="18.42" height="18.42"/>
    <rect class="cls-3" x="592.1" y="433.76" width="18.42" height="18.42"/>
    <rect class="cls-3" x="592.1" y="415.34" width="18.42" height="18.42"/>
    <rect class="cls-3" x="592.1" y="396.92" width="18.42" height="18.42"/>
    <rect class="cls-3" x="592.1" y="378.5" width="18.42" height="18.42"/>
    <rect class="cls-5" x="592.1" y="360.08" width="18.42" height="18.42"/>
    <rect class="cls-5" x="592.1" y="341.66" width="18.42" height="18.42"/>
    <rect class="cls-5" x="573.68" y="691.64" width="18.42" height="18.42"/>
    <rect class="cls-3" x="573.68" y="673.22" width="18.42" height="18.42"/>
    <rect class="cls-3" x="573.68" y="654.8" width="18.42" height="18.42"/>
    <rect class="cls-3" x="573.68" y="636.38" width="18.42" height="18.42"/>
    <rect class="cls-3" x="573.68" y="617.96" width="18.42" height="18.42"/>
    <rect class="cls-5" x="573.68" y="599.54" width="18.42" height="18.42"/>
    <rect class="cls-5" x="573.68" y="581.12" width="18.42" height="18.42"/>
    <rect class="cls-5" x="573.68" y="562.7" width="18.42" height="18.42"/>
    <rect class="cls-5" x="573.68" y="544.28" width="18.42" height="18.42"/>
    <rect class="cls-5" x="573.68" y="525.86" width="18.42" height="18.42"/>
    <rect class="cls-3" x="573.68" y="507.44" width="18.42" height="18.42"/>
    <rect class="cls-3" x="573.68" y="489.02" width="18.42" height="18.42"/>
    <rect class="cls-3" x="573.68" y="470.6" width="18.42" height="18.42"/>
    <rect class="cls-3" x="573.68" y="452.18" width="18.42" height="18.42"/>
    <rect class="cls-3" x="573.68" y="433.76" width="18.42" height="18.42"/>
    <rect class="cls-5" x="573.68" y="415.34" width="18.42" height="18.42"/>
    <rect class="cls-3" x="573.68" y="396.92" width="18.42" height="18.42"/>
    <rect class="cls-3" x="573.68" y="378.5" width="18.42" height="18.42"/>
    <rect class="cls-3" x="573.68" y="360.08" width="18.42" height="18.42"/>
    <rect class="cls-3" x="573.68" y="341.66" width="18.42" height="18.42"/>
    <rect class="cls-5" x="573.68" y="323.24" width="18.42" height="18.42"/>
    <rect class="cls-5" x="555.26" y="691.64" width="18.42" height="18.42"/>
    <rect class="cls-3" x="555.26" y="673.22" width="18.42" height="18.42"/>
    <rect class="cls-3" x="555.26" y="654.8" width="18.42" height="18.42"/>
    <rect class="cls-3" x="555.26" y="636.38" width="18.42" height="18.42"/>
    <rect class="cls-5" x="555.26" y="617.96" width="18.42" height="18.42"/>
    <rect class="cls-4" x="555.26" y="599.54" width="18.42" height="18.42"/>
    <rect class="cls-4" x="555.26" y="581.12" width="18.42" height="18.42"/>
    <rect class="cls-4" x="555.26" y="562.7" width="18.42" height="18.42"/>
    <rect class="cls-5" x="555.26" y="544.28" width="18.42" height="18.42"/>
    <rect class="cls-4" x="555.26" y="525.86" width="18.42" height="18.42"/>
    <rect class="cls-5" x="555.26" y="507.44" width="18.42" height="18.42"/>
    <rect class="cls-3" x="555.26" y="489.02" width="18.42" height="18.42"/>
    <rect class="cls-3" x="555.26" y="470.6" width="18.42" height="18.42"/>
    <rect class="cls-3" x="555.26" y="452.18" width="18.42" height="18.42"/>
    <rect class="cls-5" x="555.26" y="433.76" width="18.42" height="18.42"/>
    <rect class="cls-1" x="555.26" y="415.34" width="18.42" height="18.42"/>
    <rect class="cls-5" x="555.26" y="396.92" width="18.42" height="18.42"/>
    <rect class="cls-3" x="555.26" y="378.5" width="18.42" height="18.42"/>
    <rect class="cls-3" x="555.26" y="360.08" width="18.42" height="18.42"/>
    <rect class="cls-3" x="555.26" y="341.66" width="18.42" height="18.42"/>
    <rect class="cls-5" x="555.26" y="323.24" width="18.42" height="18.42"/>
    <rect class="cls-5" x="536.84" y="691.64" width="18.42" height="18.42"/>
    <rect class="cls-3" x="536.84" y="673.22" width="18.42" height="18.42"/>
    <rect class="cls-3" x="536.84" y="654.8" width="18.42" height="18.42"/>
    <rect class="cls-3" x="536.84" y="636.38" width="18.42" height="18.42"/>
    <rect class="cls-5" x="536.84" y="617.96" width="18.42" height="18.42"/>
    <rect class="cls-4" x="536.84" y="599.54" width="18.42" height="18.42"/>
    <rect class="cls-4" x="536.84" y="581.12" width="18.42" height="18.42"/>
    <rect class="cls-4" x="536.84" y="562.7" width="18.42" height="18.42"/>
    <rect class="cls-5" x="536.84" y="544.28" width="18.42" height="18.42"/>
    <rect class="cls-4" x="536.84" y="525.86" width="18.42" height="18.42"/>
    <rect class="cls-5" x="536.84" y="507.44" width="18.42" height="18.42"/>
    <rect class="cls-3" x="536.84" y="489.02" width="18.42" height="18.42"/>
    <rect class="cls-3" x="536.84" y="470.6" width="18.42" height="18.42"/>
    <rect class="cls-5" x="536.84" y="452.18" width="18.42" height="18.42"/>
    <rect class="cls-1" x="536.84" y="433.76" width="18.42" height="18.42"/>
    <rect class="cls-1" x="536.84" y="415.34" width="18.42" height="18.42"/>
    <rect class="cls-5" x="536.84" y="396.92" width="18.42" height="18.42"/>
    <rect class="cls-3" x="536.84" y="378.5" width="18.42" height="18.42"/>
    <rect class="cls-3" x="536.84" y="360.08" width="18.42" height="18.42"/>
    <rect class="cls-3" x="536.84" y="341.66" width="18.42" height="18.42"/>
    <rect class="cls-5" x="536.84" y="323.24" width="18.42" height="18.42"/>
    <rect class="cls-5" x="518.42" y="691.64" width="18.42" height="18.42"/>
    <rect class="cls-3" x="518.42" y="673.22" width="18.42" height="18.42"/>
    <rect class="cls-3" x="518.42" y="654.8" width="18.42" height="18.42"/>
    <rect class="cls-3" x="518.42" y="636.38" width="18.42" height="18.42"/>
    <rect class="cls-5" x="518.42" y="617.96" width="18.42" height="18.42"/>
    <rect class="cls-4" x="518.42" y="599.54" width="18.42" height="18.42"/>
    <rect class="cls-4" x="518.42" y="581.12" width="18.42" height="18.42"/>
    <rect class="cls-4" x="518.42" y="562.7" width="18.42" height="18.42"/>
    <rect class="cls-5" x="518.42" y="544.28" width="18.42" height="18.42"/>
    <rect class="cls-4" x="518.42" y="525.86" width="18.42" height="18.42"/>
    <rect class="cls-5" x="518.42" y="507.44" width="18.42" height="18.42"/>
    <rect class="cls-3" x="518.42" y="489.02" width="18.42" height="18.42"/>
    <rect class="cls-3" x="518.42" y="470.6" width="18.42" height="18.42"/>
    <rect class="cls-5" x="518.42" y="452.18" width="18.42" height="18.42"/>
    <rect class="cls-1" x="518.42" y="433.76" width="18.42" height="18.42"/>
    <rect class="cls-1" x="518.42" y="415.34" width="18.42" height="18.42"/>
    <rect class="cls-5" x="518.42" y="396.92" width="18.42" height="18.42"/>
    <rect class="cls-3" x="518.42" y="378.5" width="18.42" height="18.42"/>
    <rect class="cls-3" x="518.42" y="360.08" width="18.42" height="18.42"/>
    <rect class="cls-3" x="518.42" y="341.66" width="18.42" height="18.42"/>
    <rect class="cls-5" x="518.42" y="323.24" width="18.42" height="18.42"/>
    <rect class="cls-5" x="500" y="691.64" width="18.42" height="18.42"/>
    <rect class="cls-3" x="500" y="673.22" width="18.42" height="18.42"/>
    <rect class="cls-3" x="500" y="654.8" width="18.42" height="18.42"/>
    <rect class="cls-3" x="500" y="636.38" width="18.42" height="18.42"/>
    <rect class="cls-5" x="500" y="617.96" width="18.42" height="18.42"/>
    <rect class="cls-4" x="500" y="599.54" width="18.42" height="18.42"/>
    <rect class="cls-4" x="500" y="581.12" width="18.42" height="18.42"/>
    <rect class="cls-4" x="500" y="562.7" width="18.42" height="18.42"/>
    <rect class="cls-5" x="500" y="544.28" width="18.42" height="18.42"/>
    <rect class="cls-4" x="500" y="525.86" width="18.42" height="18.42"/>
    <rect class="cls-5" x="500" y="507.44" width="18.42" height="18.42"/>
    <rect class="cls-3" x="500" y="489.02" width="18.42" height="18.42"/>
    <rect class="cls-3" x="500" y="470.6" width="18.42" height="18.42"/>
    <rect class="cls-5" x="500" y="452.18" width="18.42" height="18.42"/>
    <rect class="cls-1" x="500" y="433.76" width="18.42" height="18.42"/>
    <rect class="cls-1" x="500" y="415.34" width="18.42" height="18.42"/>
    <rect class="cls-5" x="500" y="396.92" width="18.42" height="18.42"/>
    <rect class="cls-3" x="500" y="378.5" width="18.42" height="18.42"/>
    <rect class="cls-3" x="500" y="360.08" width="18.42" height="18.42"/>
    <rect class="cls-3" x="500" y="341.66" width="18.42" height="18.42"/>
    <rect class="cls-5" x="500" y="323.24" width="18.42" height="18.42"/>
    <rect class="cls-5" x="481.58" y="691.64" width="18.42" height="18.42"/>
    <rect class="cls-3" x="481.58" y="673.22" width="18.42" height="18.42"/>
    <rect class="cls-3" x="481.58" y="654.8" width="18.42" height="18.42"/>
    <rect class="cls-3" x="481.58" y="636.38" width="18.42" height="18.42"/>
    <rect class="cls-5" x="481.58" y="617.96" width="18.42" height="18.42"/>
    <rect class="cls-4" x="481.58" y="599.54" width="18.42" height="18.42"/>
    <rect class="cls-4" x="481.58" y="581.12" width="18.42" height="18.42"/>
    <rect class="cls-3" x="481.58" y="562.7" width="18.42" height="18.42"/>
    <rect class="cls-5" x="481.58" y="544.28" width="18.42" height="18.42"/>
    <rect class="cls-4" x="481.58" y="525.86" width="18.42" height="18.42"/>
    <rect class="cls-5" x="481.58" y="507.44" width="18.42" height="18.42"/>
    <rect class="cls-3" x="481.58" y="489.02" width="18.42" height="18.42"/>
    <rect class="cls-3" x="481.58" y="470.6" width="18.42" height="18.42"/>
    <rect class="cls-5" x="481.58" y="452.18" width="18.42" height="18.42"/>
    <rect class="cls-1" x="481.58" y="433.76" width="18.42" height="18.42"/>
    <rect class="cls-1" x="481.58" y="415.34" width="18.42" height="18.42"/>
    <rect class="cls-5" x="481.58" y="396.92" width="18.42" height="18.42"/>
    <rect class="cls-3" x="481.58" y="378.5" width="18.42" height="18.42"/>
    <rect class="cls-3" x="481.58" y="360.08" width="18.42" height="18.42"/>
    <rect class="cls-3" x="481.58" y="341.66" width="18.42" height="18.42"/>
    <rect class="cls-5" x="481.58" y="323.24" width="18.42" height="18.42"/>
    <rect class="cls-5" x="463.16" y="691.64" width="18.42" height="18.42"/>
    <rect class="cls-3" x="463.16" y="673.22" width="18.42" height="18.42"/>
    <rect class="cls-3" x="463.16" y="654.8" width="18.42" height="18.42"/>
    <rect class="cls-3" x="463.16" y="636.38" width="18.42" height="18.42"/>
    <rect class="cls-5" x="463.16" y="617.96" width="18.42" height="18.42"/>
    <rect class="cls-4" x="463.16" y="599.54" width="18.42" height="18.42"/>
    <rect class="cls-4" x="463.16" y="581.12" width="18.42" height="18.42"/>
    <rect class="cls-4" x="463.16" y="562.7" width="18.42" height="18.42"/>
    <rect class="cls-5" x="463.16" y="544.28" width="18.42" height="18.42"/>
    <rect class="cls-4" x="463.16" y="525.86" width="18.42" height="18.42"/>
    <rect class="cls-5" x="463.16" y="507.44" width="18.42" height="18.42"/>
    <rect class="cls-3" x="463.16" y="489.02" width="18.42" height="18.42"/>
    <rect class="cls-3" x="463.16" y="470.6" width="18.42" height="18.42"/>
    <rect class="cls-5" x="463.16" y="452.18" width="18.42" height="18.42"/>
    <rect class="cls-1" x="463.16" y="433.76" width="18.42" height="18.42"/>
    <rect class="cls-1" x="463.16" y="415.34" width="18.42" height="18.42"/>
    <rect class="cls-5" x="463.16" y="396.92" width="18.42" height="18.42"/>
    <rect class="cls-3" x="463.16" y="378.5" width="18.42" height="18.42"/>
    <rect class="cls-3" x="463.16" y="360.08" width="18.42" height="18.42"/>
    <rect class="cls-3" x="463.16" y="341.66" width="18.42" height="18.42"/>
    <rect class="cls-5" x="463.16" y="323.24" width="18.42" height="18.42"/>
    <rect class="cls-5" x="444.74" y="691.64" width="18.42" height="18.42"/>
    <rect class="cls-3" x="444.74" y="673.22" width="18.42" height="18.42"/>
    <rect class="cls-3" x="444.74" y="654.8" width="18.42" height="18.42"/>
    <rect class="cls-3" x="444.74" y="636.38" width="18.42" height="18.42"/>
    <rect class="cls-5" x="444.74" y="617.96" width="18.42" height="18.42"/>
    <rect class="cls-4" x="444.74" y="599.54" width="18.42" height="18.42"/>
    <rect class="cls-4" x="444.74" y="581.12" width="18.42" height="18.42"/>
    <rect class="cls-4" x="444.74" y="562.7" width="18.42" height="18.42"/>
    <rect class="cls-5" x="444.74" y="544.28" width="18.42" height="18.42"/>
    <rect class="cls-4" x="444.74" y="525.86" width="18.42" height="18.42"/>
    <rect class="cls-5" x="444.74" y="507.44" width="18.42" height="18.42"/>
    <rect class="cls-3" x="444.74" y="489.02" width="18.42" height="18.42"/>
    <rect class="cls-3" x="444.74" y="470.6" width="18.42" height="18.42"/>
    <rect class="cls-5" x="444.74" y="452.18" width="18.42" height="18.42"/>
    <rect class="cls-1" x="444.74" y="433.76" width="18.42" height="18.42"/>
    <rect class="cls-1" x="444.74" y="415.34" width="18.42" height="18.42"/>
    <rect class="cls-5" x="444.74" y="396.92" width="18.42" height="18.42"/>
    <rect class="cls-3" x="444.74" y="378.5" width="18.42" height="18.42"/>
    <rect class="cls-3" x="444.74" y="360.08" width="18.42" height="18.42"/>
    <rect class="cls-3" x="444.74" y="341.66" width="18.42" height="18.42"/>
    <rect class="cls-5" x="444.74" y="323.24" width="18.42" height="18.42"/>
    <rect class="cls-5" x="426.32" y="691.64" width="18.42" height="18.42"/>
    <rect class="cls-3" x="426.32" y="673.22" width="18.42" height="18.42"/>
    <rect class="cls-3" x="426.32" y="654.8" width="18.42" height="18.42"/>
    <rect class="cls-3" x="426.32" y="636.38" width="18.42" height="18.42"/>
    <rect class="cls-5" x="426.32" y="617.96" width="18.42" height="18.42"/>
    <rect class="cls-4" x="426.32" y="599.54" width="18.42" height="18.42"/>
    <rect class="cls-4" x="426.32" y="581.12" width="18.42" height="18.42"/>
    <rect class="cls-4" x="426.32" y="562.7" width="18.42" height="18.42"/>
    <rect class="cls-5" x="426.32" y="544.28" width="18.42" height="18.42"/>
    <rect class="cls-4" x="426.32" y="525.86" width="18.42" height="18.42"/>
    <rect class="cls-5" x="426.32" y="507.44" width="18.42" height="18.42"/>
    <rect class="cls-3" x="426.32" y="489.02" width="18.42" height="18.42"/>
    <rect class="cls-3" x="426.32" y="470.6" width="18.42" height="18.42"/>
    <rect class="cls-5" x="426.32" y="452.18" width="18.42" height="18.42"/>
    <rect class="cls-1" x="426.32" y="433.76" width="18.42" height="18.42"/>
    <rect class="cls-1" x="426.32" y="415.34" width="18.42" height="18.42"/>
    <rect class="cls-5" x="426.32" y="396.92" width="18.42" height="18.42"/>
    <rect class="cls-3" x="426.32" y="378.5" width="18.42" height="18.42"/>
    <rect class="cls-3" x="426.32" y="360.08" width="18.42" height="18.42"/>
    <rect class="cls-3" x="426.32" y="341.66" width="18.42" height="18.42"/>
    <rect class="cls-5" x="426.32" y="323.24" width="18.42" height="18.42"/>
    <rect class="cls-5" x="407.9" y="691.64" width="18.42" height="18.42"/>
    <rect class="cls-3" x="407.9" y="673.22" width="18.42" height="18.42"/>
    <rect class="cls-3" x="407.9" y="654.8" width="18.42" height="18.42"/>
    <rect class="cls-3" x="407.9" y="636.38" width="18.42" height="18.42"/>
    <rect class="cls-5" x="407.9" y="617.96" width="18.42" height="18.42"/>
    <rect class="cls-4" x="407.9" y="599.54" width="18.42" height="18.42"/>
    <rect class="cls-4" x="407.9" y="581.12" width="18.42" height="18.42"/>
    <rect class="cls-4" x="407.9" y="562.7" width="18.42" height="18.42"/>
    <rect class="cls-5" x="407.9" y="544.28" width="18.42" height="18.42"/>
    <rect class="cls-4" x="407.9" y="525.86" width="18.42" height="18.42"/>
    <rect class="cls-5" x="407.9" y="507.44" width="18.42" height="18.42"/>
    <rect class="cls-3" x="407.9" y="489.02" width="18.42" height="18.42"/>
    <rect class="cls-3" x="407.9" y="470.6" width="18.42" height="18.42"/>
    <rect class="cls-3" x="407.9" y="452.18" width="18.42" height="18.42"/>
    <rect class="cls-5" x="407.9" y="433.76" width="18.42" height="18.42"/>
    <rect class="cls-1" x="407.9" y="415.34" width="18.42" height="18.42"/>
    <rect class="cls-5" x="407.9" y="396.92" width="18.42" height="18.42"/>
    <rect class="cls-3" x="407.9" y="378.5" width="18.42" height="18.42"/>
    <rect class="cls-3" x="407.9" y="360.08" width="18.42" height="18.42"/>
    <rect class="cls-3" x="407.9" y="341.66" width="18.42" height="18.42"/>
    <rect class="cls-5" x="407.9" y="323.24" width="18.42" height="18.42"/>
    <rect class="cls-5" x="389.48" y="691.64" width="18.42" height="18.42"/>
    <rect class="cls-3" x="389.48" y="673.22" width="18.42" height="18.42"/>
    <rect class="cls-3" x="389.48" y="654.8" width="18.42" height="18.42"/>
    <rect class="cls-3" x="389.48" y="636.38" width="18.42" height="18.42"/>
    <rect class="cls-3" x="389.48" y="617.96" width="18.42" height="18.42"/>
    <rect class="cls-5" x="389.48" y="599.54" width="18.42" height="18.42"/>
    <rect class="cls-5" x="389.48" y="581.12" width="18.42" height="18.42"/>
    <rect class="cls-5" x="389.48" y="562.7" width="18.42" height="18.42"/>
    <rect class="cls-5" x="389.48" y="544.28" width="18.42" height="18.42"/>
    <rect class="cls-5" x="389.48" y="525.86" width="18.42" height="18.42"/>
    <rect class="cls-3" x="389.48" y="507.44" width="18.42" height="18.42"/>
    <rect class="cls-3" x="389.48" y="489.02" width="18.42" height="18.42"/>
    <rect class="cls-3" x="389.48" y="470.6" width="18.42" height="18.42"/>
    <rect class="cls-3" x="389.48" y="452.18" width="18.42" height="18.42"/>
    <rect class="cls-3" x="389.48" y="433.76" width="18.42" height="18.42"/>
    <rect class="cls-5" x="389.48" y="415.34" width="18.42" height="18.42"/>
    <rect class="cls-3" x="389.48" y="396.92" width="18.42" height="18.42"/>
    <rect class="cls-3" x="389.48" y="378.5" width="18.42" height="18.42"/>
    <rect class="cls-3" x="389.48" y="360.08" width="18.42" height="18.42"/>
    <rect class="cls-3" x="389.48" y="341.66" width="18.42" height="18.42"/>
    <rect class="cls-5" x="389.48" y="323.24" width="18.42" height="18.42"/>
    <rect class="cls-5" x="371.06" y="691.64" width="18.42" height="18.42"/>
    <rect class="cls-3" x="371.06" y="673.22" width="18.42" height="18.42"/>
    <rect class="cls-3" x="371.06" y="654.8" width="18.42" height="18.42"/>
    <rect class="cls-3" x="371.06" y="636.38" width="18.42" height="18.42"/>
    <rect class="cls-3" x="371.06" y="617.96" width="18.42" height="18.42"/>
    <rect class="cls-3" x="371.06" y="599.54" width="18.42" height="18.42"/>
    <rect class="cls-3" x="371.06" y="581.12" width="18.42" height="18.42"/>
    <rect class="cls-3" x="371.06" y="562.7" width="18.42" height="18.42"/>
    <rect class="cls-3" x="371.06" y="544.28" width="18.42" height="18.42"/>
    <rect class="cls-3" x="371.06" y="525.86" width="18.42" height="18.42"/>
    <rect class="cls-3" x="371.06" y="507.44" width="18.42" height="18.42"/>
    <rect class="cls-3" x="371.06" y="489.02" width="18.42" height="18.42"/>
    <rect class="cls-3" x="371.06" y="470.6" width="18.42" height="18.42"/>
    <rect class="cls-3" x="371.06" y="452.18" width="18.42" height="18.42"/>
    <rect class="cls-3" x="371.06" y="433.76" width="18.42" height="18.42"/>
    <rect class="cls-3" x="371.06" y="415.34" width="18.42" height="18.42"/>
    <rect class="cls-3" x="371.06" y="396.92" width="18.42" height="18.42"/>
    <rect class="cls-3" x="371.06" y="378.5" width="18.42" height="18.42"/>
    <rect class="cls-5" x="371.06" y="360.08" width="18.42" height="18.42"/>
    <rect class="cls-5" x="371.06" y="341.66" width="18.42" height="18.42"/>
    <rect class="cls-5" x="352.64" y="673.22" width="18.42" height="18.42"/>
    <rect class="cls-3" x="352.64" y="654.8" width="18.42" height="18.42"/>
    <rect class="cls-3" x="352.64" y="636.38" width="18.42" height="18.42"/>
    <rect class="cls-3" x="352.64" y="617.96" width="18.42" height="18.42"/>
    <rect class="cls-3" x="352.64" y="599.54" width="18.42" height="18.42"/>
    <rect class="cls-3" x="352.64" y="581.12" width="18.42" height="18.42"/>
    <rect class="cls-3" x="352.64" y="562.7" width="18.42" height="18.42"/>
    <rect class="cls-3" x="352.64" y="544.28" width="18.42" height="18.42"/>
    <rect class="cls-3" x="352.64" y="525.86" width="18.42" height="18.42"/>
    <rect class="cls-3" x="352.64" y="507.44" width="18.42" height="18.42"/>
    <rect class="cls-3" x="352.64" y="489.02" width="18.42" height="18.42"/>
    <rect class="cls-3" x="352.64" y="470.6" width="18.42" height="18.42"/>
    <rect class="cls-3" x="352.64" y="452.18" width="18.42" height="18.42"/>
    <rect class="cls-3" x="352.64" y="433.76" width="18.42" height="18.42"/>
    <rect class="cls-3" x="352.64" y="415.34" width="18.42" height="18.42"/>
    <rect class="cls-5" x="352.64" y="396.92" width="18.42" height="18.42"/>
    <rect class="cls-3" x="352.64" y="378.5" width="18.42" height="18.42"/>
    <rect class="cls-3" x="352.64" y="360.08" width="18.42" height="18.42"/>
    <rect class="cls-5" x="352.64" y="341.66" width="18.42" height="18.42"/>
    <rect class="cls-5" x="334.22" y="654.8" width="18.42" height="18.42"/>
    <rect class="cls-3" x="334.22" y="636.38" width="18.42" height="18.42"/>
    <rect class="cls-3" x="334.22" y="617.96" width="18.42" height="18.42"/>
    <rect class="cls-3" x="334.22" y="599.54" width="18.42" height="18.42"/>
    <rect class="cls-3" x="334.22" y="581.12" width="18.42" height="18.42"/>
    <rect class="cls-3" x="334.22" y="562.7" width="18.42" height="18.42"/>
    <rect class="cls-3" x="334.22" y="544.28" width="18.42" height="18.42"/>
    <rect class="cls-3" x="334.22" y="525.86" width="18.42" height="18.42"/>
    <rect class="cls-3" x="334.22" y="507.44" width="18.42" height="18.42"/>
    <rect class="cls-3" x="334.22" y="489.02" width="18.42" height="18.42"/>
    <rect class="cls-3" x="334.22" y="470.6" width="18.42" height="18.42"/>
    <rect class="cls-3" x="334.22" y="452.18" width="18.42" height="18.42"/>
    <rect class="cls-5" x="334.22" y="433.76" width="18.42" height="18.42"/>
    <rect class="cls-5" x="334.22" y="415.34" width="18.42" height="18.42"/>
    <rect class="cls-5" x="334.22" y="396.92" width="18.42" height="18.42"/>
    <rect class="cls-3" x="334.22" y="378.5" width="18.42" height="18.42"/>
    <rect class="cls-3" x="334.22" y="360.08" width="18.42" height="18.42"/>
    <rect class="cls-5" x="334.22" y="341.66" width="18.42" height="18.42"/>
    <rect class="cls-5" x="334.22" y="323.24" width="18.42" height="18.42"/>
    <rect class="cls-5" x="315.8" y="617.96" width="18.42" height="18.42"/>
    <rect class="cls-5" x="315.8" y="599.54" width="18.42" height="18.42"/>
    <rect class="cls-5" x="315.8" y="581.12" width="18.42" height="18.42"/>
    <rect class="cls-5" x="315.8" y="562.7" width="18.42" height="18.42"/>
    <rect class="cls-5" x="315.8" y="544.28" width="18.42" height="18.42"/>
    <rect class="cls-5" x="315.8" y="525.86" width="18.42" height="18.42"/>
    <rect class="cls-5" x="315.8" y="507.44" width="18.42" height="18.42"/>
    <rect class="cls-5" x="315.8" y="489.02" width="18.42" height="18.42"/>
    <rect class="cls-5" x="315.8" y="470.6" width="18.42" height="18.42"/>
    <rect class="cls-5" x="315.8" y="452.18" width="18.42" height="18.42"/>
    <rect class="cls-6" x="315.8" y="433.76" width="18.42" height="18.42"/>
    <rect class="cls-6" x="315.8" y="415.34" width="18.42" height="18.42"/>
    <rect class="cls-5" x="315.8" y="396.92" width="18.42" height="18.42"/>
    <rect class="cls-3" x="315.8" y="378.5" width="18.42" height="18.42"/>
    <rect class="cls-3" x="315.8" y="360.08" width="18.42" height="18.42"/>
    <rect class="cls-3" x="315.8" y="341.66" width="18.42" height="18.42"/>
    <rect class="cls-5" x="315.8" y="323.24" width="18.42" height="18.42"/>
    <rect class="cls-5" x="315.8" y="304.82" width="18.42" height="18.42"/>
    <rect class="cls-5" x="297.38" y="525.86" width="18.42" height="18.42"/>
    <rect class="cls-5" x="297.38" y="507.44" width="18.42" height="18.42"/>
    <rect class="cls-6" x="297.38" y="489.02" width="18.42" height="18.42"/>
    <rect class="cls-6" x="297.38" y="470.6" width="18.42" height="18.42"/>
    <rect class="cls-6" x="297.38" y="452.18" width="18.42" height="18.42"/>
    <rect class="cls-6" x="297.38" y="433.76" width="18.42" height="18.42"/>
    <rect class="cls-6" x="297.38" y="415.34" width="18.42" height="18.42"/>
    <rect class="cls-5" x="297.38" y="396.92" width="18.42" height="18.42"/>
    <rect class="cls-5" x="297.38" y="378.5" width="18.42" height="18.42"/>
    <rect class="cls-3" x="297.38" y="360.08" width="18.42" height="18.42"/>
    <rect class="cls-3" x="297.38" y="341.66" width="18.42" height="18.42"/>
    <rect class="cls-3" x="297.38" y="323.24" width="18.42" height="18.42"/>
    <rect class="cls-5" x="297.38" y="304.82" width="18.42" height="18.42"/>
    <rect class="cls-5" x="278.96" y="507.44" width="18.42" height="18.42"/>
    <rect class="cls-6" x="278.96" y="489.02" width="18.42" height="18.42"/>
    <rect class="cls-6" x="278.96" y="470.6" width="18.42" height="18.42"/>
    <rect class="cls-6" x="278.96" y="452.18" width="18.42" height="18.42"/>
    <rect class="cls-6" x="278.96" y="433.76" width="18.42" height="18.42"/>
    <rect class="cls-6" x="278.96" y="415.34" width="18.42" height="18.42"/>
    <rect class="cls-6" x="278.96" y="396.92" width="18.42" height="18.42"/>
    <rect class="cls-5" x="278.96" y="378.5" width="18.42" height="18.42"/>
    <rect class="cls-5" x="278.96" y="360.08" width="18.42" height="18.42"/>
    <rect class="cls-3" x="278.96" y="341.66" width="18.42" height="18.42"/>
    <rect class="cls-3" x="278.96" y="323.24" width="18.42" height="18.42"/>
    <rect class="cls-5" x="278.96" y="304.82" width="18.42" height="18.42"/>
    <rect class="cls-5" x="260.54" y="507.44" width="18.42" height="18.42"/>
    <rect class="cls-5" x="260.54" y="489.02" width="18.42" height="18.42"/>
    <rect class="cls-5" x="260.54" y="470.6" width="18.42" height="18.42"/>
    <rect class="cls-6" x="260.54" y="452.18" width="18.42" height="18.42"/>
    <rect class="cls-6" x="260.54" y="433.76" width="18.42" height="18.42"/>
    <rect class="cls-6" x="260.54" y="415.34" width="18.42" height="18.42"/>
    <rect class="cls-6" x="260.54" y="396.92" width="18.42" height="18.42"/>
    <rect class="cls-6" x="260.54" y="378.5" width="18.42" height="18.42"/>
    <rect class="cls-5" x="260.54" y="360.08" width="18.42" height="18.42"/>
    <rect class="cls-5" x="260.54" y="341.66" width="18.42" height="18.42"/>
    <rect class="cls-5" x="260.54" y="323.24" width="18.42" height="18.42"/>
    <rect class="cls-5" x="260.54" y="304.82" width="18.42" height="18.42"/>
    <rect class="cls-5" x="242.12" y="470.6" width="18.42" height="18.42"/>
    <rect class="cls-5" x="242.12" y="452.18" width="18.42" height="18.42"/>
    <rect class="cls-5" x="242.12" y="433.76" width="18.42" height="18.42"/>
    <rect class="cls-5" x="242.12" y="415.34" width="18.42" height="18.42"/>
    <rect class="cls-5" x="242.12" y="396.92" width="18.42" height="18.42"/>
    <rect class="cls-5" x="242.12" y="378.5" width="18.42" height="18.42"/>
    <rect class="cls-5" x="242.12" y="360.08" width="18.42" height="18.42"/>
    <rect class="cls-5" x="242.12" y="341.66" width="18.42" height="18.42"/>
  </g>
  <g>
    <path class="cls-2" d="M597.27,323.75c-3.67,3.72-1.99,4.96-7.22,4.96s-5.22,.82-10.44,.82-5.22-.72-10.44-.72-5.22-2.99-10.44-2.99-5.22-6.93-10.45-6.93-5.22,21.52-10.44,21.52c-5.22,0-5.22-27.91-10.45-27.91-5.22,0-5.22,19.66-10.45,19.66s-5.22-1.98-10.45-1.98c-5.22,0-5.22,10.9-10.45,10.9s-5.22-26.73-10.45-26.73-5.23,2.77-10.45,2.77-5.22,13.86-10.45,13.86-5.22-18.92-10.45-18.92-5.22,16.1-10.45,16.1-5.22-9.62-10.45-9.62-5.22,7.83-10.45,7.83-5.23-3.22-10.45-3.22-5.22-10.95-10.45-10.95-5.23,22.53-10.46,22.53-2.67-8.14-6.35-11.86c-3.72-3.76,7.05-1.22,7.05-6.51s.71-5.28,.71-10.57c0-5.29-18.8-5.29-18.8-10.57s5.25-5.29,5.25-10.57,12.79-5.29,12.79-10.57c0-5.29-11.38-5.29-11.38-10.58s-2.6-5.99,1.12-9.76,4.39-15.28,9.61-15.28,5.22,12.44,10.44,12.44,5.22-6.02,10.44-6.02,5.22-4.25,10.44-4.25,5.22,20.05,10.45,20.05,5.22-3.37,10.44-3.37,5.22-9.9,10.45-9.9,5.22,14.69,10.45,14.69,5.22-7.11,10.45-7.11,5.22,10.22,10.45,10.22,5.22-23.58,10.45-23.58,5.23,8.36,10.45,8.36,5.22-11.67,10.45-11.67,5.22,12.77,10.45,12.77,5.22,2.89,10.45,2.89,5.22-12.78,10.45-12.78,5.22,6.78,10.45,6.78,5.23,5.05,10.45,5.05,5.22-3.14,10.45-3.14,5.23,3.69,10.46,3.69,.63,1.72,4.31,5.43,19.45-.8,19.45,4.48-10.59,5.28-10.59,10.57c0,5.29-4.37,5.29-4.37,10.57s13.5,5.29,13.5,10.57-11.13,5.29-11.13,10.57-2.73,5.36-2.55,10.64c.14,4.15,2.33,3.56-1.39,7.33Z"/>
    <text class="cls-7" transform="translate(407.27 304.03)"><tspan x="0" y="0">SHO</tspan><tspan class="cls-9" x="103.83" y="0">O</tspan><tspan class="cls-8" x="135.43" y="0">T</tspan></text>
  </g>
</svg>