<?xml version="1.0" encoding="UTF-8"?>
<svg id="_圖層_4" data-name="圖層 4" xmlns="http://www.w3.org/2000/svg" xmlns:xlink="http://www.w3.org/1999/xlink" viewBox="0 0 1000 1000">
  <defs>
    <style>
      .cls-1 {
        fill: #9f3138;
      }

      .cls-2 {
        fill: #c3beab;
      }

      .cls-3 {
        fill: #2c222e;
      }

      .cls-4 {
        fill: #3c4d4b;
      }

      .cls-5 {
        filter: url(#drop-shadow-1);
        font-family: 'Cubic_11', 'Cubic 11';
        font-size: 54.17px;
        stroke: #fff;
        stroke-miterlimit: 10;
      }

      .cls-6 {
        letter-spacing: 0em;
      }

      .cls-7 {
        letter-spacing: -.08em;
      }
    </style>
    <filter id="drop-shadow-1" filterUnits="userSpaceOnUse">
      <feOffset dx="7" dy="7"/>
      <feGaussianBlur result="blur" stdDeviation="5"/>
      <feFlood flood-color="#000" flood-opacity=".75"/>
      <feComposite in2="blur" operator="in"/>
      <feComposite in="SourceGraphic"/>
    </filter>
  </defs>
  <g>
    <rect class="cls-2" x="326.3" y="582.28" width="18.28" height="18.28"/>
    <rect class="cls-2" x="308.01" y="582.28" width="18.29" height="18.28"/>
    <rect class="cls-2" x="326.3" y="509.14" width="18.28" height="18.29"/>
    <rect class="cls-2" x="308.01" y="509.14" width="18.29" height="18.29"/>
    <rect class="cls-2" x="326.3" y="436" width="18.28" height="18.29"/>
    <rect class="cls-2" x="308.01" y="436" width="18.29" height="18.29"/>
    <rect class="cls-2" x="326.3" y="362.87" width="18.28" height="18.28"/>
    <rect class="cls-2" x="308.01" y="362.87" width="18.29" height="18.28"/>
    <rect class="cls-3" x="600.56" y="600.56" width="18.29" height="18.29"/>
    <rect class="cls-3" x="600.56" y="582.28" width="18.29" height="18.28"/>
    <rect class="cls-3" x="600.56" y="564" width="18.29" height="18.28"/>
    <rect class="cls-3" x="600.56" y="545.71" width="18.29" height="18.29"/>
    <rect class="cls-3" x="600.56" y="527.43" width="18.29" height="18.28"/>
    <rect class="cls-3" x="600.56" y="509.14" width="18.29" height="18.29"/>
    <rect class="cls-3" x="600.56" y="490.86" width="18.29" height="18.28"/>
    <rect class="cls-3" x="600.56" y="472.57" width="18.29" height="18.29"/>
    <rect class="cls-3" x="600.56" y="454.29" width="18.29" height="18.28"/>
    <rect class="cls-3" x="600.56" y="436" width="18.29" height="18.29"/>
    <rect class="cls-3" x="600.56" y="417.72" width="18.29" height="18.28"/>
    <rect class="cls-3" x="600.56" y="399.44" width="18.29" height="18.28"/>
    <rect class="cls-3" x="600.56" y="381.15" width="18.29" height="18.29"/>
    <rect class="cls-3" x="600.56" y="362.87" width="18.29" height="18.28"/>
    <rect class="cls-3" x="600.56" y="344.58" width="18.29" height="18.29"/>
    <rect class="cls-3" x="582.28" y="618.85" width="18.28" height="18.28"/>
    <rect class="cls-4" x="582.28" y="600.56" width="18.28" height="18.29"/>
    <rect class="cls-4" x="582.28" y="582.28" width="18.28" height="18.28"/>
    <rect class="cls-4" x="582.28" y="564" width="18.28" height="18.28"/>
    <rect class="cls-4" x="582.28" y="545.71" width="18.28" height="18.29"/>
    <rect class="cls-4" x="582.28" y="527.43" width="18.28" height="18.28"/>
    <rect class="cls-4" x="582.28" y="509.14" width="18.28" height="18.29"/>
    <rect class="cls-4" x="582.28" y="490.86" width="18.28" height="18.28"/>
    <rect class="cls-4" x="582.28" y="472.57" width="18.28" height="18.29"/>
    <rect class="cls-4" x="582.28" y="454.29" width="18.28" height="18.28"/>
    <rect class="cls-4" x="582.28" y="436" width="18.28" height="18.29"/>
    <rect class="cls-4" x="582.28" y="417.72" width="18.28" height="18.28"/>
    <rect class="cls-4" x="582.28" y="399.44" width="18.28" height="18.28"/>
    <rect class="cls-4" x="582.28" y="381.15" width="18.28" height="18.29"/>
    <rect class="cls-4" x="582.28" y="362.87" width="18.28" height="18.28"/>
    <rect class="cls-4" x="582.28" y="344.58" width="18.28" height="18.29"/>
    <rect class="cls-3" x="582.28" y="326.3" width="18.28" height="18.28"/>
    <rect class="cls-3" x="564" y="637.13" width="18.28" height="18.29"/>
    <rect class="cls-4" x="564" y="618.85" width="18.28" height="18.28"/>
    <rect class="cls-4" x="564" y="600.56" width="18.28" height="18.29"/>
    <rect class="cls-4" x="564" y="582.28" width="18.28" height="18.28"/>
    <rect class="cls-4" x="564" y="564" width="18.28" height="18.28"/>
    <rect class="cls-4" x="564" y="545.71" width="18.28" height="18.29"/>
    <rect class="cls-4" x="564" y="527.43" width="18.28" height="18.28"/>
    <rect class="cls-4" x="564" y="509.14" width="18.28" height="18.29"/>
    <rect class="cls-4" x="564" y="490.86" width="18.28" height="18.28"/>
    <rect class="cls-4" x="564" y="472.57" width="18.28" height="18.29"/>
    <rect class="cls-4" x="564" y="454.29" width="18.28" height="18.28"/>
    <rect class="cls-4" x="564" y="436" width="18.28" height="18.29"/>
    <rect class="cls-4" x="564" y="417.72" width="18.28" height="18.28"/>
    <rect class="cls-4" x="564" y="399.44" width="18.28" height="18.28"/>
    <rect class="cls-4" x="564" y="381.15" width="18.28" height="18.29"/>
    <rect class="cls-4" x="564" y="362.87" width="18.28" height="18.28"/>
    <rect class="cls-4" x="564" y="344.58" width="18.28" height="18.29"/>
    <rect class="cls-4" x="564" y="326.3" width="18.28" height="18.28"/>
    <rect class="cls-4" x="564" y="308.01" width="18.28" height="18.29"/>
    <rect class="cls-3" x="564" y="289.73" width="18.28" height="18.28"/>
    <rect class="cls-3" x="545.71" y="637.13" width="18.29" height="18.29"/>
    <rect class="cls-4" x="545.71" y="618.85" width="18.29" height="18.28"/>
    <rect class="cls-4" x="545.71" y="600.56" width="18.29" height="18.29"/>
    <rect class="cls-4" x="545.71" y="582.28" width="18.29" height="18.28"/>
    <rect class="cls-4" x="545.71" y="564" width="18.29" height="18.28"/>
    <rect class="cls-4" x="545.71" y="545.71" width="18.29" height="18.29"/>
    <rect class="cls-4" x="545.71" y="527.43" width="18.29" height="18.28"/>
    <rect class="cls-4" x="545.71" y="509.14" width="18.29" height="18.29"/>
    <rect class="cls-4" x="545.71" y="490.86" width="18.29" height="18.28"/>
    <rect class="cls-4" x="545.71" y="472.57" width="18.29" height="18.29"/>
    <rect class="cls-4" x="545.71" y="454.29" width="18.29" height="18.28"/>
    <rect class="cls-4" x="545.71" y="436" width="18.29" height="18.29"/>
    <rect class="cls-4" x="545.71" y="417.72" width="18.29" height="18.28"/>
    <rect class="cls-4" x="545.71" y="399.44" width="18.29" height="18.28"/>
    <rect class="cls-4" x="545.71" y="381.15" width="18.29" height="18.29"/>
    <rect class="cls-4" x="545.71" y="362.87" width="18.29" height="18.28"/>
    <rect class="cls-4" x="545.71" y="344.58" width="18.29" height="18.29"/>
    <rect class="cls-4" x="545.71" y="326.3" width="18.29" height="18.28"/>
    <rect class="cls-4" x="545.71" y="308.01" width="18.29" height="18.29"/>
    <rect class="cls-3" x="545.71" y="289.73" width="18.29" height="18.28"/>
    <rect class="cls-3" x="527.43" y="637.13" width="18.28" height="18.29"/>
    <rect class="cls-4" x="527.43" y="618.85" width="18.28" height="18.28"/>
    <rect class="cls-4" x="527.43" y="600.56" width="18.28" height="18.29"/>
    <rect class="cls-3" x="527.43" y="582.28" width="18.28" height="18.28"/>
    <rect class="cls-4" x="527.43" y="564" width="18.28" height="18.28"/>
    <rect class="cls-4" x="527.43" y="545.71" width="18.28" height="18.29"/>
    <rect class="cls-3" x="527.43" y="527.43" width="18.28" height="18.28"/>
    <rect class="cls-4" x="527.43" y="509.14" width="18.28" height="18.29"/>
    <rect class="cls-4" x="527.43" y="490.86" width="18.28" height="18.28"/>
    <rect class="cls-3" x="527.43" y="472.57" width="18.28" height="18.29"/>
    <rect class="cls-4" x="527.43" y="454.29" width="18.28" height="18.28"/>
    <rect class="cls-4" x="527.43" y="436" width="18.28" height="18.29"/>
    <rect class="cls-4" x="527.43" y="417.72" width="18.28" height="18.28"/>
    <rect class="cls-3" x="527.43" y="399.44" width="18.28" height="18.28"/>
    <rect class="cls-3" x="527.43" y="381.15" width="18.28" height="18.29"/>
    <rect class="cls-3" x="527.43" y="362.87" width="18.28" height="18.28"/>
    <rect class="cls-4" x="527.43" y="344.58" width="18.28" height="18.29"/>
    <rect class="cls-4" x="527.43" y="326.3" width="18.28" height="18.28"/>
    <rect class="cls-4" x="527.43" y="308.01" width="18.28" height="18.29"/>
    <rect class="cls-3" x="527.43" y="289.73" width="18.28" height="18.28"/>
    <rect class="cls-3" x="509.14" y="637.13" width="18.29" height="18.29"/>
    <rect class="cls-4" x="509.14" y="618.85" width="18.29" height="18.28"/>
    <rect class="cls-4" x="509.14" y="600.56" width="18.29" height="18.29"/>
    <rect class="cls-3" x="509.14" y="582.28" width="18.29" height="18.28"/>
    <rect class="cls-4" x="509.14" y="564" width="18.29" height="18.28"/>
    <rect class="cls-4" x="509.14" y="545.71" width="18.29" height="18.29"/>
    <rect class="cls-3" x="509.14" y="527.43" width="18.29" height="18.28"/>
    <rect class="cls-4" x="509.14" y="509.14" width="18.29" height="18.29"/>
    <rect class="cls-4" x="509.14" y="490.86" width="18.29" height="18.28"/>
    <rect class="cls-3" x="509.14" y="472.57" width="18.29" height="18.29"/>
    <rect class="cls-4" x="509.14" y="454.29" width="18.29" height="18.28"/>
    <rect class="cls-4" x="509.14" y="436" width="18.29" height="18.29"/>
    <rect class="cls-3" x="509.14" y="417.72" width="18.29" height="18.28"/>
    <rect class="cls-2" x="509.14" y="399.44" width="18.29" height="18.28"/>
    <rect class="cls-2" x="509.14" y="381.15" width="18.29" height="18.29"/>
    <rect class="cls-2" x="509.14" y="362.87" width="18.29" height="18.28"/>
    <rect class="cls-3" x="509.14" y="344.58" width="18.29" height="18.29"/>
    <rect class="cls-4" x="509.14" y="326.3" width="18.29" height="18.28"/>
    <rect class="cls-4" x="509.14" y="308.01" width="18.29" height="18.29"/>
    <rect class="cls-3" x="509.14" y="289.73" width="18.29" height="18.28"/>
    <rect class="cls-3" x="490.86" y="637.13" width="18.28" height="18.29"/>
    <rect class="cls-4" x="490.86" y="618.85" width="18.28" height="18.28"/>
    <rect class="cls-4" x="490.86" y="600.56" width="18.28" height="18.29"/>
    <rect class="cls-3" x="490.86" y="582.28" width="18.28" height="18.28"/>
    <rect class="cls-4" x="490.86" y="564" width="18.28" height="18.28"/>
    <rect class="cls-4" x="490.86" y="545.71" width="18.28" height="18.29"/>
    <rect class="cls-3" x="490.86" y="527.43" width="18.28" height="18.28"/>
    <rect class="cls-4" x="490.86" y="509.14" width="18.28" height="18.29"/>
    <rect class="cls-4" x="490.86" y="490.86" width="18.28" height="18.28"/>
    <rect class="cls-3" x="490.86" y="472.57" width="18.28" height="18.29"/>
    <rect class="cls-4" x="490.86" y="454.29" width="18.28" height="18.28"/>
    <rect class="cls-4" x="490.86" y="436" width="18.28" height="18.29"/>
    <rect class="cls-3" x="490.86" y="417.72" width="18.28" height="18.28"/>
    <rect class="cls-2" x="490.86" y="399.44" width="18.28" height="18.28"/>
    <rect class="cls-2" x="490.86" y="381.15" width="18.28" height="18.29"/>
    <rect class="cls-2" x="490.86" y="362.87" width="18.28" height="18.28"/>
    <rect class="cls-3" x="490.86" y="344.58" width="18.28" height="18.29"/>
    <rect class="cls-4" x="490.86" y="326.3" width="18.28" height="18.28"/>
    <rect class="cls-4" x="490.86" y="308.01" width="18.28" height="18.29"/>
    <rect class="cls-3" x="490.86" y="289.73" width="18.28" height="18.28"/>
    <rect class="cls-3" x="472.57" y="637.13" width="18.29" height="18.29"/>
    <rect class="cls-4" x="472.57" y="618.85" width="18.29" height="18.28"/>
    <rect class="cls-4" x="472.57" y="600.56" width="18.29" height="18.29"/>
    <rect class="cls-3" x="472.57" y="582.28" width="18.29" height="18.28"/>
    <rect class="cls-4" x="472.57" y="564" width="18.29" height="18.28"/>
    <rect class="cls-4" x="472.57" y="545.71" width="18.29" height="18.29"/>
    <rect class="cls-3" x="472.57" y="527.43" width="18.29" height="18.28"/>
    <rect class="cls-4" x="472.57" y="509.14" width="18.29" height="18.29"/>
    <rect class="cls-4" x="472.57" y="490.86" width="18.29" height="18.28"/>
    <rect class="cls-3" x="472.57" y="472.57" width="18.29" height="18.29"/>
    <rect class="cls-4" x="472.57" y="454.29" width="18.29" height="18.28"/>
    <rect class="cls-4" x="472.57" y="436" width="18.29" height="18.29"/>
    <rect class="cls-3" x="472.57" y="417.72" width="18.29" height="18.28"/>
    <rect class="cls-2" x="472.57" y="399.44" width="18.29" height="18.28"/>
    <rect class="cls-2" x="472.57" y="381.15" width="18.29" height="18.29"/>
    <rect class="cls-2" x="472.57" y="362.87" width="18.29" height="18.28"/>
    <rect class="cls-3" x="472.57" y="344.58" width="18.29" height="18.29"/>
    <rect class="cls-4" x="472.57" y="326.3" width="18.29" height="18.28"/>
    <rect class="cls-4" x="472.57" y="308.01" width="18.29" height="18.29"/>
    <rect class="cls-3" x="472.57" y="289.73" width="18.29" height="18.28"/>
    <rect class="cls-3" x="454.29" y="637.13" width="18.28" height="18.29"/>
    <rect class="cls-4" x="454.29" y="618.85" width="18.28" height="18.28"/>
    <rect class="cls-4" x="454.29" y="600.56" width="18.28" height="18.29"/>
    <rect class="cls-3" x="454.29" y="582.28" width="18.28" height="18.28"/>
    <rect class="cls-4" x="454.29" y="564" width="18.28" height="18.28"/>
    <rect class="cls-4" x="454.29" y="545.71" width="18.28" height="18.29"/>
    <rect class="cls-3" x="454.29" y="527.43" width="18.28" height="18.28"/>
    <rect class="cls-4" x="454.29" y="509.14" width="18.28" height="18.29"/>
    <rect class="cls-4" x="454.29" y="490.86" width="18.28" height="18.28"/>
    <rect class="cls-3" x="454.29" y="472.57" width="18.28" height="18.29"/>
    <rect class="cls-4" x="454.29" y="454.29" width="18.28" height="18.28"/>
    <rect class="cls-4" x="454.29" y="436" width="18.28" height="18.29"/>
    <rect class="cls-3" x="454.29" y="417.72" width="18.28" height="18.28"/>
    <rect class="cls-2" x="454.29" y="399.44" width="18.28" height="18.28"/>
    <rect class="cls-2" x="454.29" y="381.15" width="18.28" height="18.29"/>
    <rect class="cls-2" x="454.29" y="362.87" width="18.28" height="18.28"/>
    <rect class="cls-3" x="454.29" y="344.58" width="18.28" height="18.29"/>
    <rect class="cls-4" x="454.29" y="326.3" width="18.28" height="18.28"/>
    <rect class="cls-4" x="454.29" y="308.01" width="18.28" height="18.29"/>
    <rect class="cls-3" x="454.29" y="289.73" width="18.28" height="18.28"/>
    <rect class="cls-3" x="436" y="637.13" width="18.29" height="18.29"/>
    <rect class="cls-4" x="436" y="618.85" width="18.29" height="18.28"/>
    <rect class="cls-4" x="436" y="600.56" width="18.29" height="18.29"/>
    <rect class="cls-3" x="436" y="582.28" width="18.29" height="18.28"/>
    <rect class="cls-4" x="436" y="564" width="18.29" height="18.28"/>
    <rect class="cls-4" x="436" y="545.71" width="18.29" height="18.29"/>
    <rect class="cls-3" x="436" y="527.43" width="18.29" height="18.28"/>
    <rect class="cls-4" x="436" y="509.14" width="18.29" height="18.29"/>
    <rect class="cls-4" x="436" y="490.86" width="18.29" height="18.28"/>
    <rect class="cls-3" x="436" y="472.57" width="18.29" height="18.29"/>
    <rect class="cls-4" x="436" y="454.29" width="18.29" height="18.28"/>
    <rect class="cls-4" x="436" y="436" width="18.29" height="18.29"/>
    <rect class="cls-3" x="436" y="417.72" width="18.29" height="18.28"/>
    <rect class="cls-2" x="436" y="399.44" width="18.29" height="18.28"/>
    <rect class="cls-2" x="436" y="381.15" width="18.29" height="18.29"/>
    <rect class="cls-2" x="436" y="362.87" width="18.29" height="18.28"/>
    <rect class="cls-3" x="436" y="344.58" width="18.29" height="18.29"/>
    <rect class="cls-4" x="436" y="326.3" width="18.29" height="18.28"/>
    <rect class="cls-4" x="436" y="308.01" width="18.29" height="18.29"/>
    <rect class="cls-3" x="436" y="289.73" width="18.29" height="18.28"/>
    <rect class="cls-3" x="417.72" y="637.13" width="18.28" height="18.29"/>
    <rect class="cls-4" x="417.72" y="618.85" width="18.28" height="18.28"/>
    <rect class="cls-4" x="417.72" y="600.56" width="18.28" height="18.29"/>
    <rect class="cls-3" x="417.72" y="582.28" width="18.28" height="18.28"/>
    <rect class="cls-4" x="417.72" y="564" width="18.28" height="18.28"/>
    <rect class="cls-4" x="417.72" y="545.71" width="18.28" height="18.29"/>
    <rect class="cls-3" x="417.72" y="527.43" width="18.28" height="18.28"/>
    <rect class="cls-4" x="417.72" y="509.14" width="18.28" height="18.29"/>
    <rect class="cls-4" x="417.72" y="490.86" width="18.28" height="18.28"/>
    <rect class="cls-3" x="417.72" y="472.57" width="18.28" height="18.29"/>
    <rect class="cls-4" x="417.72" y="454.29" width="18.28" height="18.28"/>
    <rect class="cls-4" x="417.72" y="436" width="18.28" height="18.29"/>
    <rect class="cls-3" x="417.72" y="417.72" width="18.28" height="18.28"/>
    <rect class="cls-2" x="417.72" y="399.44" width="18.28" height="18.28"/>
    <rect class="cls-2" x="417.72" y="381.15" width="18.28" height="18.29"/>
    <rect class="cls-2" x="417.72" y="362.87" width="18.28" height="18.28"/>
    <rect class="cls-3" x="417.72" y="344.58" width="18.28" height="18.29"/>
    <rect class="cls-4" x="417.72" y="326.3" width="18.28" height="18.28"/>
    <rect class="cls-4" x="417.72" y="308.01" width="18.28" height="18.29"/>
    <rect class="cls-3" x="417.72" y="289.73" width="18.28" height="18.28"/>
    <rect class="cls-3" x="399.44" y="637.13" width="18.28" height="18.29"/>
    <rect class="cls-4" x="399.44" y="618.85" width="18.28" height="18.28"/>
    <rect class="cls-4" x="399.44" y="600.56" width="18.28" height="18.29"/>
    <rect class="cls-3" x="399.44" y="582.28" width="18.28" height="18.28"/>
    <rect class="cls-4" x="399.44" y="564" width="18.28" height="18.28"/>
    <rect class="cls-4" x="399.44" y="545.71" width="18.28" height="18.29"/>
    <rect class="cls-3" x="399.44" y="527.43" width="18.28" height="18.28"/>
    <rect class="cls-4" x="399.44" y="509.14" width="18.28" height="18.29"/>
    <rect class="cls-4" x="399.44" y="490.86" width="18.28" height="18.28"/>
    <rect class="cls-3" x="399.44" y="472.57" width="18.28" height="18.29"/>
    <rect class="cls-4" x="399.44" y="454.29" width="18.28" height="18.28"/>
    <rect class="cls-4" x="399.44" y="436" width="18.28" height="18.29"/>
    <rect class="cls-4" x="399.44" y="417.72" width="18.28" height="18.28"/>
    <rect class="cls-3" x="399.44" y="399.44" width="18.28" height="18.28"/>
    <rect class="cls-3" x="399.44" y="381.15" width="18.28" height="18.29"/>
    <rect class="cls-3" x="399.44" y="362.87" width="18.28" height="18.28"/>
    <rect class="cls-4" x="399.44" y="344.58" width="18.28" height="18.29"/>
    <rect class="cls-4" x="399.44" y="326.3" width="18.28" height="18.28"/>
    <rect class="cls-4" x="399.44" y="308.01" width="18.28" height="18.29"/>
    <rect class="cls-3" x="399.44" y="289.73" width="18.28" height="18.28"/>
    <rect class="cls-3" x="381.15" y="637.13" width="18.29" height="18.29"/>
    <rect class="cls-4" x="381.15" y="618.85" width="18.29" height="18.28"/>
    <rect class="cls-4" x="381.15" y="600.56" width="18.29" height="18.29"/>
    <rect class="cls-4" x="381.15" y="582.28" width="18.29" height="18.28"/>
    <rect class="cls-4" x="381.15" y="564" width="18.29" height="18.28"/>
    <rect class="cls-4" x="381.15" y="545.71" width="18.29" height="18.29"/>
    <rect class="cls-4" x="381.15" y="527.43" width="18.29" height="18.28"/>
    <rect class="cls-4" x="381.15" y="509.14" width="18.29" height="18.29"/>
    <rect class="cls-4" x="381.15" y="490.86" width="18.29" height="18.28"/>
    <rect class="cls-4" x="381.15" y="472.57" width="18.29" height="18.29"/>
    <rect class="cls-4" x="381.15" y="454.29" width="18.29" height="18.28"/>
    <rect class="cls-4" x="381.15" y="436" width="18.29" height="18.29"/>
    <rect class="cls-4" x="381.15" y="417.72" width="18.29" height="18.28"/>
    <rect class="cls-4" x="381.15" y="399.44" width="18.29" height="18.28"/>
    <rect class="cls-4" x="381.15" y="381.15" width="18.29" height="18.29"/>
    <rect class="cls-4" x="381.15" y="362.87" width="18.29" height="18.28"/>
    <rect class="cls-4" x="381.15" y="344.58" width="18.29" height="18.29"/>
    <rect class="cls-4" x="381.15" y="326.3" width="18.29" height="18.28"/>
    <rect class="cls-4" x="381.15" y="308.01" width="18.29" height="18.29"/>
    <rect class="cls-3" x="381.15" y="289.73" width="18.29" height="18.28"/>
    <rect class="cls-3" x="362.87" y="637.13" width="18.28" height="18.29"/>
    <rect class="cls-4" x="362.87" y="618.85" width="18.28" height="18.28"/>
    <rect class="cls-4" x="362.87" y="600.56" width="18.28" height="18.29"/>
    <rect class="cls-4" x="362.87" y="582.28" width="18.28" height="18.28"/>
    <rect class="cls-4" x="362.87" y="564" width="18.28" height="18.28"/>
    <rect class="cls-4" x="362.87" y="545.71" width="18.28" height="18.29"/>
    <rect class="cls-4" x="362.87" y="527.43" width="18.28" height="18.28"/>
    <rect class="cls-4" x="362.87" y="509.14" width="18.28" height="18.29"/>
    <rect class="cls-4" x="362.87" y="490.86" width="18.28" height="18.28"/>
    <rect class="cls-4" x="362.87" y="472.57" width="18.28" height="18.29"/>
    <rect class="cls-4" x="362.87" y="454.29" width="18.28" height="18.28"/>
    <rect class="cls-4" x="362.87" y="436" width="18.28" height="18.29"/>
    <rect class="cls-4" x="362.87" y="417.72" width="18.28" height="18.28"/>
    <rect class="cls-4" x="362.87" y="399.44" width="18.28" height="18.28"/>
    <rect class="cls-4" x="362.87" y="381.15" width="18.28" height="18.29"/>
    <rect class="cls-4" x="362.87" y="362.87" width="18.28" height="18.28"/>
    <rect class="cls-4" x="362.87" y="344.58" width="18.28" height="18.29"/>
    <rect class="cls-4" x="362.87" y="326.3" width="18.28" height="18.28"/>
    <rect class="cls-4" x="362.87" y="308.01" width="18.28" height="18.29"/>
    <rect class="cls-3" x="362.87" y="289.73" width="18.28" height="18.28"/>
    <rect class="cls-4" x="344.58" y="618.85" width="18.29" height="18.28"/>
    <rect class="cls-3" x="344.58" y="600.56" width="18.29" height="18.29"/>
    <rect class="cls-3" x="344.58" y="582.28" width="18.29" height="18.28"/>
    <rect class="cls-3" x="344.58" y="564" width="18.29" height="18.28"/>
    <rect class="cls-4" x="344.58" y="545.71" width="18.29" height="18.29"/>
    <rect class="cls-3" x="344.58" y="527.43" width="18.29" height="18.28"/>
    <rect class="cls-3" x="344.58" y="509.14" width="18.29" height="18.29"/>
    <rect class="cls-3" x="344.58" y="490.86" width="18.29" height="18.28"/>
    <rect class="cls-4" x="344.58" y="472.57" width="18.29" height="18.29"/>
    <rect class="cls-3" x="344.58" y="454.29" width="18.29" height="18.28"/>
    <rect class="cls-3" x="344.58" y="436" width="18.29" height="18.29"/>
    <rect class="cls-3" x="344.58" y="417.72" width="18.29" height="18.28"/>
    <rect class="cls-4" x="344.58" y="399.44" width="18.29" height="18.28"/>
    <rect class="cls-3" x="344.58" y="381.15" width="18.29" height="18.29"/>
    <rect class="cls-3" x="344.58" y="362.87" width="18.29" height="18.28"/>
    <rect class="cls-3" x="344.58" y="344.58" width="18.29" height="18.29"/>
    <rect class="cls-4" x="344.58" y="326.3" width="18.29" height="18.28"/>
    <rect class="cls-3" x="344.58" y="308.01" width="18.29" height="18.29"/>
    <rect class="cls-3" x="326.3" y="618.85" width="18.28" height="18.28"/>
    <rect class="cls-3" x="326.3" y="600.56" width="18.28" height="18.29"/>
    <rect class="cls-3" x="326.3" y="564" width="18.28" height="18.28"/>
    <rect class="cls-3" x="326.3" y="545.71" width="18.28" height="18.29"/>
    <rect class="cls-3" x="326.3" y="527.43" width="18.28" height="18.28"/>
    <rect class="cls-3" x="326.3" y="490.86" width="18.28" height="18.28"/>
    <rect class="cls-3" x="326.3" y="472.57" width="18.28" height="18.29"/>
    <rect class="cls-3" x="326.3" y="454.29" width="18.28" height="18.28"/>
    <rect class="cls-3" x="326.3" y="417.72" width="18.28" height="18.28"/>
    <rect class="cls-3" x="326.3" y="399.44" width="18.28" height="18.28"/>
    <rect class="cls-3" x="326.3" y="381.15" width="18.28" height="18.29"/>
    <rect class="cls-3" x="326.3" y="344.58" width="18.28" height="18.29"/>
    <rect class="cls-3" x="326.3" y="326.3" width="18.28" height="18.28"/>
    <rect class="cls-3" x="308.01" y="600.56" width="18.29" height="18.29"/>
    <rect class="cls-3" x="308.01" y="564" width="18.29" height="18.28"/>
    <rect class="cls-3" x="308.01" y="527.43" width="18.29" height="18.28"/>
    <rect class="cls-3" x="308.01" y="490.86" width="18.29" height="18.28"/>
    <rect class="cls-3" x="308.01" y="454.29" width="18.29" height="18.28"/>
    <rect class="cls-3" x="308.01" y="417.72" width="18.29" height="18.28"/>
    <rect class="cls-3" x="308.01" y="381.15" width="18.29" height="18.29"/>
    <rect class="cls-3" x="308.01" y="344.58" width="18.29" height="18.29"/>
    <rect class="cls-3" x="289.73" y="600.56" width="18.28" height="18.29"/>
    <rect class="cls-3" x="289.73" y="582.28" width="18.28" height="18.28"/>
    <rect class="cls-3" x="289.73" y="564" width="18.28" height="18.28"/>
    <rect class="cls-3" x="289.73" y="527.43" width="18.28" height="18.28"/>
    <rect class="cls-3" x="289.73" y="509.14" width="18.28" height="18.29"/>
    <rect class="cls-3" x="289.73" y="490.86" width="18.28" height="18.28"/>
    <rect class="cls-3" x="289.73" y="454.29" width="18.28" height="18.28"/>
    <rect class="cls-3" x="289.73" y="436" width="18.28" height="18.29"/>
    <rect class="cls-3" x="289.73" y="417.72" width="18.28" height="18.28"/>
    <rect class="cls-3" x="289.73" y="381.15" width="18.28" height="18.29"/>
    <rect class="cls-3" x="289.73" y="362.87" width="18.28" height="18.28"/>
    <rect class="cls-3" x="289.73" y="344.58" width="18.28" height="18.29"/>
  </g>
  <g>
    <path class="cls-1" d="M571.15,323.55c-3.67,3.72-1.99,4.96-7.22,4.96s-5.22,.82-10.44,.82-5.22-.72-10.44-.72-5.22-2.99-10.44-2.99-5.22-6.93-10.45-6.93-5.22,21.52-10.44,21.52c-5.22,0-5.22-27.91-10.45-27.91-5.22,0-5.22,19.66-10.45,19.66s-5.22-1.98-10.45-1.98c-5.22,0-5.22,10.9-10.45,10.9s-5.22-26.73-10.45-26.73-5.23,2.77-10.45,2.77-5.22,13.86-10.45,13.86-5.22-18.92-10.45-18.92-5.22,16.1-10.45,16.1-5.22-9.62-10.45-9.62-5.22,7.83-10.45,7.83-5.23-3.22-10.45-3.22-5.22-10.95-10.45-10.95-5.23,22.53-10.46,22.53-2.67-8.14-6.35-11.86c-3.72-3.76,7.05-1.22,7.05-6.51s.71-5.28,.71-10.57-18.8-5.29-18.8-10.57,5.25-5.29,5.25-10.57,12.79-5.29,12.79-10.57-11.38-5.29-11.38-10.58-2.6-5.99,1.12-9.76,4.39-15.28,9.61-15.28,5.22,12.44,10.44,12.44,5.22-6.02,10.44-6.02,5.22-4.25,10.44-4.25,5.22,20.05,10.45,20.05,5.22-3.37,10.44-3.37,5.22-9.9,10.45-9.9,5.22,14.69,10.45,14.69,5.22-7.11,10.45-7.11,5.22,10.22,10.45,10.22,5.22-23.58,10.45-23.58,5.23,8.36,10.45,8.36,5.22-11.67,10.45-11.67,5.22,12.77,10.45,12.77,5.22,2.89,10.45,2.89,5.22-12.78,10.45-12.78,5.22,6.78,10.45,6.78,5.23,5.05,10.45,5.05,5.22-3.14,10.45-3.14,5.23,3.69,10.46,3.69,.63,1.72,4.31,5.43,19.45-.8,19.45,4.48-10.59,5.28-10.59,10.57c0,5.29-4.37,5.29-4.37,10.57s13.5,5.29,13.5,10.57-11.13,5.29-11.13,10.57-2.73,5.36-2.55,10.64c.14,4.15,2.33,3.56-1.39,7.33Z"/>
    <text class="cls-5" transform="translate(381.15 303.83)"><tspan x="0" y="0">SHO</tspan><tspan class="cls-7" x="103.83" y="0">O</tspan><tspan class="cls-6" x="135.43" y="0">T</tspan></text>
  </g>
</svg>