<?xml version="1.0" encoding="UTF-8"?>
<svg id="_圖層_2" data-name="圖層 2" xmlns="http://www.w3.org/2000/svg" viewBox="0 0 609.93 295.72">
  <defs>
    <style>
      .cls-1 {
        fill: #eed1b8;
      }

      .cls-2 {
        fill: #fff;
      }

      .cls-3 {
        fill: #635964;
      }

      .cls-4 {
        fill: #2d232e;
      }

      .cls-5 {
        fill: #3c3644;
      }
    </style>
  </defs>
  <g id="_圖層_7" data-name="圖層 7">
    <g>
      <rect class="cls-1" x="591.45" y="166.35" width="18.48" height="18.48"/>
      <rect class="cls-1" x="591.45" y="147.86" width="18.48" height="18.49"/>
      <rect class="cls-1" x="591.45" y="129.38" width="18.48" height="18.48"/>
      <rect class="cls-1" x="591.45" y="110.9" width="18.48" height="18.48"/>
      <rect class="cls-1" x="591.45" y="92.41" width="18.48" height="18.49"/>
      <rect class="cls-1" x="572.96" y="240.28" width="18.49" height="18.48"/>
      <rect class="cls-1" x="572.96" y="221.79" width="18.49" height="18.49"/>
      <rect class="cls-1" x="572.96" y="203.31" width="18.49" height="18.48"/>
      <rect class="cls-1" x="572.96" y="184.83" width="18.49" height="18.48"/>
      <rect class="cls-1" x="572.96" y="166.35" width="18.49" height="18.48"/>
      <rect class="cls-5" x="572.96" y="147.86" width="18.49" height="18.49"/>
      <rect class="cls-5" x="572.96" y="129.38" width="18.49" height="18.48"/>
      <rect class="cls-5" x="572.96" y="110.9" width="18.49" height="18.48"/>
      <rect class="cls-5" x="572.96" y="92.41" width="18.49" height="18.49"/>
      <rect class="cls-1" x="572.96" y="73.93" width="18.49" height="18.48"/>
      <rect class="cls-1" x="572.96" y="55.45" width="18.49" height="18.48"/>
      <rect class="cls-1" x="554.48" y="258.76" width="18.48" height="18.48"/>
      <rect class="cls-1" x="554.48" y="240.28" width="18.48" height="18.48"/>
      <rect x="554.48" y="221.79" width="18.48" height="18.49"/>
      <rect class="cls-5" x="554.48" y="203.31" width="18.48" height="18.48"/>
      <rect class="cls-1" x="554.48" y="184.83" width="18.48" height="18.48"/>
      <rect class="cls-5" x="554.48" y="166.35" width="18.48" height="18.48"/>
      <rect class="cls-5" x="554.48" y="147.86" width="18.48" height="18.49"/>
      <rect class="cls-3" x="554.48" y="129.38" width="18.48" height="18.48"/>
      <rect class="cls-5" x="554.48" y="110.9" width="18.48" height="18.48"/>
      <rect class="cls-5" x="554.48" y="92.41" width="18.48" height="18.49"/>
      <rect class="cls-5" x="554.48" y="73.93" width="18.48" height="18.48"/>
      <rect class="cls-1" x="554.48" y="55.45" width="18.48" height="18.48"/>
      <rect class="cls-1" x="554.48" y="36.97" width="18.48" height="18.48"/>
      <rect class="cls-1" x="536" y="277.24" width="18.48" height="18.48"/>
      <rect class="cls-1" x="536" y="258.76" width="18.48" height="18.48"/>
      <rect class="cls-4" x="536" y="240.28" width="18.48" height="18.48"/>
      <rect class="cls-5" x="536" y="221.79" width="18.48" height="18.49"/>
      <rect class="cls-1" x="536" y="203.31" width="18.48" height="18.48"/>
      <rect class="cls-5" x="536" y="184.83" width="18.48" height="18.48"/>
      <rect class="cls-5" x="536" y="166.35" width="18.48" height="18.48"/>
      <rect class="cls-5" x="536" y="147.86" width="18.48" height="18.49"/>
      <rect class="cls-5" x="536" y="129.38" width="18.48" height="18.48"/>
      <rect class="cls-5" x="536" y="110.9" width="18.48" height="18.48"/>
      <rect class="cls-5" x="536" y="92.41" width="18.48" height="18.49"/>
      <rect class="cls-5" x="536" y="73.93" width="18.48" height="18.48"/>
      <rect class="cls-5" x="536" y="55.45" width="18.48" height="18.48"/>
      <rect class="cls-1" x="536" y="36.97" width="18.48" height="18.48"/>
      <rect class="cls-1" x="536" y="18.48" width="18.48" height="18.49"/>
      <rect class="cls-1" x="517.52" y="277.24" width="18.48" height="18.48"/>
      <rect class="cls-4" x="517.52" y="258.76" width="18.48" height="18.48"/>
      <rect class="cls-4" x="517.52" y="240.28" width="18.48" height="18.48"/>
      <rect class="cls-5" x="517.52" y="221.79" width="18.48" height="18.49"/>
      <rect class="cls-1" x="517.52" y="203.31" width="18.48" height="18.48"/>
      <rect class="cls-5" x="517.52" y="184.83" width="18.48" height="18.48"/>
      <rect class="cls-5" x="517.52" y="166.35" width="18.48" height="18.48"/>
      <rect class="cls-5" x="517.52" y="147.86" width="18.48" height="18.49"/>
      <rect class="cls-5" x="517.52" y="129.38" width="18.48" height="18.48"/>
      <rect class="cls-5" x="517.52" y="110.9" width="18.48" height="18.48"/>
      <rect class="cls-5" x="517.52" y="92.41" width="18.48" height="18.49"/>
      <rect class="cls-5" x="517.52" y="73.93" width="18.48" height="18.48"/>
      <rect class="cls-5" x="517.52" y="55.45" width="18.48" height="18.48"/>
      <rect class="cls-5" x="517.52" y="36.97" width="18.48" height="18.48"/>
      <rect class="cls-1" x="517.52" y="18.48" width="18.48" height="18.49"/>
      <rect class="cls-1" x="517.52" width="18.48" height="18.48"/>
      <rect class="cls-1" x="499.03" y="277.24" width="18.49" height="18.48"/>
      <rect x="499.03" y="258.76" width="18.49" height="18.48"/>
      <rect class="cls-5" x="499.03" y="240.28" width="18.49" height="18.48"/>
      <rect class="cls-4" x="499.03" y="221.79" width="18.49" height="18.49"/>
      <rect class="cls-1" x="499.03" y="203.31" width="18.49" height="18.48"/>
      <rect class="cls-5" x="499.03" y="184.83" width="18.49" height="18.48"/>
      <rect class="cls-3" x="499.03" y="166.35" width="18.49" height="18.48"/>
      <rect class="cls-5" x="499.03" y="147.86" width="18.49" height="18.49"/>
      <rect class="cls-5" x="499.03" y="129.38" width="18.49" height="18.48"/>
      <rect class="cls-5" x="499.03" y="110.9" width="18.49" height="18.48"/>
      <rect class="cls-5" x="499.03" y="92.41" width="18.49" height="18.49"/>
      <rect class="cls-5" x="499.03" y="73.93" width="18.49" height="18.48"/>
      <rect class="cls-2" x="499.03" y="55.45" width="18.49" height="18.48"/>
      <rect class="cls-5" x="499.03" y="36.97" width="18.49" height="18.48"/>
      <rect class="cls-5" x="499.03" y="18.48" width="18.49" height="18.49"/>
      <rect class="cls-1" x="499.03" width="18.49" height="18.48"/>
      <rect class="cls-1" x="480.55" y="277.24" width="18.48" height="18.48"/>
      <rect x="480.55" y="258.76" width="18.48" height="18.48"/>
      <rect class="cls-5" x="480.55" y="240.28" width="18.48" height="18.48"/>
      <rect class="cls-4" x="480.55" y="221.79" width="18.48" height="18.49"/>
      <rect class="cls-1" x="480.55" y="203.31" width="18.48" height="18.48"/>
      <rect class="cls-5" x="480.55" y="184.83" width="18.48" height="18.48"/>
      <rect class="cls-3" x="480.55" y="166.35" width="18.48" height="18.48"/>
      <rect class="cls-5" x="480.55" y="147.86" width="18.48" height="18.49"/>
      <rect class="cls-2" x="480.55" y="129.38" width="18.48" height="18.48"/>
      <rect class="cls-2" x="480.55" y="110.9" width="18.48" height="18.48"/>
      <rect class="cls-2" x="480.55" y="92.41" width="18.48" height="18.49"/>
      <rect class="cls-2" x="480.55" y="73.93" width="18.48" height="18.48"/>
      <rect class="cls-5" x="480.55" y="55.45" width="18.48" height="18.48"/>
      <rect class="cls-3" x="480.55" y="36.97" width="18.48" height="18.48"/>
      <rect class="cls-5" x="480.55" y="18.48" width="18.48" height="18.49"/>
      <rect class="cls-1" x="480.55" width="18.48" height="18.48"/>
      <rect class="cls-1" x="462.07" y="277.24" width="18.48" height="18.48"/>
      <rect x="462.07" y="258.76" width="18.48" height="18.48"/>
      <rect x="462.07" y="240.28" width="18.48" height="18.48"/>
      <rect class="cls-4" x="462.07" y="221.79" width="18.48" height="18.49"/>
      <rect class="cls-1" x="462.07" y="203.31" width="18.48" height="18.48"/>
      <rect class="cls-5" x="462.07" y="184.83" width="18.48" height="18.48"/>
      <rect class="cls-3" x="462.07" y="166.35" width="18.48" height="18.48"/>
      <rect class="cls-5" x="462.07" y="147.86" width="18.48" height="18.49"/>
      <rect class="cls-5" x="462.07" y="129.38" width="18.48" height="18.48"/>
      <rect class="cls-5" x="462.07" y="110.9" width="18.48" height="18.48"/>
      <rect class="cls-5" x="462.07" y="92.41" width="18.48" height="18.49"/>
      <rect class="cls-5" x="462.07" y="73.93" width="18.48" height="18.48"/>
      <rect class="cls-2" x="462.07" y="55.45" width="18.48" height="18.48"/>
      <rect class="cls-3" x="462.07" y="36.97" width="18.48" height="18.48"/>
      <rect class="cls-3" x="462.07" y="18.48" width="18.48" height="18.49"/>
      <rect class="cls-1" x="462.07" width="18.48" height="18.48"/>
      <rect class="cls-1" x="443.58" y="277.24" width="18.49" height="18.48"/>
      <rect class="cls-4" x="443.58" y="258.76" width="18.49" height="18.48"/>
      <rect x="443.58" y="240.28" width="18.49" height="18.48"/>
      <rect class="cls-4" x="443.58" y="221.79" width="18.49" height="18.49"/>
      <rect class="cls-1" x="443.58" y="203.31" width="18.49" height="18.48"/>
      <rect class="cls-5" x="443.58" y="184.83" width="18.49" height="18.48"/>
      <rect class="cls-3" x="443.58" y="166.35" width="18.49" height="18.48"/>
      <rect class="cls-5" x="443.58" y="147.86" width="18.49" height="18.49"/>
      <rect class="cls-5" x="443.58" y="129.38" width="18.49" height="18.48"/>
      <rect class="cls-5" x="443.58" y="110.9" width="18.49" height="18.48"/>
      <rect class="cls-5" x="443.58" y="92.41" width="18.49" height="18.49"/>
      <rect class="cls-5" x="443.58" y="73.93" width="18.49" height="18.48"/>
      <rect class="cls-5" x="443.58" y="55.45" width="18.49" height="18.48"/>
      <rect class="cls-5" x="443.58" y="36.97" width="18.49" height="18.48"/>
      <rect class="cls-3" x="443.58" y="18.48" width="18.49" height="18.49"/>
      <rect class="cls-1" x="443.58" width="18.49" height="18.48"/>
      <rect class="cls-1" x="425.1" y="277.24" width="18.48" height="18.48"/>
      <rect class="cls-4" x="425.1" y="258.76" width="18.48" height="18.48"/>
      <rect x="425.1" y="240.28" width="18.48" height="18.48"/>
      <rect class="cls-4" x="425.1" y="221.79" width="18.48" height="18.49"/>
      <rect class="cls-1" x="425.1" y="203.31" width="18.48" height="18.48"/>
      <rect class="cls-5" x="425.1" y="184.83" width="18.48" height="18.48"/>
      <rect class="cls-3" x="425.1" y="166.35" width="18.48" height="18.48"/>
      <rect class="cls-5" x="425.1" y="147.86" width="18.48" height="18.49"/>
      <rect class="cls-2" x="425.1" y="129.38" width="18.48" height="18.48"/>
      <rect class="cls-2" x="425.1" y="110.9" width="18.48" height="18.48"/>
      <rect class="cls-2" x="425.1" y="92.41" width="18.48" height="18.49"/>
      <rect class="cls-2" x="425.1" y="73.93" width="18.48" height="18.48"/>
      <rect class="cls-5" x="425.1" y="55.45" width="18.48" height="18.48"/>
      <rect class="cls-5" x="425.1" y="36.97" width="18.48" height="18.48"/>
      <rect class="cls-3" x="425.1" y="18.48" width="18.48" height="18.49"/>
      <rect class="cls-1" x="425.1" width="18.48" height="18.48"/>
      <rect class="cls-1" x="406.62" y="277.24" width="18.48" height="18.48"/>
      <rect class="cls-4" x="406.62" y="258.76" width="18.48" height="18.48"/>
      <rect x="406.62" y="240.28" width="18.48" height="18.48"/>
      <rect class="cls-4" x="406.62" y="221.79" width="18.48" height="18.49"/>
      <rect class="cls-1" x="406.62" y="203.31" width="18.48" height="18.48"/>
      <rect class="cls-5" x="406.62" y="184.83" width="18.48" height="18.48"/>
      <rect class="cls-3" x="406.62" y="166.35" width="18.48" height="18.48"/>
      <rect class="cls-5" x="406.62" y="147.86" width="18.48" height="18.49"/>
      <rect class="cls-5" x="406.62" y="129.38" width="18.48" height="18.48"/>
      <rect class="cls-5" x="406.62" y="110.9" width="18.48" height="18.48"/>
      <rect class="cls-2" x="406.62" y="92.41" width="18.48" height="18.49"/>
      <rect class="cls-5" x="406.62" y="73.93" width="18.48" height="18.48"/>
      <rect class="cls-2" x="406.62" y="55.45" width="18.48" height="18.48"/>
      <rect class="cls-5" x="406.62" y="36.97" width="18.48" height="18.48"/>
      <rect class="cls-3" x="406.62" y="18.48" width="18.48" height="18.49"/>
      <rect class="cls-1" x="406.62" width="18.48" height="18.48"/>
      <rect class="cls-1" x="388.14" y="277.24" width="18.48" height="18.48"/>
      <rect class="cls-4" x="388.14" y="258.76" width="18.48" height="18.48"/>
      <rect x="388.14" y="240.28" width="18.48" height="18.48"/>
      <rect class="cls-4" x="388.14" y="221.79" width="18.48" height="18.49"/>
      <rect class="cls-1" x="388.14" y="203.31" width="18.48" height="18.48"/>
      <rect class="cls-5" x="388.14" y="184.83" width="18.48" height="18.48"/>
      <rect class="cls-3" x="388.14" y="166.35" width="18.48" height="18.48"/>
      <rect class="cls-5" x="388.14" y="147.86" width="18.48" height="18.49"/>
      <rect class="cls-2" x="388.14" y="129.38" width="18.48" height="18.48"/>
      <rect class="cls-2" x="388.14" y="110.9" width="18.48" height="18.48"/>
      <rect class="cls-2" x="388.14" y="92.41" width="18.48" height="18.49"/>
      <rect class="cls-2" x="388.14" y="73.93" width="18.48" height="18.48"/>
      <rect class="cls-5" x="388.14" y="55.45" width="18.48" height="18.48"/>
      <rect class="cls-5" x="388.14" y="36.97" width="18.48" height="18.48"/>
      <rect class="cls-3" x="388.14" y="18.48" width="18.48" height="18.49"/>
      <rect class="cls-1" x="388.14" width="18.48" height="18.48"/>
      <rect class="cls-1" x="369.65" y="277.24" width="18.49" height="18.48"/>
      <rect class="cls-4" x="369.65" y="258.76" width="18.49" height="18.48"/>
      <rect x="369.65" y="240.28" width="18.49" height="18.48"/>
      <rect class="cls-4" x="369.65" y="221.79" width="18.49" height="18.49"/>
      <rect class="cls-1" x="369.65" y="203.31" width="18.49" height="18.48"/>
      <rect class="cls-5" x="369.65" y="184.83" width="18.49" height="18.48"/>
      <rect class="cls-3" x="369.65" y="166.35" width="18.49" height="18.48"/>
      <rect class="cls-5" x="369.65" y="147.86" width="18.49" height="18.49"/>
      <rect class="cls-5" x="369.65" y="129.38" width="18.49" height="18.48"/>
      <rect class="cls-5" x="369.65" y="110.9" width="18.49" height="18.48"/>
      <rect class="cls-5" x="369.65" y="92.41" width="18.49" height="18.49"/>
      <rect class="cls-5" x="369.65" y="73.93" width="18.49" height="18.48"/>
      <rect class="cls-5" x="369.65" y="55.45" width="18.49" height="18.48"/>
      <rect class="cls-5" x="369.65" y="36.97" width="18.49" height="18.48"/>
      <rect class="cls-3" x="369.65" y="18.48" width="18.49" height="18.49"/>
      <rect class="cls-1" x="369.65" width="18.49" height="18.48"/>
      <rect class="cls-1" x="351.17" y="277.24" width="18.48" height="18.48"/>
      <rect class="cls-4" x="351.17" y="258.76" width="18.48" height="18.48"/>
      <rect x="351.17" y="240.28" width="18.48" height="18.48"/>
      <rect class="cls-4" x="351.17" y="221.79" width="18.48" height="18.49"/>
      <rect class="cls-1" x="351.17" y="203.31" width="18.48" height="18.48"/>
      <rect class="cls-5" x="351.17" y="184.83" width="18.48" height="18.48"/>
      <rect class="cls-3" x="351.17" y="166.35" width="18.48" height="18.48"/>
      <rect class="cls-5" x="351.17" y="147.86" width="18.48" height="18.49"/>
      <rect class="cls-2" x="351.17" y="129.38" width="18.48" height="18.48"/>
      <rect class="cls-5" x="351.17" y="110.9" width="18.48" height="18.48"/>
      <rect class="cls-5" x="351.17" y="92.41" width="18.48" height="18.49"/>
      <rect class="cls-5" x="351.17" y="73.93" width="18.48" height="18.48"/>
      <rect class="cls-5" x="351.17" y="55.45" width="18.48" height="18.48"/>
      <rect class="cls-5" x="351.17" y="36.97" width="18.48" height="18.48"/>
      <rect class="cls-3" x="351.17" y="18.48" width="18.48" height="18.49"/>
      <rect class="cls-1" x="351.17" width="18.48" height="18.48"/>
      <rect class="cls-1" x="332.69" y="277.24" width="18.48" height="18.48"/>
      <rect class="cls-4" x="332.69" y="258.76" width="18.48" height="18.48"/>
      <rect x="332.69" y="240.28" width="18.48" height="18.48"/>
      <rect class="cls-4" x="332.69" y="221.79" width="18.48" height="18.49"/>
      <rect class="cls-1" x="332.69" y="203.31" width="18.48" height="18.48"/>
      <rect class="cls-5" x="332.69" y="184.83" width="18.48" height="18.48"/>
      <rect class="cls-3" x="332.69" y="166.35" width="18.48" height="18.48"/>
      <rect class="cls-5" x="332.69" y="147.86" width="18.48" height="18.49"/>
      <rect class="cls-2" x="332.69" y="129.38" width="18.48" height="18.48"/>
      <rect class="cls-5" x="332.69" y="110.9" width="18.48" height="18.48"/>
      <rect class="cls-5" x="332.69" y="92.41" width="18.48" height="18.49"/>
      <rect class="cls-5" x="332.69" y="73.93" width="18.48" height="18.48"/>
      <rect class="cls-5" x="332.69" y="55.45" width="18.48" height="18.48"/>
      <rect class="cls-5" x="332.69" y="36.97" width="18.48" height="18.48"/>
      <rect class="cls-3" x="332.69" y="18.48" width="18.48" height="18.49"/>
      <rect class="cls-1" x="332.69" width="18.48" height="18.48"/>
      <rect class="cls-1" x="314.2" y="277.24" width="18.49" height="18.48"/>
      <rect class="cls-4" x="314.2" y="258.76" width="18.49" height="18.48"/>
      <rect x="314.2" y="240.28" width="18.49" height="18.48"/>
      <rect class="cls-4" x="314.2" y="221.79" width="18.49" height="18.49"/>
      <rect class="cls-1" x="314.2" y="203.31" width="18.49" height="18.48"/>
      <rect class="cls-5" x="314.2" y="184.83" width="18.49" height="18.48"/>
      <rect class="cls-3" x="314.2" y="166.35" width="18.49" height="18.48"/>
      <rect class="cls-5" x="314.2" y="147.86" width="18.49" height="18.49"/>
      <rect class="cls-2" x="314.2" y="129.38" width="18.49" height="18.48"/>
      <rect class="cls-2" x="314.2" y="110.9" width="18.49" height="18.48"/>
      <rect class="cls-2" x="314.2" y="92.41" width="18.49" height="18.49"/>
      <rect class="cls-2" x="314.2" y="73.93" width="18.49" height="18.48"/>
      <rect class="cls-2" x="314.2" y="55.45" width="18.49" height="18.48"/>
      <rect class="cls-5" x="314.2" y="36.97" width="18.49" height="18.48"/>
      <rect class="cls-3" x="314.2" y="18.48" width="18.49" height="18.49"/>
      <rect class="cls-1" x="314.2" width="18.49" height="18.48"/>
      <rect class="cls-1" x="295.72" y="277.24" width="18.48" height="18.48"/>
      <rect class="cls-4" x="295.72" y="258.76" width="18.48" height="18.48"/>
      <rect x="295.72" y="240.28" width="18.48" height="18.48"/>
      <rect class="cls-4" x="295.72" y="221.79" width="18.48" height="18.49"/>
      <rect class="cls-1" x="295.72" y="203.31" width="18.48" height="18.48"/>
      <rect class="cls-5" x="295.72" y="184.83" width="18.48" height="18.48"/>
      <rect class="cls-3" x="295.72" y="166.35" width="18.48" height="18.48"/>
      <rect class="cls-5" x="295.72" y="147.86" width="18.48" height="18.49"/>
      <rect class="cls-5" x="295.72" y="129.38" width="18.48" height="18.48"/>
      <rect class="cls-5" x="295.72" y="110.9" width="18.48" height="18.48"/>
      <rect class="cls-5" x="295.72" y="92.41" width="18.48" height="18.49"/>
      <rect class="cls-5" x="295.72" y="73.93" width="18.48" height="18.48"/>
      <rect class="cls-5" x="295.72" y="55.45" width="18.48" height="18.48"/>
      <rect class="cls-5" x="295.72" y="36.97" width="18.48" height="18.48"/>
      <rect class="cls-5" x="295.72" y="18.48" width="18.48" height="18.49"/>
      <rect class="cls-1" x="295.72" width="18.48" height="18.48"/>
      <rect class="cls-1" x="277.24" y="277.24" width="18.48" height="18.48"/>
      <rect class="cls-4" x="277.24" y="258.76" width="18.48" height="18.48"/>
      <rect x="277.24" y="240.28" width="18.48" height="18.48"/>
      <rect class="cls-4" x="277.24" y="221.79" width="18.48" height="18.49"/>
      <rect class="cls-1" x="277.24" y="203.31" width="18.48" height="18.48"/>
      <rect class="cls-5" x="277.24" y="184.83" width="18.48" height="18.48"/>
      <rect class="cls-3" x="277.24" y="166.35" width="18.48" height="18.48"/>
      <rect class="cls-5" x="277.24" y="147.86" width="18.48" height="18.49"/>
      <rect class="cls-5" x="277.24" y="129.38" width="18.48" height="18.48"/>
      <rect class="cls-5" x="277.24" y="110.9" width="18.48" height="18.48"/>
      <rect class="cls-5" x="277.24" y="92.41" width="18.48" height="18.49"/>
      <rect class="cls-2" x="277.24" y="73.93" width="18.48" height="18.48"/>
      <rect class="cls-5" x="277.24" y="55.45" width="18.48" height="18.48"/>
      <rect class="cls-5" x="277.24" y="36.97" width="18.48" height="18.48"/>
      <rect class="cls-3" x="277.24" y="18.48" width="18.48" height="18.49"/>
      <rect class="cls-1" x="277.24" width="18.48" height="18.48"/>
      <rect class="cls-1" x="258.76" y="277.24" width="18.48" height="18.48"/>
      <rect class="cls-4" x="258.76" y="258.76" width="18.48" height="18.48"/>
      <rect x="258.76" y="240.28" width="18.48" height="18.48"/>
      <rect class="cls-4" x="258.76" y="221.79" width="18.48" height="18.49"/>
      <rect class="cls-1" x="258.76" y="203.31" width="18.48" height="18.48"/>
      <rect class="cls-5" x="258.76" y="184.83" width="18.48" height="18.48"/>
      <rect class="cls-3" x="258.76" y="166.35" width="18.48" height="18.48"/>
      <rect class="cls-5" x="258.76" y="147.86" width="18.48" height="18.49"/>
      <rect class="cls-5" x="258.76" y="129.38" width="18.48" height="18.48"/>
      <rect class="cls-5" x="258.76" y="110.9" width="18.48" height="18.48"/>
      <rect class="cls-2" x="258.76" y="92.41" width="18.48" height="18.49"/>
      <rect class="cls-5" x="258.76" y="73.93" width="18.48" height="18.48"/>
      <rect class="cls-2" x="258.76" y="55.45" width="18.48" height="18.48"/>
      <rect class="cls-5" x="258.76" y="36.97" width="18.48" height="18.48"/>
      <rect class="cls-5" x="258.76" y="18.48" width="18.48" height="18.49"/>
      <rect class="cls-1" x="258.76" width="18.48" height="18.48"/>
      <rect class="cls-1" x="240.27" y="277.24" width="18.49" height="18.48"/>
      <rect class="cls-4" x="240.27" y="258.76" width="18.49" height="18.48"/>
      <rect x="240.27" y="240.28" width="18.49" height="18.48"/>
      <rect class="cls-4" x="240.27" y="221.79" width="18.49" height="18.49"/>
      <rect class="cls-1" x="240.27" y="203.31" width="18.49" height="18.48"/>
      <rect class="cls-5" x="240.27" y="184.83" width="18.49" height="18.48"/>
      <rect class="cls-3" x="240.27" y="166.35" width="18.49" height="18.48"/>
      <rect class="cls-5" x="240.27" y="147.86" width="18.49" height="18.49"/>
      <rect class="cls-2" x="240.27" y="129.38" width="18.49" height="18.48"/>
      <rect class="cls-2" x="240.27" y="110.9" width="18.49" height="18.48"/>
      <rect class="cls-2" x="240.27" y="92.41" width="18.49" height="18.49"/>
      <rect class="cls-2" x="240.27" y="73.93" width="18.49" height="18.48"/>
      <rect class="cls-5" x="240.27" y="55.45" width="18.49" height="18.48"/>
      <rect class="cls-5" x="240.27" y="36.97" width="18.49" height="18.48"/>
      <rect class="cls-3" x="240.27" y="18.48" width="18.49" height="18.49"/>
      <rect class="cls-1" x="240.27" width="18.49" height="18.48"/>
      <rect class="cls-1" x="221.79" y="277.24" width="18.48" height="18.48"/>
      <rect class="cls-4" x="221.79" y="258.76" width="18.48" height="18.48"/>
      <rect x="221.79" y="240.28" width="18.48" height="18.48"/>
      <rect class="cls-4" x="221.79" y="221.79" width="18.48" height="18.49"/>
      <rect class="cls-1" x="221.79" y="203.31" width="18.48" height="18.48"/>
      <rect class="cls-5" x="221.79" y="184.83" width="18.48" height="18.48"/>
      <rect class="cls-3" x="221.79" y="166.35" width="18.48" height="18.48"/>
      <rect class="cls-5" x="221.79" y="147.86" width="18.48" height="18.49"/>
      <rect class="cls-5" x="221.79" y="129.38" width="18.48" height="18.48"/>
      <rect class="cls-5" x="221.79" y="110.9" width="18.48" height="18.48"/>
      <rect class="cls-5" x="221.79" y="92.41" width="18.48" height="18.49"/>
      <rect class="cls-5" x="221.79" y="73.93" width="18.48" height="18.48"/>
      <rect class="cls-5" x="221.79" y="55.45" width="18.48" height="18.48"/>
      <rect class="cls-5" x="221.79" y="36.97" width="18.48" height="18.48"/>
      <rect class="cls-3" x="221.79" y="18.48" width="18.48" height="18.49"/>
      <rect class="cls-1" x="221.79" width="18.48" height="18.48"/>
      <rect class="cls-1" x="203.31" y="277.24" width="18.48" height="18.48"/>
      <rect class="cls-4" x="203.31" y="258.76" width="18.48" height="18.48"/>
      <rect x="203.31" y="240.28" width="18.48" height="18.48"/>
      <rect class="cls-4" x="203.31" y="221.79" width="18.48" height="18.49"/>
      <rect class="cls-1" x="203.31" y="203.31" width="18.48" height="18.48"/>
      <rect class="cls-5" x="203.31" y="184.83" width="18.48" height="18.48"/>
      <rect class="cls-5" x="203.31" y="166.35" width="18.48" height="18.48"/>
      <rect class="cls-5" x="203.31" y="147.86" width="18.48" height="18.49"/>
      <rect class="cls-2" x="203.31" y="129.38" width="18.48" height="18.48"/>
      <rect class="cls-5" x="203.31" y="110.9" width="18.48" height="18.48"/>
      <rect class="cls-2" x="203.31" y="92.41" width="18.48" height="18.49"/>
      <rect class="cls-5" x="203.31" y="73.93" width="18.48" height="18.48"/>
      <rect class="cls-5" x="203.31" y="55.45" width="18.48" height="18.48"/>
      <rect class="cls-5" x="203.31" y="36.97" width="18.48" height="18.48"/>
      <rect class="cls-5" x="203.31" y="18.48" width="18.48" height="18.49"/>
      <rect class="cls-1" x="203.31" width="18.48" height="18.48"/>
      <rect class="cls-1" x="184.82" y="277.24" width="18.49" height="18.48"/>
      <rect class="cls-4" x="184.82" y="258.76" width="18.49" height="18.48"/>
      <rect x="184.82" y="240.28" width="18.49" height="18.48"/>
      <rect class="cls-4" x="184.82" y="221.79" width="18.49" height="18.49"/>
      <rect class="cls-1" x="184.82" y="203.31" width="18.49" height="18.48"/>
      <rect class="cls-5" x="184.82" y="184.83" width="18.49" height="18.48"/>
      <rect class="cls-5" x="184.82" y="166.35" width="18.49" height="18.48"/>
      <rect class="cls-5" x="184.82" y="147.86" width="18.49" height="18.49"/>
      <rect class="cls-2" x="184.82" y="129.38" width="18.49" height="18.48"/>
      <rect class="cls-5" x="184.82" y="110.9" width="18.49" height="18.48"/>
      <rect class="cls-2" x="184.82" y="92.41" width="18.49" height="18.49"/>
      <rect class="cls-5" x="184.82" y="73.93" width="18.49" height="18.48"/>
      <rect class="cls-2" x="184.82" y="55.45" width="18.49" height="18.48"/>
      <rect class="cls-5" x="184.82" y="36.97" width="18.49" height="18.48"/>
      <rect class="cls-3" x="184.82" y="18.48" width="18.49" height="18.49"/>
      <rect class="cls-1" x="184.82" width="18.49" height="18.48"/>
      <rect class="cls-1" x="166.34" y="277.24" width="18.48" height="18.48"/>
      <rect class="cls-4" x="166.34" y="258.76" width="18.48" height="18.48"/>
      <rect x="166.34" y="240.28" width="18.48" height="18.48"/>
      <rect class="cls-4" x="166.34" y="221.79" width="18.48" height="18.49"/>
      <rect class="cls-1" x="166.34" y="203.31" width="18.48" height="18.48"/>
      <rect class="cls-5" x="166.34" y="184.83" width="18.48" height="18.48"/>
      <rect class="cls-5" x="166.34" y="166.35" width="18.48" height="18.48"/>
      <rect class="cls-5" x="166.34" y="147.86" width="18.48" height="18.49"/>
      <rect class="cls-2" x="166.34" y="129.38" width="18.48" height="18.48"/>
      <rect class="cls-2" x="166.34" y="110.9" width="18.48" height="18.48"/>
      <rect class="cls-2" x="166.34" y="92.41" width="18.48" height="18.49"/>
      <rect class="cls-2" x="166.34" y="73.93" width="18.48" height="18.48"/>
      <rect class="cls-5" x="166.34" y="55.45" width="18.48" height="18.48"/>
      <rect class="cls-5" x="166.34" y="36.97" width="18.48" height="18.48"/>
      <rect class="cls-3" x="166.34" y="18.48" width="18.48" height="18.49"/>
      <rect class="cls-1" x="166.34" width="18.48" height="18.48"/>
      <rect class="cls-1" x="147.86" y="277.24" width="18.48" height="18.48"/>
      <rect class="cls-4" x="147.86" y="258.76" width="18.48" height="18.48"/>
      <rect x="147.86" y="240.28" width="18.48" height="18.48"/>
      <rect class="cls-4" x="147.86" y="221.79" width="18.48" height="18.49"/>
      <rect class="cls-1" x="147.86" y="203.31" width="18.48" height="18.48"/>
      <rect class="cls-5" x="147.86" y="184.83" width="18.48" height="18.48"/>
      <rect class="cls-5" x="147.86" y="166.35" width="18.48" height="18.48"/>
      <rect class="cls-5" x="147.86" y="147.86" width="18.48" height="18.49"/>
      <rect class="cls-5" x="147.86" y="129.38" width="18.48" height="18.48"/>
      <rect class="cls-5" x="147.86" y="110.9" width="18.48" height="18.48"/>
      <rect class="cls-5" x="147.86" y="92.41" width="18.48" height="18.49"/>
      <rect class="cls-5" x="147.86" y="73.93" width="18.48" height="18.48"/>
      <rect class="cls-5" x="147.86" y="55.45" width="18.48" height="18.48"/>
      <rect class="cls-5" x="147.86" y="36.97" width="18.48" height="18.48"/>
      <rect class="cls-3" x="147.86" y="18.48" width="18.48" height="18.49"/>
      <rect class="cls-1" x="147.86" width="18.48" height="18.48"/>
      <rect class="cls-1" x="129.38" y="277.24" width="18.48" height="18.48"/>
      <rect class="cls-4" x="129.38" y="258.76" width="18.48" height="18.48"/>
      <rect x="129.38" y="240.28" width="18.48" height="18.48"/>
      <rect class="cls-4" x="129.38" y="221.79" width="18.48" height="18.49"/>
      <rect class="cls-1" x="129.38" y="203.31" width="18.48" height="18.48"/>
      <rect class="cls-5" x="129.38" y="184.83" width="18.48" height="18.48"/>
      <rect class="cls-5" x="129.38" y="166.35" width="18.48" height="18.48"/>
      <rect class="cls-5" x="129.38" y="147.86" width="18.48" height="18.49"/>
      <rect class="cls-2" x="129.38" y="129.38" width="18.48" height="18.48"/>
      <rect class="cls-2" x="129.38" y="110.9" width="18.48" height="18.48"/>
      <rect class="cls-5" x="129.38" y="92.41" width="18.48" height="18.49"/>
      <rect class="cls-2" x="129.38" y="73.93" width="18.48" height="18.48"/>
      <rect class="cls-5" x="129.38" y="55.45" width="18.48" height="18.48"/>
      <rect class="cls-5" x="129.38" y="36.97" width="18.48" height="18.48"/>
      <rect class="cls-3" x="129.38" y="18.48" width="18.48" height="18.49"/>
      <rect class="cls-1" x="129.38" width="18.48" height="18.48"/>
      <rect class="cls-1" x="110.89" y="277.24" width="18.49" height="18.48"/>
      <rect class="cls-4" x="110.89" y="258.76" width="18.49" height="18.48"/>
      <rect x="110.89" y="240.28" width="18.49" height="18.48"/>
      <rect class="cls-4" x="110.89" y="221.79" width="18.49" height="18.49"/>
      <rect class="cls-1" x="110.89" y="203.31" width="18.49" height="18.48"/>
      <rect class="cls-5" x="110.89" y="184.83" width="18.49" height="18.48"/>
      <rect class="cls-5" x="110.89" y="166.35" width="18.49" height="18.48"/>
      <rect class="cls-5" x="110.89" y="147.86" width="18.49" height="18.49"/>
      <rect class="cls-5" x="110.89" y="129.38" width="18.49" height="18.48"/>
      <rect class="cls-5" x="110.89" y="110.9" width="18.49" height="18.48"/>
      <rect class="cls-2" x="110.89" y="92.41" width="18.49" height="18.49"/>
      <rect class="cls-5" x="110.89" y="73.93" width="18.49" height="18.48"/>
      <rect class="cls-2" x="110.89" y="55.45" width="18.49" height="18.48"/>
      <rect class="cls-5" x="110.89" y="36.97" width="18.49" height="18.48"/>
      <rect class="cls-3" x="110.89" y="18.48" width="18.49" height="18.49"/>
      <rect class="cls-1" x="110.89" width="18.49" height="18.48"/>
      <rect class="cls-1" x="92.41" y="277.24" width="18.48" height="18.48"/>
      <rect class="cls-4" x="92.41" y="258.76" width="18.48" height="18.48"/>
      <rect x="92.41" y="240.28" width="18.48" height="18.48"/>
      <rect class="cls-5" x="92.41" y="221.79" width="18.48" height="18.49"/>
      <rect class="cls-1" x="92.41" y="203.31" width="18.48" height="18.48"/>
      <rect class="cls-5" x="92.41" y="184.83" width="18.48" height="18.48"/>
      <rect class="cls-5" x="92.41" y="166.35" width="18.48" height="18.48"/>
      <rect class="cls-5" x="92.41" y="147.86" width="18.48" height="18.49"/>
      <rect class="cls-2" x="92.41" y="129.38" width="18.48" height="18.48"/>
      <rect class="cls-2" x="92.41" y="110.9" width="18.48" height="18.48"/>
      <rect class="cls-2" x="92.41" y="92.41" width="18.48" height="18.49"/>
      <rect class="cls-2" x="92.41" y="73.93" width="18.48" height="18.48"/>
      <rect class="cls-2" x="92.41" y="55.45" width="18.48" height="18.48"/>
      <rect class="cls-5" x="92.41" y="36.97" width="18.48" height="18.48"/>
      <rect class="cls-3" x="92.41" y="18.48" width="18.48" height="18.49"/>
      <rect class="cls-1" x="92.41" width="18.48" height="18.48"/>
      <rect class="cls-1" x="73.93" y="277.24" width="18.48" height="18.48"/>
      <rect class="cls-4" x="73.93" y="258.76" width="18.48" height="18.48"/>
      <rect class="cls-4" x="73.93" y="240.28" width="18.48" height="18.48"/>
      <rect class="cls-5" x="73.93" y="221.79" width="18.48" height="18.49"/>
      <rect class="cls-1" x="73.93" y="203.31" width="18.48" height="18.48"/>
      <rect class="cls-5" x="73.93" y="184.83" width="18.48" height="18.48"/>
      <rect class="cls-5" x="73.93" y="166.35" width="18.48" height="18.48"/>
      <rect class="cls-5" x="73.93" y="147.86" width="18.48" height="18.49"/>
      <rect class="cls-5" x="73.93" y="129.38" width="18.48" height="18.48"/>
      <rect class="cls-5" x="73.93" y="110.9" width="18.48" height="18.48"/>
      <rect class="cls-5" x="73.93" y="92.41" width="18.48" height="18.49"/>
      <rect class="cls-5" x="73.93" y="73.93" width="18.48" height="18.48"/>
      <rect class="cls-5" x="73.93" y="55.45" width="18.48" height="18.48"/>
      <rect class="cls-5" x="73.93" y="36.97" width="18.48" height="18.48"/>
      <rect class="cls-3" x="73.93" y="18.48" width="18.48" height="18.49"/>
      <rect class="cls-1" x="73.93" width="18.48" height="18.48"/>
      <rect class="cls-1" x="55.44" y="277.24" width="18.49" height="18.48"/>
      <rect class="cls-1" x="55.44" y="258.76" width="18.49" height="18.48"/>
      <rect class="cls-1" x="55.44" y="240.28" width="18.49" height="18.48"/>
      <rect class="cls-4" x="55.44" y="221.79" width="18.49" height="18.49"/>
      <rect x="55.44" y="203.31" width="18.49" height="18.48"/>
      <rect class="cls-1" x="55.44" y="184.83" width="18.49" height="18.48"/>
      <rect class="cls-5" x="55.44" y="166.35" width="18.49" height="18.48"/>
      <rect class="cls-5" x="55.44" y="147.86" width="18.49" height="18.49"/>
      <rect class="cls-5" x="55.44" y="129.38" width="18.49" height="18.48"/>
      <rect class="cls-5" x="55.44" y="110.9" width="18.49" height="18.48"/>
      <rect class="cls-5" x="55.44" y="92.41" width="18.49" height="18.49"/>
      <rect class="cls-5" x="55.44" y="73.93" width="18.49" height="18.48"/>
      <rect class="cls-5" x="55.44" y="55.45" width="18.49" height="18.48"/>
      <rect class="cls-1" x="55.44" y="36.97" width="18.49" height="18.48"/>
      <rect class="cls-1" x="55.44" y="18.48" width="18.49" height="18.49"/>
      <rect class="cls-1" x="36.96" y="240.28" width="18.48" height="18.48"/>
      <rect class="cls-1" x="36.96" y="221.79" width="18.48" height="18.49"/>
      <rect x="36.96" y="203.31" width="18.48" height="18.48"/>
      <rect class="cls-1" x="36.96" y="184.83" width="18.48" height="18.48"/>
      <rect class="cls-5" x="36.96" y="166.35" width="18.48" height="18.48"/>
      <rect class="cls-5" x="36.96" y="147.86" width="18.48" height="18.49"/>
      <rect class="cls-5" x="36.96" y="129.38" width="18.48" height="18.48"/>
      <rect class="cls-5" x="36.96" y="110.9" width="18.48" height="18.48"/>
      <rect class="cls-5" x="36.96" y="92.41" width="18.48" height="18.49"/>
      <rect class="cls-5" x="36.96" y="73.93" width="18.48" height="18.48"/>
      <rect class="cls-1" x="36.96" y="55.45" width="18.48" height="18.48"/>
      <rect class="cls-1" x="36.96" y="36.97" width="18.48" height="18.48"/>
      <rect class="cls-1" x="18.48" y="221.79" width="18.48" height="18.49"/>
      <rect class="cls-1" x="18.48" y="203.31" width="18.48" height="18.48"/>
      <rect class="cls-1" x="18.48" y="184.83" width="18.48" height="18.48"/>
      <rect class="cls-1" x="18.48" y="166.35" width="18.48" height="18.48"/>
      <rect class="cls-3" x="18.48" y="147.86" width="18.48" height="18.49"/>
      <rect class="cls-3" x="18.48" y="129.38" width="18.48" height="18.48"/>
      <rect class="cls-3" x="18.48" y="110.9" width="18.48" height="18.48"/>
      <rect class="cls-3" x="18.48" y="92.41" width="18.48" height="18.49"/>
      <rect class="cls-1" x="18.48" y="73.93" width="18.48" height="18.48"/>
      <rect class="cls-1" x="18.48" y="55.45" width="18.48" height="18.48"/>
      <rect class="cls-1" y="166.35" width="18.48" height="18.48"/>
      <rect class="cls-1" y="147.86" width="18.48" height="18.49"/>
      <rect class="cls-1" y="129.38" width="18.48" height="18.48"/>
      <rect class="cls-1" y="110.9" width="18.48" height="18.48"/>
      <rect class="cls-1" y="92.41" width="18.48" height="18.49"/>
    </g>
  </g>
</svg>