<?xml version="1.0" encoding="UTF-8"?>
<svg id="_圖層_7" data-name="圖層 7" xmlns="http://www.w3.org/2000/svg" viewBox="0 0 1000 1000">
  <defs>
    <style>
      .cls-1 {
        fill: #eed1b8;
      }

      .cls-2 {
        fill: #fffdfe;
      }

      .cls-3 {
        fill: #635964;
      }

      .cls-4 {
        fill: #2d232e;
      }

      .cls-5 {
        fill: #3c3644;
      }
    </style>
  </defs>
  <rect class="cls-1" x="795.73" y="526.21" width="18.48" height="18.48"/>
  <rect class="cls-1" x="795.73" y="507.72" width="18.48" height="18.49"/>
  <rect class="cls-1" x="795.73" y="489.24" width="18.48" height="18.48"/>
  <rect class="cls-1" x="795.73" y="470.76" width="18.48" height="18.48"/>
  <rect class="cls-1" x="795.73" y="452.27" width="18.48" height="18.49"/>
  <rect class="cls-1" x="777.24" y="600.14" width="18.49" height="18.48"/>
  <rect class="cls-1" x="777.24" y="581.65" width="18.49" height="18.49"/>
  <rect class="cls-1" x="777.24" y="563.17" width="18.49" height="18.48"/>
  <rect class="cls-1" x="777.24" y="544.69" width="18.49" height="18.48"/>
  <rect class="cls-1" x="777.24" y="526.21" width="18.49" height="18.48"/>
  <rect class="cls-5" x="777.24" y="507.72" width="18.49" height="18.49"/>
  <rect class="cls-5" x="777.24" y="489.24" width="18.49" height="18.48"/>
  <rect class="cls-5" x="777.24" y="470.76" width="18.49" height="18.48"/>
  <rect class="cls-5" x="777.24" y="452.27" width="18.49" height="18.49"/>
  <rect class="cls-1" x="777.24" y="433.79" width="18.49" height="18.48"/>
  <rect class="cls-1" x="777.24" y="415.31" width="18.49" height="18.48"/>
  <rect class="cls-1" x="758.76" y="618.62" width="18.48" height="18.48"/>
  <rect class="cls-1" x="758.76" y="600.14" width="18.48" height="18.48"/>
  <rect x="758.76" y="581.65" width="18.48" height="18.49"/>
  <rect class="cls-5" x="758.76" y="563.17" width="18.48" height="18.48"/>
  <rect class="cls-1" x="758.76" y="544.69" width="18.48" height="18.48"/>
  <rect class="cls-5" x="758.76" y="526.21" width="18.48" height="18.48"/>
  <rect class="cls-5" x="758.76" y="507.72" width="18.48" height="18.49"/>
  <rect class="cls-3" x="758.76" y="489.24" width="18.48" height="18.48"/>
  <rect class="cls-5" x="758.76" y="470.76" width="18.48" height="18.48"/>
  <rect class="cls-5" x="758.76" y="452.27" width="18.48" height="18.49"/>
  <rect class="cls-5" x="758.76" y="433.79" width="18.48" height="18.48"/>
  <rect class="cls-1" x="758.76" y="415.31" width="18.48" height="18.48"/>
  <rect class="cls-1" x="758.76" y="396.83" width="18.48" height="18.48"/>
  <rect class="cls-1" x="740.28" y="637.1" width="18.48" height="18.48"/>
  <rect class="cls-1" x="740.28" y="618.62" width="18.48" height="18.48"/>
  <rect class="cls-4" x="740.28" y="600.14" width="18.48" height="18.48"/>
  <rect class="cls-5" x="740.28" y="581.65" width="18.48" height="18.49"/>
  <rect class="cls-1" x="740.28" y="563.17" width="18.48" height="18.48"/>
  <rect class="cls-5" x="740.28" y="544.69" width="18.48" height="18.48"/>
  <rect class="cls-5" x="740.28" y="526.21" width="18.48" height="18.48"/>
  <rect class="cls-5" x="740.28" y="507.72" width="18.48" height="18.49"/>
  <rect class="cls-5" x="740.28" y="489.24" width="18.48" height="18.48"/>
  <rect class="cls-5" x="740.28" y="470.76" width="18.48" height="18.48"/>
  <rect class="cls-5" x="740.28" y="452.27" width="18.48" height="18.49"/>
  <rect class="cls-5" x="740.28" y="433.79" width="18.48" height="18.48"/>
  <rect class="cls-5" x="740.28" y="415.31" width="18.48" height="18.48"/>
  <rect class="cls-1" x="740.28" y="396.83" width="18.48" height="18.48"/>
  <rect class="cls-1" x="740.28" y="378.34" width="18.48" height="18.49"/>
  <rect class="cls-1" x="721.8" y="637.1" width="18.48" height="18.48"/>
  <rect class="cls-4" x="721.8" y="618.62" width="18.48" height="18.48"/>
  <rect class="cls-4" x="721.8" y="600.14" width="18.48" height="18.48"/>
  <rect class="cls-5" x="721.8" y="581.65" width="18.48" height="18.49"/>
  <rect class="cls-1" x="721.8" y="563.17" width="18.48" height="18.48"/>
  <rect class="cls-5" x="721.8" y="544.69" width="18.48" height="18.48"/>
  <rect class="cls-5" x="721.8" y="526.21" width="18.48" height="18.48"/>
  <rect class="cls-5" x="721.8" y="507.72" width="18.48" height="18.49"/>
  <rect class="cls-5" x="721.8" y="489.24" width="18.48" height="18.48"/>
  <rect class="cls-5" x="721.8" y="470.76" width="18.48" height="18.48"/>
  <rect class="cls-5" x="721.8" y="452.27" width="18.48" height="18.49"/>
  <rect class="cls-5" x="721.8" y="433.79" width="18.48" height="18.48"/>
  <rect class="cls-5" x="721.8" y="415.31" width="18.48" height="18.48"/>
  <rect class="cls-5" x="721.8" y="396.83" width="18.48" height="18.48"/>
  <rect class="cls-1" x="721.8" y="378.34" width="18.48" height="18.49"/>
  <rect class="cls-1" x="721.8" y="359.86" width="18.48" height="18.48"/>
  <rect class="cls-1" x="703.31" y="637.1" width="18.49" height="18.48"/>
  <rect x="703.31" y="618.62" width="18.49" height="18.48"/>
  <rect class="cls-5" x="703.31" y="600.14" width="18.49" height="18.48"/>
  <rect class="cls-4" x="703.31" y="581.65" width="18.49" height="18.49"/>
  <rect class="cls-1" x="703.31" y="563.17" width="18.49" height="18.48"/>
  <rect class="cls-5" x="703.31" y="544.69" width="18.49" height="18.48"/>
  <rect class="cls-3" x="703.31" y="526.21" width="18.49" height="18.48"/>
  <rect class="cls-5" x="703.31" y="507.72" width="18.49" height="18.49"/>
  <rect class="cls-5" x="703.31" y="489.24" width="18.49" height="18.48"/>
  <rect class="cls-5" x="703.31" y="470.76" width="18.49" height="18.48"/>
  <rect class="cls-5" x="703.31" y="452.27" width="18.49" height="18.49"/>
  <rect class="cls-5" x="703.31" y="433.79" width="18.49" height="18.48"/>
  <rect class="cls-5" x="703.31" y="415.31" width="18.49" height="18.48"/>
  <rect class="cls-5" x="703.31" y="396.83" width="18.49" height="18.48"/>
  <rect class="cls-5" x="703.31" y="378.34" width="18.49" height="18.49"/>
  <rect class="cls-1" x="703.31" y="359.86" width="18.49" height="18.48"/>
  <rect class="cls-1" x="684.83" y="637.1" width="18.48" height="18.48"/>
  <rect x="684.83" y="618.62" width="18.48" height="18.48"/>
  <rect class="cls-5" x="684.83" y="600.14" width="18.48" height="18.48"/>
  <rect class="cls-4" x="684.83" y="581.65" width="18.48" height="18.49"/>
  <rect class="cls-1" x="684.83" y="563.17" width="18.48" height="18.48"/>
  <rect class="cls-5" x="684.83" y="544.69" width="18.48" height="18.48"/>
  <rect class="cls-3" x="684.83" y="526.21" width="18.48" height="18.48"/>
  <rect class="cls-2" x="684.83" y="507.72" width="18.48" height="18.49"/>
  <rect class="cls-5" x="684.83" y="489.24" width="18.48" height="18.48"/>
  <rect class="cls-2" x="684.83" y="470.76" width="18.48" height="18.48"/>
  <rect class="cls-2" x="684.83" y="452.27" width="18.48" height="18.49"/>
  <rect class="cls-2" x="684.83" y="433.79" width="18.48" height="18.48"/>
  <rect class="cls-5" x="684.83" y="415.31" width="18.48" height="18.48"/>
  <rect class="cls-3" x="684.83" y="396.83" width="18.48" height="18.48"/>
  <rect class="cls-5" x="684.83" y="378.34" width="18.48" height="18.49"/>
  <rect class="cls-1" x="684.83" y="359.86" width="18.48" height="18.48"/>
  <rect class="cls-1" x="666.35" y="637.1" width="18.48" height="18.48"/>
  <rect x="666.35" y="618.62" width="18.48" height="18.48"/>
  <rect x="666.35" y="600.14" width="18.48" height="18.48"/>
  <rect class="cls-4" x="666.35" y="581.65" width="18.48" height="18.49"/>
  <rect class="cls-1" x="666.35" y="563.17" width="18.48" height="18.48"/>
  <rect class="cls-5" x="666.35" y="544.69" width="18.48" height="18.48"/>
  <rect class="cls-3" x="666.35" y="526.21" width="18.48" height="18.48"/>
  <rect class="cls-5" x="666.35" y="507.72" width="18.48" height="18.49"/>
  <rect class="cls-5" x="666.35" y="489.24" width="18.48" height="18.48"/>
  <rect class="cls-5" x="666.35" y="470.76" width="18.48" height="18.48"/>
  <rect class="cls-5" x="666.35" y="452.27" width="18.48" height="18.49"/>
  <rect class="cls-5" x="666.35" y="433.79" width="18.48" height="18.48"/>
  <rect class="cls-5" x="666.35" y="415.31" width="18.48" height="18.48"/>
  <rect class="cls-3" x="666.35" y="396.83" width="18.48" height="18.48"/>
  <rect class="cls-3" x="666.35" y="378.34" width="18.48" height="18.49"/>
  <rect class="cls-1" x="666.35" y="359.86" width="18.48" height="18.48"/>
  <rect class="cls-1" x="647.86" y="637.1" width="18.49" height="18.48"/>
  <rect class="cls-4" x="647.86" y="618.62" width="18.49" height="18.48"/>
  <rect x="647.86" y="600.14" width="18.49" height="18.48"/>
  <rect class="cls-4" x="647.86" y="581.65" width="18.49" height="18.49"/>
  <rect class="cls-1" x="647.86" y="563.17" width="18.49" height="18.48"/>
  <rect class="cls-5" x="647.86" y="544.69" width="18.49" height="18.48"/>
  <rect class="cls-3" x="647.86" y="526.21" width="18.49" height="18.48"/>
  <rect class="cls-5" x="647.86" y="507.72" width="18.49" height="18.49"/>
  <rect class="cls-5" x="647.86" y="489.24" width="18.49" height="18.48"/>
  <rect class="cls-5" x="647.86" y="470.76" width="18.49" height="18.48"/>
  <rect class="cls-5" x="647.86" y="452.27" width="18.49" height="18.49"/>
  <rect class="cls-2" x="647.86" y="433.79" width="18.49" height="18.48"/>
  <rect class="cls-5" x="647.86" y="415.31" width="18.49" height="18.48"/>
  <rect class="cls-5" x="647.86" y="396.83" width="18.49" height="18.48"/>
  <rect class="cls-3" x="647.86" y="378.34" width="18.49" height="18.49"/>
  <rect class="cls-1" x="647.86" y="359.86" width="18.49" height="18.48"/>
  <rect class="cls-1" x="629.38" y="637.1" width="18.48" height="18.48"/>
  <rect class="cls-4" x="629.38" y="618.62" width="18.48" height="18.48"/>
  <rect x="629.38" y="600.14" width="18.48" height="18.48"/>
  <rect class="cls-4" x="629.38" y="581.65" width="18.48" height="18.49"/>
  <rect class="cls-1" x="629.38" y="563.17" width="18.48" height="18.48"/>
  <rect class="cls-5" x="629.38" y="544.69" width="18.48" height="18.48"/>
  <rect class="cls-3" x="629.38" y="526.21" width="18.48" height="18.48"/>
  <rect class="cls-2" x="629.38" y="507.72" width="18.48" height="18.49"/>
  <rect class="cls-2" x="629.38" y="489.24" width="18.48" height="18.48"/>
  <rect class="cls-2" x="629.38" y="470.76" width="18.48" height="18.48"/>
  <rect class="cls-2" x="629.38" y="452.27" width="18.48" height="18.49"/>
  <rect class="cls-2" x="629.38" y="433.79" width="18.48" height="18.48"/>
  <rect class="cls-5" x="629.38" y="415.31" width="18.48" height="18.48"/>
  <rect class="cls-5" x="629.38" y="396.83" width="18.48" height="18.48"/>
  <rect class="cls-3" x="629.38" y="378.34" width="18.48" height="18.49"/>
  <rect class="cls-1" x="629.38" y="359.86" width="18.48" height="18.48"/>
  <rect class="cls-1" x="610.9" y="637.1" width="18.48" height="18.48"/>
  <rect class="cls-4" x="610.9" y="618.62" width="18.48" height="18.48"/>
  <rect x="610.9" y="600.14" width="18.48" height="18.48"/>
  <rect class="cls-4" x="610.9" y="581.65" width="18.48" height="18.49"/>
  <rect class="cls-1" x="610.9" y="563.17" width="18.48" height="18.48"/>
  <rect class="cls-5" x="610.9" y="544.69" width="18.48" height="18.48"/>
  <rect class="cls-3" x="610.9" y="526.21" width="18.48" height="18.48"/>
  <rect class="cls-5" x="610.9" y="507.72" width="18.48" height="18.49"/>
  <rect class="cls-5" x="610.9" y="489.24" width="18.48" height="18.48"/>
  <rect class="cls-5" x="610.9" y="470.76" width="18.48" height="18.48"/>
  <rect class="cls-5" x="610.9" y="452.27" width="18.48" height="18.49"/>
  <rect class="cls-2" x="610.9" y="433.79" width="18.48" height="18.48"/>
  <rect class="cls-5" x="610.9" y="415.31" width="18.48" height="18.48"/>
  <rect class="cls-5" x="610.9" y="396.83" width="18.48" height="18.48"/>
  <rect class="cls-3" x="610.9" y="378.34" width="18.48" height="18.49"/>
  <rect class="cls-1" x="610.9" y="359.86" width="18.48" height="18.48"/>
  <rect class="cls-1" x="592.42" y="637.1" width="18.48" height="18.48"/>
  <rect class="cls-4" x="592.42" y="618.62" width="18.48" height="18.48"/>
  <rect x="592.42" y="600.14" width="18.48" height="18.48"/>
  <rect class="cls-4" x="592.42" y="581.65" width="18.48" height="18.49"/>
  <rect class="cls-1" x="592.42" y="563.17" width="18.48" height="18.48"/>
  <rect class="cls-5" x="592.42" y="544.69" width="18.48" height="18.48"/>
  <rect class="cls-3" x="592.42" y="526.21" width="18.48" height="18.48"/>
  <rect class="cls-5" x="592.42" y="507.72" width="18.48" height="18.49"/>
  <rect class="cls-5" x="592.42" y="489.24" width="18.48" height="18.48"/>
  <rect class="cls-5" x="592.42" y="470.76" width="18.48" height="18.48"/>
  <rect class="cls-5" x="592.42" y="452.27" width="18.48" height="18.49"/>
  <rect class="cls-5" x="592.42" y="433.79" width="18.48" height="18.48"/>
  <rect class="cls-5" x="592.42" y="415.31" width="18.48" height="18.48"/>
  <rect class="cls-5" x="592.42" y="396.83" width="18.48" height="18.48"/>
  <rect class="cls-3" x="592.42" y="378.34" width="18.48" height="18.49"/>
  <rect class="cls-1" x="592.42" y="359.86" width="18.48" height="18.48"/>
  <rect class="cls-1" x="573.93" y="637.1" width="18.49" height="18.48"/>
  <rect class="cls-4" x="573.93" y="618.62" width="18.49" height="18.48"/>
  <rect x="573.93" y="600.14" width="18.49" height="18.48"/>
  <rect class="cls-4" x="573.93" y="581.65" width="18.49" height="18.49"/>
  <rect class="cls-1" x="573.93" y="563.17" width="18.49" height="18.48"/>
  <rect class="cls-5" x="573.93" y="544.69" width="18.49" height="18.48"/>
  <rect class="cls-3" x="573.93" y="526.21" width="18.49" height="18.48"/>
  <rect class="cls-2" x="573.93" y="507.72" width="18.49" height="18.49"/>
  <rect class="cls-5" x="573.93" y="489.24" width="18.49" height="18.48"/>
  <rect class="cls-2" x="573.93" y="470.76" width="18.49" height="18.48"/>
  <rect class="cls-2" x="573.93" y="452.27" width="18.49" height="18.49"/>
  <rect class="cls-2" x="573.93" y="433.79" width="18.49" height="18.48"/>
  <rect class="cls-5" x="573.93" y="415.31" width="18.49" height="18.48"/>
  <rect class="cls-5" x="573.93" y="396.83" width="18.49" height="18.48"/>
  <rect class="cls-3" x="573.93" y="378.34" width="18.49" height="18.49"/>
  <rect class="cls-1" x="573.93" y="359.86" width="18.49" height="18.48"/>
  <rect class="cls-1" x="555.45" y="637.1" width="18.48" height="18.48"/>
  <rect class="cls-4" x="555.45" y="618.62" width="18.48" height="18.48"/>
  <rect x="555.45" y="600.14" width="18.48" height="18.48"/>
  <rect class="cls-4" x="555.45" y="581.65" width="18.48" height="18.49"/>
  <rect class="cls-1" x="555.45" y="563.17" width="18.48" height="18.48"/>
  <rect class="cls-5" x="555.45" y="544.69" width="18.48" height="18.48"/>
  <rect class="cls-3" x="555.45" y="526.21" width="18.48" height="18.48"/>
  <rect class="cls-5" x="555.45" y="507.72" width="18.48" height="18.49"/>
  <rect class="cls-2" x="555.45" y="489.24" width="18.48" height="18.48"/>
  <rect class="cls-5" x="555.45" y="470.76" width="18.48" height="18.48"/>
  <rect class="cls-5" x="555.45" y="452.27" width="18.48" height="18.49"/>
  <rect class="cls-2" x="555.45" y="433.79" width="18.48" height="18.48"/>
  <rect class="cls-5" x="555.45" y="415.31" width="18.48" height="18.48"/>
  <rect class="cls-5" x="555.45" y="396.83" width="18.48" height="18.48"/>
  <rect class="cls-3" x="555.45" y="378.34" width="18.48" height="18.49"/>
  <rect class="cls-1" x="555.45" y="359.86" width="18.48" height="18.48"/>
  <rect class="cls-1" x="536.97" y="637.1" width="18.48" height="18.48"/>
  <rect class="cls-4" x="536.97" y="618.62" width="18.48" height="18.48"/>
  <rect x="536.97" y="600.14" width="18.48" height="18.48"/>
  <rect class="cls-4" x="536.97" y="581.65" width="18.48" height="18.49"/>
  <rect class="cls-1" x="536.97" y="563.17" width="18.48" height="18.48"/>
  <rect class="cls-5" x="536.97" y="544.69" width="18.48" height="18.48"/>
  <rect class="cls-3" x="536.97" y="526.21" width="18.48" height="18.48"/>
  <rect class="cls-2" x="536.97" y="507.72" width="18.48" height="18.49"/>
  <rect class="cls-2" x="536.97" y="489.24" width="18.48" height="18.48"/>
  <rect class="cls-2" x="536.97" y="470.76" width="18.48" height="18.48"/>
  <rect class="cls-2" x="536.97" y="452.27" width="18.48" height="18.49"/>
  <rect class="cls-5" x="536.97" y="433.79" width="18.48" height="18.48"/>
  <rect class="cls-5" x="536.97" y="415.31" width="18.48" height="18.48"/>
  <rect class="cls-5" x="536.97" y="396.83" width="18.48" height="18.48"/>
  <rect class="cls-3" x="536.97" y="378.34" width="18.48" height="18.49"/>
  <rect class="cls-1" x="536.97" y="359.86" width="18.48" height="18.48"/>
  <rect class="cls-1" x="518.48" y="637.1" width="18.49" height="18.48"/>
  <rect class="cls-4" x="518.48" y="618.62" width="18.49" height="18.48"/>
  <rect x="518.48" y="600.14" width="18.49" height="18.48"/>
  <rect class="cls-4" x="518.48" y="581.65" width="18.49" height="18.49"/>
  <rect class="cls-1" x="518.48" y="563.17" width="18.49" height="18.48"/>
  <rect class="cls-5" x="518.48" y="544.69" width="18.49" height="18.48"/>
  <rect class="cls-3" x="518.48" y="526.21" width="18.49" height="18.48"/>
  <rect class="cls-5" x="518.48" y="507.72" width="18.49" height="18.49"/>
  <rect class="cls-5" x="518.48" y="489.24" width="18.49" height="18.48"/>
  <rect class="cls-5" x="518.48" y="470.76" width="18.49" height="18.48"/>
  <rect class="cls-5" x="518.48" y="452.27" width="18.49" height="18.49"/>
  <rect class="cls-5" x="518.48" y="433.79" width="18.49" height="18.48"/>
  <rect class="cls-5" x="518.48" y="415.31" width="18.49" height="18.48"/>
  <rect class="cls-5" x="518.48" y="396.83" width="18.49" height="18.48"/>
  <rect class="cls-3" x="518.48" y="378.34" width="18.49" height="18.49"/>
  <rect class="cls-1" x="518.48" y="359.86" width="18.49" height="18.48"/>
  <rect class="cls-1" x="500" y="637.1" width="18.48" height="18.48"/>
  <rect class="cls-4" x="500" y="618.62" width="18.48" height="18.48"/>
  <rect x="500" y="600.14" width="18.48" height="18.48"/>
  <rect class="cls-4" x="500" y="581.65" width="18.48" height="18.49"/>
  <rect class="cls-1" x="500" y="563.17" width="18.48" height="18.48"/>
  <rect class="cls-5" x="500" y="544.69" width="18.48" height="18.48"/>
  <rect class="cls-3" x="500" y="526.21" width="18.48" height="18.48"/>
  <rect class="cls-2" x="500" y="507.72" width="18.48" height="18.49"/>
  <rect class="cls-2" x="500" y="489.24" width="18.48" height="18.48"/>
  <rect class="cls-2" x="500" y="470.76" width="18.48" height="18.48"/>
  <rect class="cls-2" x="500" y="452.27" width="18.48" height="18.49"/>
  <rect class="cls-2" x="500" y="433.79" width="18.48" height="18.48"/>
  <rect class="cls-5" x="500" y="415.31" width="18.48" height="18.48"/>
  <rect class="cls-5" x="500" y="396.83" width="18.48" height="18.48"/>
  <rect class="cls-5" x="500" y="378.34" width="18.48" height="18.49"/>
  <rect class="cls-1" x="500" y="359.86" width="18.48" height="18.48"/>
  <rect class="cls-1" x="481.52" y="637.1" width="18.48" height="18.48"/>
  <rect class="cls-4" x="481.52" y="618.62" width="18.48" height="18.48"/>
  <rect x="481.52" y="600.14" width="18.48" height="18.48"/>
  <rect class="cls-4" x="481.52" y="581.65" width="18.48" height="18.49"/>
  <rect class="cls-1" x="481.52" y="563.17" width="18.48" height="18.48"/>
  <rect class="cls-5" x="481.52" y="544.69" width="18.48" height="18.48"/>
  <rect class="cls-3" x="481.52" y="526.21" width="18.48" height="18.48"/>
  <rect class="cls-5" x="481.52" y="507.72" width="18.48" height="18.49"/>
  <rect class="cls-5" x="481.52" y="489.24" width="18.48" height="18.48"/>
  <rect class="cls-2" x="481.52" y="470.76" width="18.48" height="18.48"/>
  <rect class="cls-5" x="481.52" y="452.27" width="18.48" height="18.49"/>
  <rect class="cls-2" x="481.52" y="433.79" width="18.48" height="18.48"/>
  <rect class="cls-5" x="481.52" y="415.31" width="18.48" height="18.48"/>
  <rect class="cls-5" x="481.52" y="396.83" width="18.48" height="18.48"/>
  <rect class="cls-3" x="481.52" y="378.34" width="18.48" height="18.49"/>
  <rect class="cls-1" x="481.52" y="359.86" width="18.48" height="18.48"/>
  <rect class="cls-1" x="463.04" y="637.1" width="18.48" height="18.48"/>
  <rect class="cls-4" x="463.04" y="618.62" width="18.48" height="18.48"/>
  <rect x="463.04" y="600.14" width="18.48" height="18.48"/>
  <rect class="cls-4" x="463.04" y="581.65" width="18.48" height="18.49"/>
  <rect class="cls-1" x="463.04" y="563.17" width="18.48" height="18.48"/>
  <rect class="cls-5" x="463.04" y="544.69" width="18.48" height="18.48"/>
  <rect class="cls-3" x="463.04" y="526.21" width="18.48" height="18.48"/>
  <rect class="cls-2" x="463.04" y="507.72" width="18.48" height="18.49"/>
  <rect class="cls-2" x="463.04" y="489.24" width="18.48" height="18.48"/>
  <rect class="cls-2" x="463.04" y="470.76" width="18.48" height="18.48"/>
  <rect class="cls-2" x="463.04" y="452.27" width="18.48" height="18.49"/>
  <rect class="cls-5" x="463.04" y="433.79" width="18.48" height="18.48"/>
  <rect class="cls-5" x="463.04" y="415.31" width="18.48" height="18.48"/>
  <rect class="cls-5" x="463.04" y="396.83" width="18.48" height="18.48"/>
  <rect class="cls-5" x="463.04" y="378.34" width="18.48" height="18.49"/>
  <rect class="cls-1" x="463.04" y="359.86" width="18.48" height="18.48"/>
  <rect class="cls-1" x="444.55" y="637.1" width="18.49" height="18.48"/>
  <rect class="cls-4" x="444.55" y="618.62" width="18.49" height="18.48"/>
  <rect x="444.55" y="600.14" width="18.49" height="18.48"/>
  <rect class="cls-4" x="444.55" y="581.65" width="18.49" height="18.49"/>
  <rect class="cls-1" x="444.55" y="563.17" width="18.49" height="18.48"/>
  <rect class="cls-5" x="444.55" y="544.69" width="18.49" height="18.48"/>
  <rect class="cls-3" x="444.55" y="526.21" width="18.49" height="18.48"/>
  <rect class="cls-5" x="444.55" y="507.72" width="18.49" height="18.49"/>
  <rect class="cls-5" x="444.55" y="489.24" width="18.49" height="18.48"/>
  <rect class="cls-5" x="444.55" y="470.76" width="18.49" height="18.48"/>
  <rect class="cls-5" x="444.55" y="452.27" width="18.49" height="18.49"/>
  <rect class="cls-5" x="444.55" y="433.79" width="18.49" height="18.48"/>
  <rect class="cls-5" x="444.55" y="415.31" width="18.49" height="18.48"/>
  <rect class="cls-5" x="444.55" y="396.83" width="18.49" height="18.48"/>
  <rect class="cls-3" x="444.55" y="378.34" width="18.49" height="18.49"/>
  <rect class="cls-1" x="444.55" y="359.86" width="18.49" height="18.48"/>
  <rect class="cls-1" x="426.07" y="637.1" width="18.48" height="18.48"/>
  <rect class="cls-4" x="426.07" y="618.62" width="18.48" height="18.48"/>
  <rect x="426.07" y="600.14" width="18.48" height="18.48"/>
  <rect class="cls-4" x="426.07" y="581.65" width="18.48" height="18.49"/>
  <rect class="cls-1" x="426.07" y="563.17" width="18.48" height="18.48"/>
  <rect class="cls-5" x="426.07" y="544.69" width="18.48" height="18.48"/>
  <rect class="cls-3" x="426.07" y="526.21" width="18.48" height="18.48"/>
  <rect class="cls-5" x="426.07" y="507.72" width="18.48" height="18.49"/>
  <rect class="cls-5" x="426.07" y="489.24" width="18.48" height="18.48"/>
  <rect class="cls-5" x="426.07" y="470.76" width="18.48" height="18.48"/>
  <rect class="cls-5" x="426.07" y="452.27" width="18.48" height="18.49"/>
  <rect class="cls-2" x="426.07" y="433.79" width="18.48" height="18.48"/>
  <rect class="cls-5" x="426.07" y="415.31" width="18.48" height="18.48"/>
  <rect class="cls-5" x="426.07" y="396.83" width="18.48" height="18.48"/>
  <rect class="cls-3" x="426.07" y="378.34" width="18.48" height="18.49"/>
  <rect class="cls-1" x="426.07" y="359.86" width="18.48" height="18.48"/>
  <rect class="cls-1" x="407.59" y="637.1" width="18.48" height="18.48"/>
  <rect class="cls-4" x="407.59" y="618.62" width="18.48" height="18.48"/>
  <rect x="407.59" y="600.14" width="18.48" height="18.48"/>
  <rect class="cls-4" x="407.59" y="581.65" width="18.48" height="18.49"/>
  <rect class="cls-1" x="407.59" y="563.17" width="18.48" height="18.48"/>
  <rect class="cls-5" x="407.59" y="544.69" width="18.48" height="18.48"/>
  <rect class="cls-5" x="407.59" y="526.21" width="18.48" height="18.48"/>
  <rect class="cls-2" x="407.59" y="507.72" width="18.48" height="18.49"/>
  <rect class="cls-2" x="407.59" y="489.24" width="18.48" height="18.48"/>
  <rect class="cls-2" x="407.59" y="470.76" width="18.48" height="18.48"/>
  <rect class="cls-2" x="407.59" y="452.27" width="18.48" height="18.49"/>
  <rect class="cls-2" x="407.59" y="433.79" width="18.48" height="18.48"/>
  <rect class="cls-5" x="407.59" y="415.31" width="18.48" height="18.48"/>
  <rect class="cls-5" x="407.59" y="396.83" width="18.48" height="18.48"/>
  <rect class="cls-5" x="407.59" y="378.34" width="18.48" height="18.49"/>
  <rect class="cls-1" x="407.59" y="359.86" width="18.48" height="18.48"/>
  <rect class="cls-1" x="389.1" y="637.1" width="18.49" height="18.48"/>
  <rect class="cls-4" x="389.1" y="618.62" width="18.49" height="18.48"/>
  <rect x="389.1" y="600.14" width="18.49" height="18.48"/>
  <rect class="cls-4" x="389.1" y="581.65" width="18.49" height="18.49"/>
  <rect class="cls-1" x="389.1" y="563.17" width="18.49" height="18.48"/>
  <rect class="cls-5" x="389.1" y="544.69" width="18.49" height="18.48"/>
  <rect class="cls-5" x="389.1" y="526.21" width="18.49" height="18.48"/>
  <rect class="cls-5" x="389.1" y="507.72" width="18.49" height="18.49"/>
  <rect class="cls-5" x="389.1" y="489.24" width="18.49" height="18.48"/>
  <rect class="cls-5" x="389.1" y="470.76" width="18.49" height="18.48"/>
  <rect class="cls-5" x="389.1" y="452.27" width="18.49" height="18.49"/>
  <rect class="cls-2" x="389.1" y="433.79" width="18.49" height="18.48"/>
  <rect class="cls-5" x="389.1" y="415.31" width="18.49" height="18.48"/>
  <rect class="cls-5" x="389.1" y="396.83" width="18.49" height="18.48"/>
  <rect class="cls-3" x="389.1" y="378.34" width="18.49" height="18.49"/>
  <rect class="cls-1" x="389.1" y="359.86" width="18.49" height="18.48"/>
  <rect class="cls-1" x="370.62" y="637.1" width="18.48" height="18.48"/>
  <rect class="cls-4" x="370.62" y="618.62" width="18.48" height="18.48"/>
  <rect x="370.62" y="600.14" width="18.48" height="18.48"/>
  <rect class="cls-4" x="370.62" y="581.65" width="18.48" height="18.49"/>
  <rect class="cls-1" x="370.62" y="563.17" width="18.48" height="18.48"/>
  <rect class="cls-5" x="370.62" y="544.69" width="18.48" height="18.48"/>
  <rect class="cls-5" x="370.62" y="526.21" width="18.48" height="18.48"/>
  <rect class="cls-5" x="370.62" y="507.72" width="18.48" height="18.49"/>
  <rect class="cls-5" x="370.62" y="489.24" width="18.48" height="18.48"/>
  <rect class="cls-5" x="370.62" y="470.76" width="18.48" height="18.48"/>
  <rect class="cls-5" x="370.62" y="452.27" width="18.48" height="18.49"/>
  <rect class="cls-5" x="370.62" y="433.79" width="18.48" height="18.48"/>
  <rect class="cls-5" x="370.62" y="415.31" width="18.48" height="18.48"/>
  <rect class="cls-5" x="370.62" y="396.83" width="18.48" height="18.48"/>
  <rect class="cls-3" x="370.62" y="378.34" width="18.48" height="18.49"/>
  <rect class="cls-1" x="370.62" y="359.86" width="18.48" height="18.48"/>
  <rect class="cls-1" x="352.14" y="637.1" width="18.48" height="18.48"/>
  <rect class="cls-4" x="352.14" y="618.62" width="18.48" height="18.48"/>
  <rect x="352.14" y="600.14" width="18.48" height="18.48"/>
  <rect class="cls-4" x="352.14" y="581.65" width="18.48" height="18.49"/>
  <rect class="cls-1" x="352.14" y="563.17" width="18.48" height="18.48"/>
  <rect class="cls-5" x="352.14" y="544.69" width="18.48" height="18.48"/>
  <rect class="cls-5" x="352.14" y="526.21" width="18.48" height="18.48"/>
  <rect class="cls-2" x="352.14" y="507.72" width="18.48" height="18.49"/>
  <rect class="cls-2" x="352.14" y="489.24" width="18.48" height="18.48"/>
  <rect class="cls-2" x="352.14" y="470.76" width="18.48" height="18.48"/>
  <rect class="cls-5" x="352.14" y="452.27" width="18.48" height="18.49"/>
  <rect class="cls-2" x="352.14" y="433.79" width="18.48" height="18.48"/>
  <rect class="cls-5" x="352.14" y="415.31" width="18.48" height="18.48"/>
  <rect class="cls-5" x="352.14" y="396.83" width="18.48" height="18.48"/>
  <rect class="cls-3" x="352.14" y="378.34" width="18.48" height="18.49"/>
  <rect class="cls-1" x="352.14" y="359.86" width="18.48" height="18.48"/>
  <rect class="cls-1" x="333.66" y="637.1" width="18.48" height="18.48"/>
  <rect class="cls-4" x="333.66" y="618.62" width="18.48" height="18.48"/>
  <rect x="333.66" y="600.14" width="18.48" height="18.48"/>
  <rect class="cls-4" x="333.66" y="581.65" width="18.48" height="18.49"/>
  <rect class="cls-1" x="333.66" y="563.17" width="18.48" height="18.48"/>
  <rect class="cls-5" x="333.66" y="544.69" width="18.48" height="18.48"/>
  <rect class="cls-5" x="333.66" y="526.21" width="18.48" height="18.48"/>
  <rect class="cls-2" x="333.66" y="507.72" width="18.48" height="18.49"/>
  <rect class="cls-5" x="333.66" y="489.24" width="18.48" height="18.48"/>
  <rect class="cls-2" x="333.66" y="470.76" width="18.48" height="18.48"/>
  <rect class="cls-5" x="333.66" y="452.27" width="18.48" height="18.49"/>
  <rect class="cls-2" x="333.66" y="433.79" width="18.48" height="18.48"/>
  <rect class="cls-5" x="333.66" y="415.31" width="18.48" height="18.48"/>
  <rect class="cls-5" x="333.66" y="396.83" width="18.48" height="18.48"/>
  <rect class="cls-3" x="333.66" y="378.34" width="18.48" height="18.49"/>
  <rect class="cls-1" x="333.66" y="359.86" width="18.48" height="18.48"/>
  <rect class="cls-1" x="315.17" y="637.1" width="18.49" height="18.48"/>
  <rect class="cls-4" x="315.17" y="618.62" width="18.49" height="18.48"/>
  <rect x="315.17" y="600.14" width="18.49" height="18.48"/>
  <rect class="cls-4" x="315.17" y="581.65" width="18.49" height="18.49"/>
  <rect class="cls-1" x="315.17" y="563.17" width="18.49" height="18.48"/>
  <rect class="cls-5" x="315.17" y="544.69" width="18.49" height="18.48"/>
  <rect class="cls-5" x="315.17" y="526.21" width="18.49" height="18.48"/>
  <rect class="cls-2" x="315.17" y="507.72" width="18.49" height="18.49"/>
  <rect class="cls-5" x="315.17" y="489.24" width="18.49" height="18.48"/>
  <rect class="cls-2" x="315.17" y="470.76" width="18.49" height="18.48"/>
  <rect class="cls-2" x="315.17" y="452.27" width="18.49" height="18.49"/>
  <rect class="cls-5" x="315.17" y="433.79" width="18.49" height="18.48"/>
  <rect class="cls-5" x="315.17" y="415.31" width="18.49" height="18.48"/>
  <rect class="cls-5" x="315.17" y="396.83" width="18.49" height="18.48"/>
  <rect class="cls-3" x="315.17" y="378.34" width="18.49" height="18.49"/>
  <rect class="cls-1" x="315.17" y="359.86" width="18.49" height="18.48"/>
  <rect class="cls-1" x="296.69" y="637.1" width="18.48" height="18.48"/>
  <rect class="cls-4" x="296.69" y="618.62" width="18.48" height="18.48"/>
  <rect x="296.69" y="600.14" width="18.48" height="18.48"/>
  <rect class="cls-5" x="296.69" y="581.65" width="18.48" height="18.49"/>
  <rect class="cls-1" x="296.69" y="563.17" width="18.48" height="18.48"/>
  <rect class="cls-5" x="296.69" y="544.69" width="18.48" height="18.48"/>
  <rect class="cls-5" x="296.69" y="526.21" width="18.48" height="18.48"/>
  <rect class="cls-5" x="296.69" y="507.72" width="18.48" height="18.49"/>
  <rect class="cls-5" x="296.69" y="489.24" width="18.48" height="18.48"/>
  <rect class="cls-5" x="296.69" y="470.76" width="18.48" height="18.48"/>
  <rect class="cls-5" x="296.69" y="452.27" width="18.48" height="18.49"/>
  <rect class="cls-5" x="296.69" y="433.79" width="18.48" height="18.48"/>
  <rect class="cls-5" x="296.69" y="415.31" width="18.48" height="18.48"/>
  <rect class="cls-5" x="296.69" y="396.83" width="18.48" height="18.48"/>
  <rect class="cls-3" x="296.69" y="378.34" width="18.48" height="18.49"/>
  <rect class="cls-1" x="296.69" y="359.86" width="18.48" height="18.48"/>
  <rect class="cls-1" x="278.21" y="637.1" width="18.48" height="18.48"/>
  <rect class="cls-4" x="278.21" y="618.62" width="18.48" height="18.48"/>
  <rect class="cls-4" x="278.21" y="600.14" width="18.48" height="18.48"/>
  <rect class="cls-5" x="278.21" y="581.65" width="18.48" height="18.49"/>
  <rect class="cls-1" x="278.21" y="563.17" width="18.48" height="18.48"/>
  <rect class="cls-5" x="278.21" y="544.69" width="18.48" height="18.48"/>
  <rect class="cls-5" x="278.21" y="526.21" width="18.48" height="18.48"/>
  <rect class="cls-3" x="278.21" y="507.72" width="18.48" height="18.49"/>
  <rect class="cls-3" x="278.21" y="489.24" width="18.48" height="18.48"/>
  <rect class="cls-3" x="278.21" y="470.76" width="18.48" height="18.48"/>
  <rect class="cls-3" x="278.21" y="452.27" width="18.48" height="18.49"/>
  <rect class="cls-5" x="278.21" y="433.79" width="18.48" height="18.48"/>
  <rect class="cls-5" x="278.21" y="415.31" width="18.48" height="18.48"/>
  <rect class="cls-5" x="278.21" y="396.83" width="18.48" height="18.48"/>
  <rect class="cls-3" x="278.21" y="378.34" width="18.48" height="18.49"/>
  <rect class="cls-1" x="278.21" y="359.86" width="18.48" height="18.48"/>
  <rect class="cls-1" x="259.72" y="637.1" width="18.49" height="18.48"/>
  <rect class="cls-1" x="259.72" y="618.62" width="18.49" height="18.48"/>
  <rect class="cls-1" x="259.72" y="600.14" width="18.49" height="18.48"/>
  <rect class="cls-4" x="259.72" y="581.65" width="18.49" height="18.49"/>
  <rect x="259.72" y="563.17" width="18.49" height="18.48"/>
  <rect class="cls-1" x="259.72" y="544.69" width="18.49" height="18.48"/>
  <rect class="cls-5" x="259.72" y="526.21" width="18.49" height="18.48"/>
  <rect class="cls-5" x="259.72" y="507.72" width="18.49" height="18.49"/>
  <rect class="cls-5" x="259.72" y="489.24" width="18.49" height="18.48"/>
  <rect class="cls-5" x="259.72" y="470.76" width="18.49" height="18.48"/>
  <rect class="cls-5" x="259.72" y="452.27" width="18.49" height="18.49"/>
  <rect class="cls-5" x="259.72" y="433.79" width="18.49" height="18.48"/>
  <rect class="cls-5" x="259.72" y="415.31" width="18.49" height="18.48"/>
  <rect class="cls-1" x="259.72" y="396.83" width="18.49" height="18.48"/>
  <rect class="cls-1" x="259.72" y="378.34" width="18.49" height="18.49"/>
  <rect class="cls-1" x="241.24" y="600.14" width="18.48" height="18.48"/>
  <rect class="cls-1" x="241.24" y="581.65" width="18.48" height="18.49"/>
  <rect x="241.24" y="563.17" width="18.48" height="18.48"/>
  <rect class="cls-1" x="241.24" y="544.69" width="18.48" height="18.48"/>
  <rect class="cls-5" x="241.24" y="526.21" width="18.48" height="18.48"/>
  <rect class="cls-5" x="241.24" y="507.72" width="18.48" height="18.49"/>
  <rect class="cls-5" x="241.24" y="489.24" width="18.48" height="18.48"/>
  <rect class="cls-5" x="241.24" y="470.76" width="18.48" height="18.48"/>
  <rect class="cls-5" x="241.24" y="452.27" width="18.48" height="18.49"/>
  <rect class="cls-5" x="241.24" y="433.79" width="18.48" height="18.48"/>
  <rect class="cls-1" x="241.24" y="415.31" width="18.48" height="18.48"/>
  <rect class="cls-1" x="241.24" y="396.83" width="18.48" height="18.48"/>
  <rect class="cls-1" x="222.76" y="581.65" width="18.48" height="18.49"/>
  <rect class="cls-1" x="222.76" y="563.17" width="18.48" height="18.48"/>
  <rect class="cls-1" x="222.76" y="544.69" width="18.48" height="18.48"/>
  <rect class="cls-1" x="222.76" y="526.21" width="18.48" height="18.48"/>
  <rect class="cls-3" x="222.76" y="507.72" width="18.48" height="18.49"/>
  <rect class="cls-3" x="222.76" y="489.24" width="18.48" height="18.48"/>
  <rect class="cls-3" x="222.76" y="470.76" width="18.48" height="18.48"/>
  <rect class="cls-3" x="222.76" y="452.27" width="18.48" height="18.49"/>
  <rect class="cls-1" x="222.76" y="433.79" width="18.48" height="18.48"/>
  <rect class="cls-1" x="222.76" y="415.31" width="18.48" height="18.48"/>
  <rect class="cls-1" x="204.28" y="526.21" width="18.48" height="18.48"/>
  <rect class="cls-1" x="204.28" y="507.72" width="18.48" height="18.49"/>
  <rect class="cls-1" x="204.28" y="489.24" width="18.48" height="18.48"/>
  <rect class="cls-1" x="204.28" y="470.76" width="18.48" height="18.48"/>
  <rect class="cls-1" x="204.28" y="452.27" width="18.48" height="18.49"/>
</svg>