<?xml version="1.0" encoding="UTF-8"?>
<svg id="_圖層_10" data-name="圖層 10" xmlns="http://www.w3.org/2000/svg" viewBox="0 0 1000 1000">
  <defs>
    <style>
      .cls-1 {
        fill: #f8e0c6;
      }

      .cls-2 {
        fill: #fff2e3;
      }

      .cls-3 {
        fill: #fdf2e2;
      }

      .cls-4 {
        fill: #a03237;
      }

      .cls-5 {
        fill: #acd4b0;
      }

      .cls-6 {
        fill: #d6ead7;
      }

      .cls-7 {
        fill: #2d232d;
      }

      .cls-8 {
        fill: #603827;
      }

      .cls-9 {
        fill: #46281e;
      }

      .cls-10 {
        fill: #771f1e;
      }

      .cls-11 {
        fill: #4e7b57;
      }
    </style>
  </defs>
  <rect class="cls-7" x="711.3" y="597.04" width="22.24" height="22.24"/>
  <rect class="cls-7" x="711.3" y="574.8" width="22.24" height="22.24"/>
  <rect class="cls-8" x="711.3" y="552.56" width="22.24" height="22.24"/>
  <rect class="cls-7" x="711.3" y="530.31" width="22.24" height="22.25"/>
  <rect class="cls-7" x="689.06" y="663.77" width="22.24" height="22.24"/>
  <rect class="cls-7" x="689.06" y="641.53" width="22.24" height="22.24"/>
  <rect class="cls-7" x="689.06" y="619.28" width="22.24" height="22.25"/>
  <rect class="cls-8" x="689.06" y="597.04" width="22.24" height="22.24"/>
  <rect class="cls-8" x="689.06" y="574.8" width="22.24" height="22.24"/>
  <rect class="cls-8" x="689.06" y="552.56" width="22.24" height="22.24"/>
  <rect class="cls-7" x="689.06" y="530.31" width="22.24" height="22.25"/>
  <rect class="cls-7" x="689.06" y="352.37" width="22.24" height="22.25"/>
  <rect class="cls-7" x="689.06" y="330.13" width="22.24" height="22.24"/>
  <rect class="cls-7" x="689.06" y="307.89" width="22.24" height="22.24"/>
  <rect class="cls-7" x="689.06" y="285.64" width="22.24" height="22.25"/>
  <rect class="cls-7" x="689.06" y="263.4" width="22.24" height="22.24"/>
  <rect class="cls-7" x="666.81" y="686.01" width="22.25" height="22.24"/>
  <rect class="cls-6" x="666.81" y="663.77" width="22.25" height="22.24"/>
  <rect class="cls-11" x="666.81" y="641.53" width="22.25" height="22.24"/>
  <rect class="cls-7" x="666.81" y="619.28" width="22.25" height="22.25"/>
  <rect class="cls-8" x="666.81" y="597.04" width="22.25" height="22.24"/>
  <rect class="cls-9" x="666.81" y="574.8" width="22.25" height="22.24"/>
  <rect class="cls-8" x="666.81" y="552.56" width="22.25" height="22.24"/>
  <rect class="cls-8" x="666.81" y="530.31" width="22.25" height="22.25"/>
  <rect class="cls-7" x="666.81" y="508.07" width="22.25" height="22.24"/>
  <rect class="cls-7" x="666.81" y="485.83" width="22.25" height="22.24"/>
  <rect class="cls-7" x="666.81" y="396.86" width="22.25" height="22.24"/>
  <rect class="cls-7" x="666.81" y="374.62" width="22.25" height="22.24"/>
  <rect class="cls-5" x="666.81" y="352.37" width="22.25" height="22.25"/>
  <rect class="cls-11" x="666.81" y="330.13" width="22.25" height="22.24"/>
  <rect class="cls-11" x="666.81" y="307.89" width="22.25" height="22.24"/>
  <rect class="cls-5" x="666.81" y="285.64" width="22.25" height="22.25"/>
  <rect class="cls-7" x="666.81" y="263.4" width="22.25" height="22.24"/>
  <rect class="cls-7" x="666.81" y="241.16" width="22.25" height="22.24"/>
  <rect class="cls-7" x="644.57" y="841.71" width="22.24" height="22.24"/>
  <rect class="cls-9" x="644.57" y="819.47" width="22.24" height="22.24"/>
  <rect class="cls-7" x="644.57" y="686.01" width="22.24" height="22.24"/>
  <rect class="cls-11" x="644.57" y="663.77" width="22.24" height="22.24"/>
  <rect class="cls-5" x="644.57" y="641.53" width="22.24" height="22.24"/>
  <rect class="cls-8" x="644.57" y="619.28" width="22.24" height="22.25"/>
  <rect class="cls-7" x="644.57" y="597.04" width="22.24" height="22.24"/>
  <rect class="cls-8" x="644.57" y="574.8" width="22.24" height="22.24"/>
  <rect class="cls-7" x="644.57" y="552.56" width="22.24" height="22.24"/>
  <rect class="cls-8" x="644.57" y="530.31" width="22.24" height="22.25"/>
  <rect class="cls-9" x="644.57" y="508.07" width="22.24" height="22.24"/>
  <rect class="cls-7" x="644.57" y="485.83" width="22.24" height="22.24"/>
  <rect class="cls-7" x="644.57" y="441.34" width="22.24" height="22.25"/>
  <rect class="cls-7" x="644.57" y="419.1" width="22.24" height="22.24"/>
  <rect class="cls-7" x="644.57" y="396.86" width="22.24" height="22.24"/>
  <rect class="cls-5" x="644.57" y="374.62" width="22.24" height="22.24"/>
  <rect class="cls-11" x="644.57" y="352.37" width="22.24" height="22.25"/>
  <rect class="cls-11" x="644.57" y="330.13" width="22.24" height="22.24"/>
  <rect class="cls-5" x="644.57" y="307.89" width="22.24" height="22.24"/>
  <rect class="cls-5" x="644.57" y="285.64" width="22.24" height="22.25"/>
  <rect class="cls-7" x="644.57" y="263.4" width="22.24" height="22.24"/>
  <rect class="cls-4" x="644.57" y="241.16" width="22.24" height="22.24"/>
  <rect class="cls-7" x="644.57" y="218.92" width="22.24" height="22.24"/>
  <rect class="cls-7" x="644.57" y="196.67" width="22.24" height="22.25"/>
  <rect class="cls-7" x="622.33" y="841.71" width="22.24" height="22.24"/>
  <rect class="cls-9" x="622.33" y="819.47" width="22.24" height="22.24"/>
  <rect class="cls-7" x="622.33" y="797.23" width="22.24" height="22.24"/>
  <rect class="cls-7" x="622.33" y="774.98" width="22.24" height="22.25"/>
  <rect class="cls-7" x="622.33" y="752.74" width="22.24" height="22.24"/>
  <rect class="cls-7" x="622.33" y="730.5" width="22.24" height="22.24"/>
  <rect class="cls-7" x="622.33" y="708.25" width="22.24" height="22.25"/>
  <rect class="cls-7" x="622.33" y="686.01" width="22.24" height="22.24"/>
  <rect class="cls-5" x="622.33" y="663.77" width="22.24" height="22.24"/>
  <rect class="cls-5" x="622.33" y="641.53" width="22.24" height="22.24"/>
  <rect class="cls-7" x="622.33" y="619.28" width="22.24" height="22.25"/>
  <rect class="cls-8" x="622.33" y="597.04" width="22.24" height="22.24"/>
  <rect class="cls-8" x="622.33" y="574.8" width="22.24" height="22.24"/>
  <rect class="cls-8" x="622.33" y="552.56" width="22.24" height="22.24"/>
  <rect class="cls-7" x="622.33" y="530.31" width="22.24" height="22.25"/>
  <rect class="cls-9" x="622.33" y="508.07" width="22.24" height="22.24"/>
  <rect class="cls-7" x="622.33" y="485.83" width="22.24" height="22.24"/>
  <rect class="cls-7" x="622.33" y="463.59" width="22.24" height="22.24"/>
  <rect class="cls-7" x="622.33" y="441.34" width="22.24" height="22.25"/>
  <rect class="cls-5" x="622.33" y="419.1" width="22.24" height="22.24"/>
  <rect class="cls-11" x="622.33" y="396.86" width="22.24" height="22.24"/>
  <rect class="cls-11" x="622.33" y="374.62" width="22.24" height="22.24"/>
  <rect class="cls-11" x="622.33" y="352.37" width="22.24" height="22.25"/>
  <rect class="cls-7" x="622.33" y="330.13" width="22.24" height="22.24"/>
  <rect class="cls-5" x="622.33" y="307.89" width="22.24" height="22.24"/>
  <rect class="cls-6" x="622.33" y="285.64" width="22.24" height="22.25"/>
  <rect class="cls-11" x="622.33" y="263.4" width="22.24" height="22.24"/>
  <rect class="cls-6" x="622.33" y="241.16" width="22.24" height="22.24"/>
  <rect class="cls-4" x="622.33" y="218.92" width="22.24" height="22.24"/>
  <rect class="cls-7" x="622.33" y="196.67" width="22.24" height="22.25"/>
  <rect class="cls-7" x="600.1" y="841.71" width="22.24" height="22.24"/>
  <rect class="cls-9" x="600.1" y="819.47" width="22.24" height="22.24"/>
  <rect class="cls-7" x="600.1" y="797.23" width="22.24" height="22.24"/>
  <rect class="cls-8" x="600.1" y="774.98" width="22.24" height="22.25"/>
  <rect class="cls-8" x="600.1" y="752.74" width="22.24" height="22.24"/>
  <rect class="cls-8" x="600.1" y="730.5" width="22.24" height="22.24"/>
  <rect class="cls-8" x="600.1" y="708.25" width="22.24" height="22.25"/>
  <rect class="cls-7" x="600.1" y="686.01" width="22.24" height="22.24"/>
  <rect class="cls-7" x="600.1" y="663.77" width="22.24" height="22.24"/>
  <rect class="cls-9" x="600.1" y="641.53" width="22.24" height="22.24"/>
  <rect class="cls-8" x="600.1" y="619.28" width="22.24" height="22.25"/>
  <rect class="cls-8" x="600.1" y="597.04" width="22.24" height="22.24"/>
  <rect class="cls-7" x="600.1" y="574.8" width="22.24" height="22.24"/>
  <rect class="cls-8" x="600.1" y="552.56" width="22.24" height="22.24"/>
  <rect class="cls-8" x="600.1" y="530.31" width="22.24" height="22.25"/>
  <rect class="cls-7" x="600.1" y="508.07" width="22.24" height="22.24"/>
  <rect class="cls-9" x="600.1" y="485.83" width="22.24" height="22.24"/>
  <rect class="cls-7" x="600.1" y="463.59" width="22.24" height="22.24"/>
  <rect class="cls-6" x="600.1" y="441.34" width="22.24" height="22.25"/>
  <rect class="cls-6" x="600.1" y="419.1" width="22.24" height="22.24"/>
  <rect class="cls-6" x="600.1" y="396.86" width="22.24" height="22.24"/>
  <rect class="cls-11" x="600.1" y="374.62" width="22.24" height="22.24"/>
  <rect class="cls-7" x="600.1" y="352.37" width="22.24" height="22.25"/>
  <rect class="cls-7" x="600.1" y="330.13" width="22.24" height="22.24"/>
  <rect class="cls-5" x="600.1" y="307.89" width="22.24" height="22.24"/>
  <rect class="cls-5" x="600.1" y="285.64" width="22.24" height="22.25"/>
  <rect class="cls-11" x="600.1" y="263.4" width="22.24" height="22.24"/>
  <rect class="cls-7" x="600.1" y="241.16" width="22.24" height="22.24"/>
  <rect class="cls-4" x="600.1" y="218.92" width="22.24" height="22.24"/>
  <rect class="cls-4" x="600.1" y="196.67" width="22.24" height="22.25"/>
  <rect class="cls-7" x="600.1" y="174.43" width="22.24" height="22.24"/>
  <rect class="cls-7" x="577.84" y="841.71" width="22.25" height="22.24"/>
  <rect class="cls-9" x="577.84" y="819.47" width="22.25" height="22.24"/>
  <rect class="cls-9" x="577.84" y="797.23" width="22.25" height="22.24"/>
  <rect class="cls-8" x="577.84" y="774.98" width="22.25" height="22.25"/>
  <rect class="cls-8" x="577.84" y="752.74" width="22.25" height="22.24"/>
  <rect class="cls-8" x="577.84" y="730.5" width="22.25" height="22.24"/>
  <rect class="cls-9" x="577.84" y="708.25" width="22.25" height="22.25"/>
  <rect class="cls-7" x="577.84" y="686.01" width="22.25" height="22.24"/>
  <rect class="cls-8" x="577.84" y="663.77" width="22.25" height="22.24"/>
  <rect class="cls-8" x="577.84" y="641.53" width="22.25" height="22.24"/>
  <rect class="cls-8" x="577.84" y="619.28" width="22.25" height="22.25"/>
  <rect class="cls-8" x="577.84" y="597.04" width="22.25" height="22.24"/>
  <rect class="cls-8" x="577.84" y="574.8" width="22.25" height="22.24"/>
  <rect class="cls-8" x="577.84" y="552.56" width="22.25" height="22.24"/>
  <rect class="cls-7" x="577.84" y="530.31" width="22.25" height="22.25"/>
  <rect class="cls-7" x="577.84" y="508.07" width="22.25" height="22.24"/>
  <rect class="cls-7" x="577.84" y="485.83" width="22.25" height="22.24"/>
  <rect class="cls-7" x="577.84" y="463.59" width="22.25" height="22.24"/>
  <rect class="cls-6" x="577.84" y="441.34" width="22.25" height="22.25"/>
  <rect class="cls-5" x="577.84" y="419.1" width="22.25" height="22.24"/>
  <rect class="cls-11" x="577.84" y="396.86" width="22.25" height="22.24"/>
  <rect class="cls-7" x="577.84" y="374.62" width="22.25" height="22.24"/>
  <rect class="cls-3" x="577.84" y="352.37" width="22.25" height="22.25"/>
  <rect class="cls-3" x="577.84" y="330.13" width="22.25" height="22.24"/>
  <rect class="cls-7" x="577.84" y="307.89" width="22.25" height="22.24"/>
  <rect class="cls-5" x="577.84" y="285.64" width="22.25" height="22.25"/>
  <rect class="cls-5" x="577.84" y="263.4" width="22.25" height="22.24"/>
  <rect class="cls-7" x="577.84" y="241.16" width="22.25" height="22.24"/>
  <rect class="cls-7" x="577.84" y="218.92" width="22.25" height="22.24"/>
  <rect class="cls-4" x="577.84" y="196.67" width="22.25" height="22.25"/>
  <rect class="cls-7" x="577.84" y="174.43" width="22.25" height="22.24"/>
  <rect class="cls-7" x="555.6" y="841.71" width="22.24" height="22.24"/>
  <rect class="cls-9" x="555.6" y="819.47" width="22.24" height="22.24"/>
  <rect class="cls-9" x="555.6" y="797.23" width="22.24" height="22.24"/>
  <rect class="cls-9" x="555.6" y="774.98" width="22.24" height="22.25"/>
  <rect class="cls-9" x="555.6" y="752.74" width="22.24" height="22.24"/>
  <rect class="cls-8" x="555.6" y="730.5" width="22.24" height="22.24"/>
  <rect class="cls-9" x="555.6" y="708.25" width="22.24" height="22.25"/>
  <rect class="cls-7" x="555.6" y="686.01" width="22.24" height="22.24"/>
  <rect class="cls-8" x="555.6" y="663.77" width="22.24" height="22.24"/>
  <rect class="cls-8" x="555.6" y="641.53" width="22.24" height="22.24"/>
  <rect class="cls-8" x="555.6" y="619.28" width="22.24" height="22.25"/>
  <rect class="cls-8" x="555.6" y="597.04" width="22.24" height="22.24"/>
  <rect class="cls-8" x="555.6" y="574.8" width="22.24" height="22.24"/>
  <rect class="cls-7" x="555.6" y="552.56" width="22.24" height="22.24"/>
  <rect class="cls-7" x="555.6" y="530.31" width="22.24" height="22.25"/>
  <rect class="cls-1" x="555.6" y="508.07" width="22.24" height="22.24"/>
  <rect class="cls-1" x="555.6" y="485.83" width="22.24" height="22.24"/>
  <rect class="cls-7" x="555.6" y="463.59" width="22.24" height="22.24"/>
  <rect class="cls-2" x="555.6" y="441.34" width="22.24" height="22.25"/>
  <rect class="cls-7" x="555.6" y="419.1" width="22.24" height="22.24"/>
  <rect class="cls-11" x="555.6" y="396.86" width="22.24" height="22.24"/>
  <rect class="cls-7" x="555.6" y="374.62" width="22.24" height="22.24"/>
  <rect class="cls-7" x="555.6" y="352.37" width="22.24" height="22.25"/>
  <rect class="cls-7" x="555.6" y="330.13" width="22.24" height="22.24"/>
  <rect class="cls-7" x="555.6" y="307.89" width="22.24" height="22.24"/>
  <rect class="cls-5" x="555.6" y="285.64" width="22.24" height="22.25"/>
  <rect class="cls-5" x="555.6" y="263.4" width="22.24" height="22.24"/>
  <rect class="cls-7" x="555.6" y="241.16" width="22.24" height="22.24"/>
  <rect class="cls-4" x="555.6" y="218.92" width="22.24" height="22.24"/>
  <rect class="cls-4" x="555.6" y="196.67" width="22.24" height="22.25"/>
  <rect class="cls-7" x="555.6" y="174.43" width="22.24" height="22.24"/>
  <rect class="cls-7" x="555.6" y="152.19" width="22.24" height="22.24"/>
  <rect class="cls-7" x="533.37" y="841.71" width="22.24" height="22.24"/>
  <rect class="cls-8" x="533.37" y="819.47" width="22.24" height="22.24"/>
  <rect class="cls-7" x="533.37" y="797.23" width="22.24" height="22.24"/>
  <rect class="cls-7" x="533.37" y="774.98" width="22.24" height="22.25"/>
  <rect class="cls-7" x="533.37" y="752.74" width="22.24" height="22.24"/>
  <rect class="cls-8" x="533.37" y="730.5" width="22.24" height="22.24"/>
  <rect class="cls-9" x="533.37" y="708.25" width="22.24" height="22.25"/>
  <rect class="cls-7" x="533.37" y="686.01" width="22.24" height="22.24"/>
  <rect class="cls-8" x="533.37" y="663.77" width="22.24" height="22.24"/>
  <rect class="cls-8" x="533.37" y="641.53" width="22.24" height="22.24"/>
  <rect class="cls-9" x="533.37" y="619.28" width="22.24" height="22.25"/>
  <rect class="cls-9" x="533.37" y="597.04" width="22.24" height="22.24"/>
  <rect class="cls-7" x="533.37" y="574.8" width="22.24" height="22.24"/>
  <rect class="cls-7" x="533.37" y="552.56" width="22.24" height="22.24"/>
  <rect class="cls-10" x="533.37" y="530.31" width="22.24" height="22.25"/>
  <rect class="cls-1" x="533.37" y="508.07" width="22.24" height="22.24"/>
  <rect class="cls-10" x="533.37" y="485.83" width="22.24" height="22.24"/>
  <rect class="cls-7" x="533.37" y="463.59" width="22.24" height="22.24"/>
  <rect class="cls-4" x="533.37" y="441.34" width="22.24" height="22.25"/>
  <rect class="cls-7" x="533.37" y="419.1" width="22.24" height="22.24"/>
  <rect class="cls-5" x="533.37" y="396.86" width="22.24" height="22.24"/>
  <rect class="cls-7" x="533.37" y="374.62" width="22.24" height="22.24"/>
  <rect class="cls-7" x="533.37" y="352.37" width="22.24" height="22.25"/>
  <rect class="cls-7" x="533.37" y="330.13" width="22.24" height="22.24"/>
  <rect class="cls-5" x="533.37" y="307.89" width="22.24" height="22.24"/>
  <rect class="cls-5" x="533.37" y="285.64" width="22.24" height="22.25"/>
  <rect class="cls-7" x="533.37" y="263.4" width="22.24" height="22.24"/>
  <rect class="cls-7" x="533.37" y="241.16" width="22.24" height="22.24"/>
  <rect class="cls-4" x="533.37" y="218.92" width="22.24" height="22.24"/>
  <rect class="cls-4" x="533.37" y="196.67" width="22.24" height="22.25"/>
  <rect class="cls-4" x="533.37" y="174.43" width="22.24" height="22.24"/>
  <rect class="cls-7" x="533.37" y="152.19" width="22.24" height="22.24"/>
  <rect class="cls-7" x="511.13" y="752.74" width="22.24" height="22.24"/>
  <rect class="cls-8" x="511.13" y="730.5" width="22.24" height="22.24"/>
  <rect class="cls-9" x="511.13" y="708.25" width="22.24" height="22.25"/>
  <rect class="cls-7" x="511.13" y="686.01" width="22.24" height="22.24"/>
  <rect class="cls-7" x="511.13" y="663.77" width="22.24" height="22.24"/>
  <rect class="cls-7" x="511.13" y="641.53" width="22.24" height="22.24"/>
  <rect class="cls-7" x="511.13" y="619.28" width="22.24" height="22.25"/>
  <rect class="cls-8" x="511.13" y="597.04" width="22.24" height="22.24"/>
  <rect class="cls-7" x="511.13" y="574.8" width="22.24" height="22.24"/>
  <rect class="cls-10" x="511.13" y="552.56" width="22.24" height="22.24"/>
  <rect class="cls-10" x="511.13" y="530.31" width="22.24" height="22.25"/>
  <rect class="cls-10" x="511.13" y="508.07" width="22.24" height="22.24"/>
  <rect class="cls-10" x="511.13" y="485.83" width="22.24" height="22.24"/>
  <rect class="cls-7" x="511.13" y="463.59" width="22.24" height="22.24"/>
  <rect class="cls-4" x="511.13" y="441.34" width="22.24" height="22.25"/>
  <rect class="cls-7" x="511.13" y="419.1" width="22.24" height="22.24"/>
  <rect class="cls-7" x="511.13" y="396.86" width="22.24" height="22.24"/>
  <rect class="cls-5" x="511.13" y="374.62" width="22.24" height="22.24"/>
  <rect class="cls-7" x="511.13" y="352.37" width="22.24" height="22.25"/>
  <rect class="cls-5" x="511.13" y="330.13" width="22.24" height="22.24"/>
  <rect class="cls-5" x="511.13" y="307.89" width="22.24" height="22.24"/>
  <rect class="cls-5" x="511.13" y="285.64" width="22.24" height="22.25"/>
  <rect class="cls-7" x="511.13" y="263.4" width="22.24" height="22.24"/>
  <rect class="cls-4" x="511.13" y="241.16" width="22.24" height="22.24"/>
  <rect class="cls-6" x="511.13" y="218.92" width="22.24" height="22.24"/>
  <rect class="cls-4" x="511.13" y="196.67" width="22.24" height="22.25"/>
  <rect class="cls-4" x="511.13" y="174.43" width="22.24" height="22.24"/>
  <rect class="cls-7" x="511.13" y="152.19" width="22.24" height="22.24"/>
  <rect class="cls-7" x="488.87" y="841.71" width="22.25" height="22.24"/>
  <rect class="cls-8" x="488.87" y="819.47" width="22.25" height="22.24"/>
  <rect class="cls-7" x="488.87" y="797.23" width="22.25" height="22.24"/>
  <rect class="cls-7" x="488.87" y="774.98" width="22.25" height="22.25"/>
  <rect class="cls-7" x="488.87" y="752.74" width="22.25" height="22.24"/>
  <rect class="cls-8" x="488.87" y="730.5" width="22.25" height="22.24"/>
  <rect class="cls-9" x="488.87" y="708.25" width="22.25" height="22.25"/>
  <rect class="cls-7" x="488.87" y="686.01" width="22.25" height="22.24"/>
  <rect class="cls-9" x="488.87" y="663.77" width="22.25" height="22.24"/>
  <rect class="cls-9" x="488.87" y="641.53" width="22.25" height="22.24"/>
  <rect class="cls-9" x="488.87" y="619.28" width="22.25" height="22.25"/>
  <rect class="cls-8" x="488.87" y="597.04" width="22.25" height="22.24"/>
  <rect class="cls-7" x="488.87" y="574.8" width="22.25" height="22.24"/>
  <rect class="cls-7" x="488.87" y="552.56" width="22.25" height="22.24"/>
  <rect class="cls-10" x="488.87" y="530.31" width="22.25" height="22.25"/>
  <rect class="cls-1" x="488.87" y="508.07" width="22.25" height="22.24"/>
  <rect class="cls-10" x="488.87" y="485.83" width="22.25" height="22.24"/>
  <rect class="cls-7" x="488.87" y="463.59" width="22.25" height="22.24"/>
  <rect class="cls-2" x="488.87" y="441.34" width="22.25" height="22.25"/>
  <rect class="cls-7" x="488.87" y="419.1" width="22.25" height="22.24"/>
  <rect class="cls-5" x="488.87" y="396.86" width="22.25" height="22.24"/>
  <rect class="cls-5" x="488.87" y="374.62" width="22.25" height="22.24"/>
  <rect class="cls-5" x="488.87" y="352.37" width="22.25" height="22.25"/>
  <rect class="cls-5" x="488.87" y="330.13" width="22.25" height="22.24"/>
  <rect class="cls-5" x="488.87" y="307.89" width="22.25" height="22.24"/>
  <rect class="cls-5" x="488.87" y="285.64" width="22.25" height="22.25"/>
  <rect class="cls-7" x="488.87" y="263.4" width="22.25" height="22.24"/>
  <rect class="cls-4" x="488.87" y="241.16" width="22.25" height="22.24"/>
  <rect class="cls-4" x="488.87" y="218.92" width="22.25" height="22.24"/>
  <rect class="cls-4" x="488.87" y="196.67" width="22.25" height="22.25"/>
  <rect class="cls-4" x="488.87" y="174.43" width="22.25" height="22.24"/>
  <rect class="cls-7" x="488.87" y="152.19" width="22.25" height="22.24"/>
  <rect class="cls-7" x="466.63" y="841.71" width="22.24" height="22.24"/>
  <rect class="cls-9" x="466.63" y="819.47" width="22.24" height="22.24"/>
  <rect class="cls-9" x="466.63" y="797.23" width="22.24" height="22.24"/>
  <rect class="cls-9" x="466.63" y="774.98" width="22.24" height="22.25"/>
  <rect class="cls-9" x="466.63" y="752.74" width="22.24" height="22.24"/>
  <rect class="cls-8" x="466.63" y="730.5" width="22.24" height="22.24"/>
  <rect class="cls-9" x="466.63" y="708.25" width="22.24" height="22.25"/>
  <rect class="cls-7" x="466.63" y="686.01" width="22.24" height="22.24"/>
  <rect class="cls-8" x="466.63" y="663.77" width="22.24" height="22.24"/>
  <rect class="cls-8" x="466.63" y="641.53" width="22.24" height="22.24"/>
  <rect class="cls-8" x="466.63" y="619.28" width="22.24" height="22.25"/>
  <rect class="cls-8" x="466.63" y="597.04" width="22.24" height="22.24"/>
  <rect class="cls-9" x="466.63" y="574.8" width="22.24" height="22.24"/>
  <rect class="cls-7" x="466.63" y="552.56" width="22.24" height="22.24"/>
  <rect class="cls-7" x="466.63" y="530.31" width="22.24" height="22.25"/>
  <rect class="cls-1" x="466.63" y="508.07" width="22.24" height="22.24"/>
  <rect class="cls-1" x="466.63" y="485.83" width="22.24" height="22.24"/>
  <rect class="cls-7" x="466.63" y="463.59" width="22.24" height="22.24"/>
  <rect class="cls-4" x="466.63" y="441.34" width="22.24" height="22.25"/>
  <rect class="cls-7" x="466.63" y="419.1" width="22.24" height="22.24"/>
  <rect class="cls-7" x="466.63" y="396.86" width="22.24" height="22.24"/>
  <rect class="cls-5" x="466.63" y="374.62" width="22.24" height="22.24"/>
  <rect class="cls-7" x="466.63" y="352.37" width="22.24" height="22.25"/>
  <rect class="cls-5" x="466.63" y="330.13" width="22.24" height="22.24"/>
  <rect class="cls-5" x="466.63" y="307.89" width="22.24" height="22.24"/>
  <rect class="cls-5" x="466.63" y="285.64" width="22.24" height="22.25"/>
  <rect class="cls-7" x="466.63" y="263.4" width="22.24" height="22.24"/>
  <rect class="cls-6" x="466.63" y="241.16" width="22.24" height="22.24"/>
  <rect class="cls-4" x="466.63" y="218.92" width="22.24" height="22.24"/>
  <rect class="cls-4" x="466.63" y="196.67" width="22.24" height="22.25"/>
  <rect class="cls-4" x="466.63" y="174.43" width="22.24" height="22.24"/>
  <rect class="cls-7" x="466.63" y="152.19" width="22.24" height="22.24"/>
  <rect class="cls-7" x="444.4" y="841.71" width="22.24" height="22.24"/>
  <rect class="cls-9" x="444.4" y="819.47" width="22.24" height="22.24"/>
  <rect class="cls-7" x="444.4" y="797.23" width="22.24" height="22.24"/>
  <rect class="cls-8" x="444.4" y="774.98" width="22.24" height="22.25"/>
  <rect class="cls-8" x="444.4" y="752.74" width="22.24" height="22.24"/>
  <rect class="cls-8" x="444.4" y="730.5" width="22.24" height="22.24"/>
  <rect class="cls-9" x="444.4" y="708.25" width="22.24" height="22.25"/>
  <rect class="cls-7" x="444.4" y="686.01" width="22.24" height="22.24"/>
  <rect class="cls-7" x="444.4" y="663.77" width="22.24" height="22.24"/>
  <rect class="cls-7" x="444.4" y="641.53" width="22.24" height="22.24"/>
  <rect class="cls-8" x="444.4" y="619.28" width="22.24" height="22.25"/>
  <rect class="cls-8" x="444.4" y="597.04" width="22.24" height="22.24"/>
  <rect class="cls-8" x="444.4" y="574.8" width="22.24" height="22.24"/>
  <rect class="cls-7" x="444.4" y="552.56" width="22.24" height="22.24"/>
  <rect class="cls-8" x="444.4" y="530.31" width="22.24" height="22.25"/>
  <rect class="cls-7" x="444.4" y="508.07" width="22.24" height="22.24"/>
  <rect class="cls-7" x="444.4" y="485.83" width="22.24" height="22.24"/>
  <rect class="cls-7" x="444.4" y="463.59" width="22.24" height="22.24"/>
  <rect class="cls-7" x="444.4" y="441.34" width="22.24" height="22.25"/>
  <rect class="cls-7" x="444.4" y="419.1" width="22.24" height="22.24"/>
  <rect class="cls-5" x="444.4" y="396.86" width="22.24" height="22.24"/>
  <rect class="cls-7" x="444.4" y="374.62" width="22.24" height="22.24"/>
  <rect class="cls-3" x="444.4" y="352.37" width="22.24" height="22.25"/>
  <rect class="cls-7" x="444.4" y="330.13" width="22.24" height="22.24"/>
  <rect class="cls-5" x="444.4" y="307.89" width="22.24" height="22.24"/>
  <rect class="cls-5" x="444.4" y="285.64" width="22.24" height="22.25"/>
  <rect class="cls-7" x="444.4" y="263.4" width="22.24" height="22.24"/>
  <rect class="cls-7" x="444.4" y="241.16" width="22.24" height="22.24"/>
  <rect class="cls-4" x="444.4" y="218.92" width="22.24" height="22.24"/>
  <rect class="cls-4" x="444.4" y="196.67" width="22.24" height="22.25"/>
  <rect class="cls-4" x="444.4" y="174.43" width="22.24" height="22.24"/>
  <rect class="cls-7" x="444.4" y="152.19" width="22.24" height="22.24"/>
  <rect class="cls-7" x="422.16" y="841.71" width="22.24" height="22.24"/>
  <rect class="cls-9" x="422.16" y="819.47" width="22.24" height="22.24"/>
  <rect class="cls-7" x="422.16" y="797.23" width="22.24" height="22.24"/>
  <rect class="cls-8" x="422.16" y="774.98" width="22.24" height="22.25"/>
  <rect class="cls-8" x="422.16" y="752.74" width="22.24" height="22.24"/>
  <rect class="cls-8" x="422.16" y="730.5" width="22.24" height="22.24"/>
  <rect class="cls-9" x="422.16" y="708.25" width="22.24" height="22.25"/>
  <rect class="cls-7" x="422.16" y="686.01" width="22.24" height="22.24"/>
  <rect class="cls-6" x="422.16" y="663.77" width="22.24" height="22.24"/>
  <rect class="cls-5" x="422.16" y="641.53" width="22.24" height="22.24"/>
  <rect class="cls-8" x="422.16" y="619.28" width="22.24" height="22.25"/>
  <rect class="cls-9" x="422.16" y="597.04" width="22.24" height="22.24"/>
  <rect class="cls-8" x="422.16" y="574.8" width="22.24" height="22.24"/>
  <rect class="cls-9" x="422.16" y="552.56" width="22.24" height="22.24"/>
  <rect class="cls-7" x="422.16" y="530.31" width="22.24" height="22.25"/>
  <rect class="cls-8" x="422.16" y="508.07" width="22.24" height="22.24"/>
  <rect class="cls-8" x="422.16" y="485.83" width="22.24" height="22.24"/>
  <rect class="cls-7" x="422.16" y="463.59" width="22.24" height="22.24"/>
  <rect class="cls-11" x="422.16" y="441.34" width="22.24" height="22.25"/>
  <rect class="cls-7" x="422.16" y="419.1" width="22.24" height="22.24"/>
  <rect class="cls-6" x="422.16" y="396.86" width="22.24" height="22.24"/>
  <rect class="cls-7" x="422.16" y="374.62" width="22.24" height="22.24"/>
  <rect class="cls-7" x="422.16" y="352.37" width="22.24" height="22.25"/>
  <rect class="cls-7" x="422.16" y="330.13" width="22.24" height="22.24"/>
  <rect class="cls-7" x="422.16" y="307.89" width="22.24" height="22.24"/>
  <rect class="cls-5" x="422.16" y="285.64" width="22.24" height="22.25"/>
  <rect class="cls-5" x="422.16" y="263.4" width="22.24" height="22.24"/>
  <rect class="cls-7" x="422.16" y="241.16" width="22.24" height="22.24"/>
  <rect class="cls-7" x="422.16" y="218.92" width="22.24" height="22.24"/>
  <rect class="cls-4" x="422.16" y="196.67" width="22.24" height="22.25"/>
  <rect class="cls-4" x="422.16" y="174.43" width="22.24" height="22.24"/>
  <rect class="cls-7" x="422.16" y="152.19" width="22.24" height="22.24"/>
  <rect class="cls-7" x="399.9" y="841.71" width="22.25" height="22.24"/>
  <rect class="cls-9" x="399.9" y="819.47" width="22.25" height="22.24"/>
  <rect class="cls-7" x="399.9" y="797.23" width="22.25" height="22.24"/>
  <rect class="cls-7" x="399.9" y="774.98" width="22.25" height="22.25"/>
  <rect class="cls-7" x="399.9" y="752.74" width="22.25" height="22.24"/>
  <rect class="cls-7" x="399.9" y="730.5" width="22.25" height="22.24"/>
  <rect class="cls-7" x="399.9" y="708.25" width="22.25" height="22.25"/>
  <rect class="cls-7" x="399.9" y="686.01" width="22.25" height="22.24"/>
  <rect class="cls-7" x="399.9" y="663.77" width="22.25" height="22.24"/>
  <rect class="cls-5" x="399.9" y="641.53" width="22.25" height="22.24"/>
  <rect class="cls-9" x="399.9" y="619.28" width="22.25" height="22.25"/>
  <rect class="cls-9" x="399.9" y="597.04" width="22.25" height="22.24"/>
  <rect class="cls-9" x="399.9" y="574.8" width="22.25" height="22.24"/>
  <rect class="cls-8" x="399.9" y="552.56" width="22.25" height="22.24"/>
  <rect class="cls-9" x="399.9" y="530.31" width="22.25" height="22.25"/>
  <rect class="cls-7" x="399.9" y="508.07" width="22.25" height="22.24"/>
  <rect class="cls-7" x="399.9" y="485.83" width="22.25" height="22.24"/>
  <rect class="cls-7" x="399.9" y="463.59" width="22.25" height="22.24"/>
  <rect class="cls-11" x="399.9" y="441.34" width="22.25" height="22.25"/>
  <rect class="cls-5" x="399.9" y="419.1" width="22.25" height="22.24"/>
  <rect class="cls-5" x="399.9" y="396.86" width="22.25" height="22.24"/>
  <rect class="cls-7" x="399.9" y="374.62" width="22.25" height="22.24"/>
  <rect class="cls-3" x="399.9" y="352.37" width="22.25" height="22.25"/>
  <rect class="cls-3" x="399.9" y="330.13" width="22.25" height="22.24"/>
  <rect class="cls-7" x="399.9" y="307.89" width="22.25" height="22.24"/>
  <rect class="cls-5" x="399.9" y="285.64" width="22.25" height="22.25"/>
  <rect class="cls-6" x="399.9" y="263.4" width="22.25" height="22.24"/>
  <rect class="cls-5" x="399.9" y="241.16" width="22.25" height="22.24"/>
  <rect class="cls-7" x="399.9" y="218.92" width="22.25" height="22.24"/>
  <rect class="cls-4" x="399.9" y="196.67" width="22.25" height="22.25"/>
  <rect class="cls-7" x="399.9" y="174.43" width="22.25" height="22.24"/>
  <rect class="cls-7" x="399.9" y="152.19" width="22.25" height="22.24"/>
  <rect class="cls-7" x="377.67" y="841.71" width="22.24" height="22.24"/>
  <rect class="cls-7" x="377.67" y="819.47" width="22.24" height="22.24"/>
  <rect class="cls-7" x="377.67" y="686.01" width="22.24" height="22.24"/>
  <rect class="cls-11" x="377.67" y="663.77" width="22.24" height="22.24"/>
  <rect class="cls-5" x="377.67" y="641.53" width="22.24" height="22.24"/>
  <rect class="cls-7" x="377.67" y="619.28" width="22.24" height="22.25"/>
  <rect class="cls-7" x="377.67" y="597.04" width="22.24" height="22.24"/>
  <rect class="cls-8" x="377.67" y="574.8" width="22.24" height="22.24"/>
  <rect class="cls-8" x="377.67" y="552.56" width="22.24" height="22.24"/>
  <rect class="cls-8" x="377.67" y="530.31" width="22.24" height="22.25"/>
  <rect class="cls-9" x="377.67" y="508.07" width="22.24" height="22.24"/>
  <rect class="cls-7" x="377.67" y="485.83" width="22.24" height="22.24"/>
  <rect class="cls-7" x="377.67" y="463.59" width="22.24" height="22.24"/>
  <rect class="cls-7" x="377.67" y="441.34" width="22.24" height="22.25"/>
  <rect class="cls-5" x="377.67" y="419.1" width="22.24" height="22.24"/>
  <rect class="cls-6" x="377.67" y="396.86" width="22.24" height="22.24"/>
  <rect class="cls-11" x="377.67" y="374.62" width="22.24" height="22.24"/>
  <rect class="cls-11" x="377.67" y="352.37" width="22.24" height="22.25"/>
  <rect class="cls-7" x="377.67" y="330.13" width="22.24" height="22.24"/>
  <rect class="cls-5" x="377.67" y="307.89" width="22.24" height="22.24"/>
  <rect class="cls-6" x="377.67" y="285.64" width="22.24" height="22.25"/>
  <rect class="cls-6" x="377.67" y="263.4" width="22.24" height="22.24"/>
  <rect class="cls-7" x="377.67" y="241.16" width="22.24" height="22.24"/>
  <rect class="cls-7" x="377.67" y="218.92" width="22.24" height="22.24"/>
  <rect class="cls-4" x="377.67" y="196.67" width="22.24" height="22.25"/>
  <rect class="cls-7" x="377.67" y="174.43" width="22.24" height="22.24"/>
  <rect class="cls-7" x="355.43" y="686.01" width="22.24" height="22.24"/>
  <rect class="cls-11" x="355.43" y="663.77" width="22.24" height="22.24"/>
  <rect class="cls-7" x="355.43" y="641.53" width="22.24" height="22.24"/>
  <rect class="cls-8" x="355.43" y="619.28" width="22.24" height="22.25"/>
  <rect class="cls-8" x="355.43" y="597.04" width="22.24" height="22.24"/>
  <rect class="cls-7" x="355.43" y="574.8" width="22.24" height="22.24"/>
  <rect class="cls-8" x="355.43" y="552.56" width="22.24" height="22.24"/>
  <rect class="cls-8" x="355.43" y="530.31" width="22.24" height="22.25"/>
  <rect class="cls-9" x="355.43" y="508.07" width="22.24" height="22.24"/>
  <rect class="cls-7" x="355.43" y="485.83" width="22.24" height="22.24"/>
  <rect class="cls-7" x="355.43" y="441.34" width="22.24" height="22.25"/>
  <rect class="cls-7" x="355.43" y="419.1" width="22.24" height="22.24"/>
  <rect class="cls-5" x="355.43" y="396.86" width="22.24" height="22.24"/>
  <rect class="cls-5" x="355.43" y="374.62" width="22.24" height="22.24"/>
  <rect class="cls-11" x="355.43" y="352.37" width="22.24" height="22.25"/>
  <rect class="cls-7" x="355.43" y="330.13" width="22.24" height="22.24"/>
  <rect class="cls-6" x="355.43" y="307.89" width="22.24" height="22.24"/>
  <rect class="cls-6" x="355.43" y="285.64" width="22.24" height="22.25"/>
  <rect class="cls-7" x="355.43" y="263.4" width="22.24" height="22.24"/>
  <rect class="cls-4" x="355.43" y="241.16" width="22.24" height="22.24"/>
  <rect class="cls-4" x="355.43" y="218.92" width="22.24" height="22.24"/>
  <rect class="cls-7" x="355.43" y="196.67" width="22.24" height="22.25"/>
  <rect class="cls-7" x="355.43" y="174.43" width="22.24" height="22.24"/>
  <rect class="cls-7" x="333.19" y="686.01" width="22.24" height="22.24"/>
  <rect class="cls-7" x="333.19" y="663.77" width="22.24" height="22.24"/>
  <rect class="cls-7" x="333.19" y="641.53" width="22.24" height="22.24"/>
  <rect class="cls-9" x="333.19" y="619.28" width="22.24" height="22.25"/>
  <rect class="cls-8" x="333.19" y="597.04" width="22.24" height="22.24"/>
  <rect class="cls-8" x="333.19" y="574.8" width="22.24" height="22.24"/>
  <rect class="cls-8" x="333.19" y="552.56" width="22.24" height="22.24"/>
  <rect class="cls-8" x="333.19" y="530.31" width="22.24" height="22.25"/>
  <rect class="cls-7" x="333.19" y="508.07" width="22.24" height="22.24"/>
  <rect class="cls-7" x="333.19" y="419.1" width="22.24" height="22.24"/>
  <rect class="cls-7" x="333.19" y="396.86" width="22.24" height="22.24"/>
  <rect class="cls-7" x="333.19" y="374.62" width="22.24" height="22.24"/>
  <rect class="cls-11" x="333.19" y="352.37" width="22.24" height="22.25"/>
  <rect class="cls-5" x="333.19" y="330.13" width="22.24" height="22.24"/>
  <rect class="cls-6" x="333.19" y="307.89" width="22.24" height="22.24"/>
  <rect class="cls-7" x="333.19" y="285.64" width="22.24" height="22.25"/>
  <rect class="cls-4" x="333.19" y="263.4" width="22.24" height="22.24"/>
  <rect class="cls-4" x="333.19" y="241.16" width="22.24" height="22.24"/>
  <rect class="cls-7" x="333.19" y="218.92" width="22.24" height="22.24"/>
  <rect class="cls-7" x="333.19" y="196.67" width="22.24" height="22.25"/>
  <rect class="cls-7" x="310.94" y="619.28" width="22.25" height="22.25"/>
  <rect class="cls-8" x="310.94" y="597.04" width="22.25" height="22.24"/>
  <rect class="cls-8" x="310.94" y="574.8" width="22.25" height="22.24"/>
  <rect class="cls-8" x="310.94" y="552.56" width="22.25" height="22.24"/>
  <rect class="cls-7" x="310.94" y="530.31" width="22.25" height="22.25"/>
  <rect class="cls-7" x="310.94" y="352.37" width="22.25" height="22.25"/>
  <rect class="cls-5" x="310.94" y="330.13" width="22.25" height="22.24"/>
  <rect class="cls-5" x="310.94" y="307.89" width="22.25" height="22.24"/>
  <rect class="cls-7" x="310.94" y="285.64" width="22.25" height="22.25"/>
  <rect class="cls-7" x="310.94" y="263.4" width="22.25" height="22.24"/>
  <rect class="cls-7" x="310.94" y="241.16" width="22.25" height="22.24"/>
  <rect class="cls-7" x="310.94" y="218.92" width="22.25" height="22.24"/>
  <rect class="cls-7" x="288.7" y="597.04" width="22.24" height="22.24"/>
  <rect class="cls-7" x="288.7" y="574.8" width="22.24" height="22.24"/>
  <rect class="cls-7" x="288.7" y="552.56" width="22.24" height="22.24"/>
  <rect class="cls-7" x="288.7" y="352.37" width="22.24" height="22.25"/>
  <rect class="cls-7" x="288.7" y="330.13" width="22.24" height="22.24"/>
  <rect class="cls-7" x="288.7" y="307.89" width="22.24" height="22.24"/>
  <rect class="cls-7" x="288.7" y="285.64" width="22.24" height="22.25"/>
</svg>