<?xml version="1.0" encoding="UTF-8"?>
<svg id="_圖層_2" data-name="圖層 2" xmlns="http://www.w3.org/2000/svg" viewBox="0 0 1000 1000">
  <defs>
    <style>
      .cls-1 {
        fill: #fff;
      }

      .cls-2 {
        fill: #927577;
      }

      .cls-3 {
        fill: #a03237;
      }

      .cls-4 {
        fill: #8e3e49;
      }

      .cls-5 {
        fill: #acd4b0;
      }

      .cls-6 {
        fill: #d6ead7;
      }

      .cls-7 {
        fill: #caaa7a;
      }

      .cls-8 {
        fill: #6d4641;
      }

      .cls-9 {
        fill: #5c5861;
      }

      .cls-10 {
        fill: #2d232d;
      }

      .cls-11 {
        fill: #3d3544;
      }

      .cls-12 {
        fill: #3c3644;
      }

      .cls-13 {
        fill: #4e7b57;
      }
    </style>
  </defs>
  <rect class="cls-10" x="822.39" y="546.06" width="18.42" height="18.42"/>
  <rect class="cls-10" x="822.39" y="527.63" width="18.42" height="18.43"/>
  <rect class="cls-10" x="822.39" y="509.21" width="18.42" height="18.42"/>
  <rect class="cls-10" x="822.39" y="490.79" width="18.42" height="18.42"/>
  <rect class="cls-10" x="803.96" y="564.48" width="18.43" height="18.42"/>
  <rect class="cls-13" x="803.96" y="546.06" width="18.43" height="18.42"/>
  <rect class="cls-5" x="803.96" y="527.63" width="18.43" height="18.43"/>
  <rect class="cls-6" x="803.96" y="509.21" width="18.43" height="18.42"/>
  <rect class="cls-10" x="803.96" y="490.79" width="18.43" height="18.42"/>
  <rect class="cls-10" x="785.54" y="546.06" width="18.42" height="18.42"/>
  <rect class="cls-10" x="785.54" y="527.63" width="18.42" height="18.43"/>
  <rect class="cls-5" x="785.54" y="509.21" width="18.42" height="18.42"/>
  <rect class="cls-10" x="785.54" y="490.79" width="18.42" height="18.42"/>
  <rect class="cls-10" x="767.12" y="564.48" width="18.42" height="18.42"/>
  <rect class="cls-13" x="767.12" y="546.06" width="18.42" height="18.42"/>
  <rect class="cls-5" x="767.12" y="527.63" width="18.42" height="18.43"/>
  <rect class="cls-5" x="767.12" y="509.21" width="18.42" height="18.42"/>
  <rect class="cls-10" x="767.12" y="490.79" width="18.42" height="18.42"/>
  <rect class="cls-10" x="748.7" y="748.7" width="18.42" height="18.42"/>
  <rect class="cls-10" x="748.7" y="730.28" width="18.42" height="18.42"/>
  <rect class="cls-10" x="748.7" y="546.06" width="18.42" height="18.42"/>
  <rect class="cls-10" x="748.7" y="527.63" width="18.42" height="18.43"/>
  <rect class="cls-5" x="748.7" y="509.21" width="18.42" height="18.42"/>
  <rect class="cls-10" x="748.7" y="490.79" width="18.42" height="18.42"/>
  <rect class="cls-10" x="730.28" y="767.12" width="18.42" height="18.42"/>
  <rect class="cls-13" x="730.28" y="748.7" width="18.42" height="18.42"/>
  <rect class="cls-10" x="730.28" y="730.28" width="18.42" height="18.42"/>
  <rect class="cls-10" x="730.28" y="711.85" width="18.42" height="18.43"/>
  <rect class="cls-10" x="730.28" y="564.48" width="18.42" height="18.42"/>
  <rect class="cls-13" x="730.28" y="546.06" width="18.42" height="18.42"/>
  <rect class="cls-5" x="730.28" y="527.63" width="18.42" height="18.43"/>
  <rect class="cls-5" x="730.28" y="509.21" width="18.42" height="18.42"/>
  <rect class="cls-10" x="730.28" y="490.79" width="18.42" height="18.42"/>
  <rect class="cls-10" x="711.85" y="767.12" width="18.43" height="18.42"/>
  <rect class="cls-10" x="711.85" y="748.7" width="18.43" height="18.42"/>
  <rect class="cls-5" x="711.85" y="730.28" width="18.43" height="18.42"/>
  <rect class="cls-10" x="711.85" y="711.85" width="18.43" height="18.43"/>
  <rect class="cls-10" x="711.85" y="546.06" width="18.43" height="18.42"/>
  <rect class="cls-10" x="711.85" y="527.63" width="18.43" height="18.43"/>
  <rect class="cls-5" x="711.85" y="509.21" width="18.43" height="18.42"/>
  <rect class="cls-10" x="711.85" y="490.79" width="18.43" height="18.42"/>
  <rect class="cls-10" x="693.43" y="767.12" width="18.42" height="18.42"/>
  <rect class="cls-13" x="693.43" y="748.7" width="18.42" height="18.42"/>
  <rect class="cls-5" x="693.43" y="730.28" width="18.42" height="18.42"/>
  <rect class="cls-10" x="693.43" y="711.85" width="18.42" height="18.43"/>
  <rect class="cls-10" x="693.43" y="693.43" width="18.42" height="18.42"/>
  <rect class="cls-10" x="693.43" y="675.01" width="18.42" height="18.42"/>
  <rect class="cls-10" x="693.43" y="582.9" width="18.42" height="18.42"/>
  <rect class="cls-11" x="693.43" y="564.48" width="18.42" height="18.42"/>
  <rect class="cls-10" x="693.43" y="546.06" width="18.42" height="18.42"/>
  <rect class="cls-10" x="693.43" y="527.63" width="18.42" height="18.43"/>
  <rect class="cls-11" x="693.43" y="509.21" width="18.42" height="18.42"/>
  <rect class="cls-10" x="693.43" y="490.79" width="18.42" height="18.42"/>
  <rect class="cls-12" x="693.43" y="380.26" width="18.42" height="18.42"/>
  <rect class="cls-12" x="693.43" y="361.83" width="18.42" height="18.43"/>
  <rect class="cls-10" x="675.01" y="767.12" width="18.42" height="18.42"/>
  <rect class="cls-10" x="675.01" y="748.7" width="18.42" height="18.42"/>
  <rect class="cls-5" x="675.01" y="730.28" width="18.42" height="18.42"/>
  <rect class="cls-6" x="675.01" y="711.85" width="18.42" height="18.43"/>
  <rect class="cls-8" x="675.01" y="693.43" width="18.42" height="18.42"/>
  <rect class="cls-10" x="675.01" y="675.01" width="18.42" height="18.42"/>
  <rect class="cls-10" x="675.01" y="656.59" width="18.42" height="18.42"/>
  <rect class="cls-10" x="675.01" y="582.9" width="18.42" height="18.42"/>
  <rect class="cls-10" x="675.01" y="564.48" width="18.42" height="18.42"/>
  <rect class="cls-10" x="675.01" y="546.06" width="18.42" height="18.42"/>
  <rect class="cls-10" x="675.01" y="527.63" width="18.42" height="18.43"/>
  <rect class="cls-11" x="675.01" y="509.21" width="18.42" height="18.42"/>
  <rect class="cls-10" x="675.01" y="490.79" width="18.42" height="18.42"/>
  <rect class="cls-12" x="675.01" y="398.68" width="18.42" height="18.42"/>
  <rect class="cls-12" x="675.01" y="380.26" width="18.42" height="18.42"/>
  <rect class="cls-13" x="675.01" y="361.83" width="18.42" height="18.43"/>
  <rect class="cls-12" x="675.01" y="343.41" width="18.42" height="18.42"/>
  <rect class="cls-10" x="656.59" y="767.12" width="18.42" height="18.42"/>
  <rect class="cls-13" x="656.59" y="748.7" width="18.42" height="18.42"/>
  <rect class="cls-5" x="656.59" y="730.28" width="18.42" height="18.42"/>
  <rect class="cls-2" x="656.59" y="711.85" width="18.42" height="18.43"/>
  <rect class="cls-2" x="656.59" y="693.43" width="18.42" height="18.42"/>
  <rect class="cls-2" x="656.59" y="675.01" width="18.42" height="18.42"/>
  <rect class="cls-10" x="656.59" y="656.59" width="18.42" height="18.42"/>
  <rect class="cls-10" x="656.59" y="638.17" width="18.42" height="18.42"/>
  <rect class="cls-10" x="656.59" y="619.74" width="18.42" height="18.43"/>
  <rect class="cls-10" x="656.59" y="564.48" width="18.42" height="18.42"/>
  <rect class="cls-11" x="656.59" y="546.06" width="18.42" height="18.42"/>
  <rect class="cls-11" x="656.59" y="527.63" width="18.42" height="18.43"/>
  <rect class="cls-11" x="656.59" y="509.21" width="18.42" height="18.42"/>
  <rect class="cls-10" x="656.59" y="490.79" width="18.42" height="18.42"/>
  <rect class="cls-10" x="656.59" y="472.37" width="18.42" height="18.42"/>
  <rect class="cls-12" x="656.59" y="435.52" width="18.42" height="18.42"/>
  <rect class="cls-12" x="656.59" y="417.1" width="18.42" height="18.42"/>
  <rect class="cls-13" x="656.59" y="398.68" width="18.42" height="18.42"/>
  <rect class="cls-5" x="656.59" y="380.26" width="18.42" height="18.42"/>
  <rect class="cls-6" x="656.59" y="361.83" width="18.42" height="18.43"/>
  <rect class="cls-5" x="656.59" y="343.41" width="18.42" height="18.42"/>
  <rect class="cls-12" x="656.59" y="324.99" width="18.42" height="18.42"/>
  <rect class="cls-12" x="656.59" y="306.57" width="18.42" height="18.42"/>
  <rect class="cls-12" x="656.59" y="269.72" width="18.42" height="18.43"/>
  <rect class="cls-10" x="638.17" y="767.12" width="18.42" height="18.42"/>
  <rect class="cls-10" x="638.17" y="748.7" width="18.42" height="18.42"/>
  <rect class="cls-5" x="638.17" y="730.28" width="18.42" height="18.42"/>
  <rect class="cls-2" x="638.17" y="711.85" width="18.42" height="18.43"/>
  <rect class="cls-2" x="638.17" y="693.43" width="18.42" height="18.42"/>
  <rect class="cls-2" x="638.17" y="675.01" width="18.42" height="18.42"/>
  <rect class="cls-2" x="638.17" y="656.59" width="18.42" height="18.42"/>
  <rect class="cls-8" x="638.17" y="638.17" width="18.42" height="18.42"/>
  <rect class="cls-10" x="638.17" y="619.74" width="18.42" height="18.43"/>
  <rect class="cls-10" x="638.17" y="601.32" width="18.42" height="18.42"/>
  <rect class="cls-10" x="638.17" y="564.48" width="18.42" height="18.42"/>
  <rect class="cls-11" x="638.17" y="546.06" width="18.42" height="18.42"/>
  <rect class="cls-11" x="638.17" y="527.63" width="18.42" height="18.43"/>
  <rect class="cls-11" x="638.17" y="509.21" width="18.42" height="18.42"/>
  <rect class="cls-11" x="638.17" y="490.79" width="18.42" height="18.42"/>
  <rect class="cls-10" x="638.17" y="472.37" width="18.42" height="18.42"/>
  <rect class="cls-12" x="638.17" y="453.94" width="18.42" height="18.43"/>
  <rect class="cls-13" x="638.17" y="435.52" width="18.42" height="18.42"/>
  <rect class="cls-5" x="638.17" y="417.1" width="18.42" height="18.42"/>
  <rect class="cls-5" x="638.17" y="398.68" width="18.42" height="18.42"/>
  <rect class="cls-5" x="638.17" y="380.26" width="18.42" height="18.42"/>
  <rect class="cls-5" x="638.17" y="361.83" width="18.42" height="18.43"/>
  <rect class="cls-5" x="638.17" y="343.41" width="18.42" height="18.42"/>
  <rect class="cls-12" x="638.17" y="324.99" width="18.42" height="18.42"/>
  <rect class="cls-5" x="638.17" y="306.57" width="18.42" height="18.42"/>
  <rect class="cls-12" x="638.17" y="288.15" width="18.42" height="18.42"/>
  <rect class="cls-6" x="638.17" y="269.72" width="18.42" height="18.43"/>
  <rect class="cls-12" x="638.17" y="251.3" width="18.42" height="18.42"/>
  <rect class="cls-12" x="638.17" y="232.88" width="18.42" height="18.42"/>
  <rect class="cls-10" x="619.74" y="767.12" width="18.43" height="18.42"/>
  <rect class="cls-13" x="619.74" y="748.7" width="18.43" height="18.42"/>
  <rect class="cls-5" x="619.74" y="730.28" width="18.43" height="18.42"/>
  <rect class="cls-6" x="619.74" y="711.85" width="18.43" height="18.43"/>
  <rect class="cls-2" x="619.74" y="693.43" width="18.43" height="18.42"/>
  <rect class="cls-5" x="619.74" y="675.01" width="18.43" height="18.42"/>
  <rect class="cls-2" x="619.74" y="656.59" width="18.43" height="18.42"/>
  <rect class="cls-8" x="619.74" y="638.17" width="18.43" height="18.42"/>
  <rect class="cls-10" x="619.74" y="619.74" width="18.43" height="18.43"/>
  <rect class="cls-10" x="619.74" y="601.32" width="18.43" height="18.42"/>
  <rect class="cls-10" x="619.74" y="582.9" width="18.43" height="18.42"/>
  <rect class="cls-10" x="619.74" y="564.48" width="18.43" height="18.42"/>
  <rect class="cls-9" x="619.74" y="546.06" width="18.43" height="18.42"/>
  <rect class="cls-9" x="619.74" y="527.63" width="18.43" height="18.43"/>
  <rect class="cls-11" x="619.74" y="509.21" width="18.43" height="18.42"/>
  <rect class="cls-10" x="619.74" y="490.79" width="18.43" height="18.42"/>
  <rect class="cls-10" x="619.74" y="472.37" width="18.43" height="18.42"/>
  <rect class="cls-13" x="619.74" y="453.94" width="18.43" height="18.43"/>
  <rect class="cls-6" x="619.74" y="435.52" width="18.43" height="18.42"/>
  <rect class="cls-5" x="619.74" y="417.1" width="18.43" height="18.42"/>
  <rect class="cls-5" x="619.74" y="398.68" width="18.43" height="18.42"/>
  <rect class="cls-5" x="619.74" y="380.26" width="18.43" height="18.42"/>
  <rect class="cls-13" x="619.74" y="361.83" width="18.43" height="18.43"/>
  <rect class="cls-5" x="619.74" y="343.41" width="18.43" height="18.42"/>
  <rect class="cls-5" x="619.74" y="324.99" width="18.43" height="18.42"/>
  <rect class="cls-6" x="619.74" y="306.57" width="18.43" height="18.42"/>
  <rect class="cls-5" x="619.74" y="288.15" width="18.43" height="18.42"/>
  <rect class="cls-5" x="619.74" y="269.72" width="18.43" height="18.43"/>
  <rect class="cls-3" x="619.74" y="251.3" width="18.43" height="18.42"/>
  <rect class="cls-3" x="619.74" y="232.88" width="18.43" height="18.42"/>
  <rect class="cls-12" x="619.74" y="214.46" width="18.43" height="18.42"/>
  <rect class="cls-12" x="619.74" y="196.04" width="18.43" height="18.42"/>
  <rect class="cls-10" x="601.32" y="767.12" width="18.42" height="18.42"/>
  <rect class="cls-10" x="601.32" y="748.7" width="18.42" height="18.42"/>
  <rect class="cls-10" x="601.32" y="730.28" width="18.42" height="18.42"/>
  <rect class="cls-8" x="601.32" y="711.85" width="18.42" height="18.43"/>
  <rect class="cls-8" x="601.32" y="693.43" width="18.42" height="18.42"/>
  <rect class="cls-2" x="601.32" y="675.01" width="18.42" height="18.42"/>
  <rect class="cls-2" x="601.32" y="656.59" width="18.42" height="18.42"/>
  <rect class="cls-2" x="601.32" y="638.17" width="18.42" height="18.42"/>
  <rect class="cls-8" x="601.32" y="619.74" width="18.42" height="18.43"/>
  <rect class="cls-11" x="601.32" y="601.32" width="18.42" height="18.42"/>
  <rect class="cls-11" x="601.32" y="582.9" width="18.42" height="18.42"/>
  <rect class="cls-9" x="601.32" y="564.48" width="18.42" height="18.42"/>
  <rect class="cls-5" x="601.32" y="546.06" width="18.42" height="18.42"/>
  <rect class="cls-9" x="601.32" y="527.63" width="18.42" height="18.43"/>
  <rect class="cls-10" x="601.32" y="509.21" width="18.42" height="18.42"/>
  <rect class="cls-10" x="601.32" y="490.79" width="18.42" height="18.42"/>
  <rect class="cls-6" x="601.32" y="472.37" width="18.42" height="18.42"/>
  <rect class="cls-5" x="601.32" y="453.94" width="18.42" height="18.43"/>
  <rect class="cls-5" x="601.32" y="435.52" width="18.42" height="18.42"/>
  <rect class="cls-5" x="601.32" y="417.1" width="18.42" height="18.42"/>
  <rect class="cls-5" x="601.32" y="398.68" width="18.42" height="18.42"/>
  <rect class="cls-13" x="601.32" y="380.26" width="18.42" height="18.42"/>
  <rect class="cls-13" x="601.32" y="361.83" width="18.42" height="18.43"/>
  <rect class="cls-5" x="601.32" y="343.41" width="18.42" height="18.42"/>
  <rect class="cls-12" x="601.32" y="324.99" width="18.42" height="18.42"/>
  <rect class="cls-6" x="601.32" y="306.57" width="18.42" height="18.42"/>
  <rect class="cls-5" x="601.32" y="288.15" width="18.42" height="18.42"/>
  <rect class="cls-12" x="601.32" y="269.72" width="18.42" height="18.43"/>
  <rect class="cls-3" x="601.32" y="251.3" width="18.42" height="18.42"/>
  <rect class="cls-3" x="601.32" y="232.88" width="18.42" height="18.42"/>
  <rect class="cls-3" x="601.32" y="214.46" width="18.42" height="18.42"/>
  <rect class="cls-12" x="601.32" y="196.04" width="18.42" height="18.42"/>
  <rect class="cls-10" x="582.9" y="748.7" width="18.42" height="18.42"/>
  <rect class="cls-10" x="582.9" y="711.85" width="18.42" height="18.43"/>
  <rect class="cls-10" x="582.9" y="693.43" width="18.42" height="18.42"/>
  <rect class="cls-8" x="582.9" y="675.01" width="18.42" height="18.42"/>
  <rect class="cls-2" x="582.9" y="656.59" width="18.42" height="18.42"/>
  <rect class="cls-2" x="582.9" y="638.17" width="18.42" height="18.42"/>
  <rect class="cls-10" x="582.9" y="619.74" width="18.42" height="18.43"/>
  <rect class="cls-11" x="582.9" y="601.32" width="18.42" height="18.42"/>
  <rect class="cls-11" x="582.9" y="582.9" width="18.42" height="18.42"/>
  <rect class="cls-11" x="582.9" y="564.48" width="18.42" height="18.42"/>
  <rect class="cls-9" x="582.9" y="546.06" width="18.42" height="18.42"/>
  <rect class="cls-11" x="582.9" y="527.63" width="18.42" height="18.43"/>
  <rect class="cls-10" x="582.9" y="509.21" width="18.42" height="18.42"/>
  <rect class="cls-13" x="582.9" y="490.79" width="18.42" height="18.42"/>
  <rect class="cls-6" x="582.9" y="472.37" width="18.42" height="18.42"/>
  <rect class="cls-5" x="582.9" y="453.94" width="18.42" height="18.43"/>
  <rect class="cls-5" x="582.9" y="435.52" width="18.42" height="18.42"/>
  <rect class="cls-5" x="582.9" y="417.1" width="18.42" height="18.42"/>
  <rect class="cls-13" x="582.9" y="398.68" width="18.42" height="18.42"/>
  <rect class="cls-13" x="582.9" y="380.26" width="18.42" height="18.42"/>
  <rect class="cls-7" x="582.9" y="361.83" width="18.42" height="18.43"/>
  <rect class="cls-7" x="582.9" y="343.41" width="18.42" height="18.42"/>
  <rect class="cls-12" x="582.9" y="324.99" width="18.42" height="18.42"/>
  <rect class="cls-6" x="582.9" y="306.57" width="18.42" height="18.42"/>
  <rect class="cls-12" x="582.9" y="288.15" width="18.42" height="18.42"/>
  <rect class="cls-5" x="582.9" y="269.72" width="18.42" height="18.43"/>
  <rect class="cls-12" x="582.9" y="251.3" width="18.42" height="18.42"/>
  <rect class="cls-3" x="582.9" y="232.88" width="18.42" height="18.42"/>
  <rect class="cls-3" x="582.9" y="214.46" width="18.42" height="18.42"/>
  <rect class="cls-12" x="582.9" y="196.04" width="18.42" height="18.42"/>
  <rect class="cls-10" x="564.48" y="675.01" width="18.42" height="18.42"/>
  <rect class="cls-8" x="564.48" y="656.59" width="18.42" height="18.42"/>
  <rect class="cls-2" x="564.48" y="638.17" width="18.42" height="18.42"/>
  <rect class="cls-10" x="564.48" y="619.74" width="18.42" height="18.43"/>
  <rect class="cls-11" x="564.48" y="601.32" width="18.42" height="18.42"/>
  <rect class="cls-11" x="564.48" y="582.9" width="18.42" height="18.42"/>
  <rect class="cls-11" x="564.48" y="564.48" width="18.42" height="18.42"/>
  <rect class="cls-11" x="564.48" y="546.06" width="18.42" height="18.42"/>
  <rect class="cls-11" x="564.48" y="527.63" width="18.42" height="18.43"/>
  <rect class="cls-10" x="564.48" y="509.21" width="18.42" height="18.42"/>
  <rect class="cls-13" x="564.48" y="490.79" width="18.42" height="18.42"/>
  <rect class="cls-5" x="564.48" y="472.37" width="18.42" height="18.42"/>
  <rect class="cls-12" x="564.48" y="453.94" width="18.42" height="18.43"/>
  <rect class="cls-12" x="564.48" y="435.52" width="18.42" height="18.42"/>
  <rect class="cls-5" x="564.48" y="417.1" width="18.42" height="18.42"/>
  <rect class="cls-13" x="564.48" y="398.68" width="18.42" height="18.42"/>
  <rect class="cls-7" x="564.48" y="380.26" width="18.42" height="18.42"/>
  <rect class="cls-7" x="564.48" y="361.83" width="18.42" height="18.43"/>
  <rect class="cls-12" x="564.48" y="343.41" width="18.42" height="18.42"/>
  <rect class="cls-13" x="564.48" y="324.99" width="18.42" height="18.42"/>
  <rect class="cls-5" x="564.48" y="306.57" width="18.42" height="18.42"/>
  <rect class="cls-12" x="564.48" y="288.15" width="18.42" height="18.42"/>
  <rect class="cls-5" x="564.48" y="269.72" width="18.42" height="18.43"/>
  <rect class="cls-5" x="564.48" y="251.3" width="18.42" height="18.42"/>
  <rect class="cls-12" x="564.48" y="232.88" width="18.42" height="18.42"/>
  <rect class="cls-3" x="564.48" y="214.46" width="18.42" height="18.42"/>
  <rect class="cls-12" x="564.48" y="196.04" width="18.42" height="18.42"/>
  <rect class="cls-10" x="546.06" y="767.12" width="18.42" height="18.42"/>
  <rect class="cls-10" x="546.06" y="748.7" width="18.42" height="18.42"/>
  <rect class="cls-10" x="546.06" y="730.28" width="18.42" height="18.42"/>
  <rect class="cls-10" x="546.06" y="675.01" width="18.42" height="18.42"/>
  <rect class="cls-8" x="546.06" y="656.59" width="18.42" height="18.42"/>
  <rect class="cls-2" x="546.06" y="638.17" width="18.42" height="18.42"/>
  <rect class="cls-10" x="546.06" y="619.74" width="18.42" height="18.43"/>
  <rect class="cls-11" x="546.06" y="601.32" width="18.42" height="18.42"/>
  <rect class="cls-11" x="546.06" y="582.9" width="18.42" height="18.42"/>
  <rect class="cls-11" x="546.06" y="564.48" width="18.42" height="18.42"/>
  <rect class="cls-11" x="546.06" y="546.06" width="18.42" height="18.42"/>
  <rect class="cls-11" x="546.06" y="527.63" width="18.42" height="18.43"/>
  <rect class="cls-10" x="546.06" y="509.21" width="18.42" height="18.42"/>
  <rect class="cls-13" x="546.06" y="490.79" width="18.42" height="18.42"/>
  <rect class="cls-12" x="546.06" y="472.37" width="18.42" height="18.42"/>
  <rect class="cls-1" x="546.06" y="453.94" width="18.42" height="18.43"/>
  <rect class="cls-12" x="546.06" y="435.52" width="18.42" height="18.42"/>
  <rect class="cls-5" x="546.06" y="417.1" width="18.42" height="18.42"/>
  <rect class="cls-13" x="546.06" y="398.68" width="18.42" height="18.42"/>
  <rect class="cls-7" x="546.06" y="380.26" width="18.42" height="18.42"/>
  <rect class="cls-7" x="546.06" y="361.83" width="18.42" height="18.43"/>
  <rect class="cls-12" x="546.06" y="343.41" width="18.42" height="18.42"/>
  <rect class="cls-6" x="546.06" y="324.99" width="18.42" height="18.42"/>
  <rect class="cls-5" x="546.06" y="306.57" width="18.42" height="18.42"/>
  <rect class="cls-5" x="546.06" y="288.15" width="18.42" height="18.42"/>
  <rect class="cls-5" x="546.06" y="269.72" width="18.42" height="18.43"/>
  <rect class="cls-5" x="546.06" y="251.3" width="18.42" height="18.42"/>
  <rect class="cls-13" x="546.06" y="232.88" width="18.42" height="18.42"/>
  <rect class="cls-12" x="546.06" y="214.46" width="18.42" height="18.42"/>
  <rect class="cls-10" x="527.63" y="767.12" width="18.43" height="18.42"/>
  <rect class="cls-13" x="527.63" y="748.7" width="18.43" height="18.42"/>
  <rect class="cls-5" x="527.63" y="730.28" width="18.43" height="18.42"/>
  <rect class="cls-10" x="527.63" y="711.85" width="18.43" height="18.43"/>
  <rect class="cls-10" x="527.63" y="656.59" width="18.43" height="18.42"/>
  <rect class="cls-2" x="527.63" y="638.17" width="18.43" height="18.42"/>
  <rect class="cls-11" x="527.63" y="619.74" width="18.43" height="18.43"/>
  <rect class="cls-4" x="527.63" y="601.32" width="18.43" height="18.42"/>
  <rect class="cls-4" x="527.63" y="582.9" width="18.43" height="18.42"/>
  <rect class="cls-5" x="527.63" y="564.48" width="18.43" height="18.42"/>
  <rect class="cls-4" x="527.63" y="546.06" width="18.43" height="18.42"/>
  <rect class="cls-11" x="527.63" y="527.63" width="18.43" height="18.43"/>
  <rect class="cls-13" x="527.63" y="509.21" width="18.43" height="18.42"/>
  <rect class="cls-13" x="527.63" y="490.79" width="18.43" height="18.42"/>
  <rect class="cls-12" x="527.63" y="472.37" width="18.43" height="18.42"/>
  <rect class="cls-3" x="527.63" y="453.94" width="18.43" height="18.43"/>
  <rect class="cls-12" x="527.63" y="435.52" width="18.43" height="18.42"/>
  <rect class="cls-5" x="527.63" y="417.1" width="18.43" height="18.42"/>
  <rect class="cls-5" x="527.63" y="398.68" width="18.43" height="18.42"/>
  <rect class="cls-7" x="527.63" y="380.26" width="18.43" height="18.42"/>
  <rect class="cls-12" x="527.63" y="361.83" width="18.43" height="18.43"/>
  <rect class="cls-12" x="527.63" y="343.41" width="18.43" height="18.42"/>
  <rect class="cls-6" x="527.63" y="324.99" width="18.43" height="18.42"/>
  <rect class="cls-5" x="527.63" y="306.57" width="18.43" height="18.42"/>
  <rect class="cls-12" x="527.63" y="288.15" width="18.43" height="18.42"/>
  <rect class="cls-5" x="527.63" y="269.72" width="18.43" height="18.43"/>
  <rect class="cls-5" x="527.63" y="251.3" width="18.43" height="18.42"/>
  <rect class="cls-5" x="527.63" y="232.88" width="18.43" height="18.42"/>
  <rect class="cls-12" x="527.63" y="214.46" width="18.43" height="18.42"/>
  <rect class="cls-10" x="509.21" y="767.12" width="18.42" height="18.42"/>
  <rect class="cls-10" x="509.21" y="748.7" width="18.42" height="18.42"/>
  <rect class="cls-5" x="509.21" y="730.28" width="18.42" height="18.42"/>
  <rect class="cls-8" x="509.21" y="711.85" width="18.42" height="18.43"/>
  <rect class="cls-10" x="509.21" y="693.43" width="18.42" height="18.42"/>
  <rect class="cls-10" x="509.21" y="675.01" width="18.42" height="18.42"/>
  <rect class="cls-8" x="509.21" y="656.59" width="18.42" height="18.42"/>
  <rect class="cls-2" x="509.21" y="638.17" width="18.42" height="18.42"/>
  <rect class="cls-10" x="509.21" y="619.74" width="18.42" height="18.43"/>
  <rect class="cls-10" x="509.21" y="601.32" width="18.42" height="18.42"/>
  <rect class="cls-4" x="509.21" y="582.9" width="18.42" height="18.42"/>
  <rect class="cls-4" x="509.21" y="564.48" width="18.42" height="18.42"/>
  <rect class="cls-4" x="509.21" y="546.06" width="18.42" height="18.42"/>
  <rect class="cls-4" x="509.21" y="527.63" width="18.42" height="18.43"/>
  <rect class="cls-10" x="509.21" y="509.21" width="18.42" height="18.42"/>
  <rect class="cls-13" x="509.21" y="490.79" width="18.42" height="18.42"/>
  <rect class="cls-3" x="509.21" y="472.37" width="18.42" height="18.42"/>
  <rect class="cls-1" x="509.21" y="453.94" width="18.42" height="18.43"/>
  <rect class="cls-12" x="509.21" y="435.52" width="18.42" height="18.42"/>
  <rect class="cls-5" x="509.21" y="417.1" width="18.42" height="18.42"/>
  <rect class="cls-12" x="509.21" y="398.68" width="18.42" height="18.42"/>
  <rect class="cls-13" x="509.21" y="380.26" width="18.42" height="18.42"/>
  <rect class="cls-13" x="509.21" y="361.83" width="18.42" height="18.43"/>
  <rect class="cls-5" x="509.21" y="343.41" width="18.42" height="18.42"/>
  <rect class="cls-5" x="509.21" y="324.99" width="18.42" height="18.42"/>
  <rect class="cls-12" x="509.21" y="306.57" width="18.42" height="18.42"/>
  <rect class="cls-5" x="509.21" y="288.15" width="18.42" height="18.42"/>
  <rect class="cls-5" x="509.21" y="269.72" width="18.42" height="18.43"/>
  <rect class="cls-13" x="509.21" y="251.3" width="18.42" height="18.42"/>
  <rect class="cls-5" x="509.21" y="232.88" width="18.42" height="18.42"/>
  <rect class="cls-12" x="509.21" y="214.46" width="18.42" height="18.42"/>
  <rect class="cls-10" x="490.79" y="767.12" width="18.42" height="18.42"/>
  <rect class="cls-13" x="490.79" y="748.7" width="18.42" height="18.42"/>
  <rect class="cls-5" x="490.79" y="730.28" width="18.42" height="18.42"/>
  <rect class="cls-2" x="490.79" y="711.85" width="18.42" height="18.43"/>
  <rect class="cls-8" x="490.79" y="693.43" width="18.42" height="18.42"/>
  <rect class="cls-8" x="490.79" y="675.01" width="18.42" height="18.42"/>
  <rect class="cls-2" x="490.79" y="656.59" width="18.42" height="18.42"/>
  <rect class="cls-10" x="490.79" y="638.17" width="18.42" height="18.42"/>
  <rect class="cls-10" x="490.79" y="619.74" width="18.42" height="18.43"/>
  <rect class="cls-4" x="490.79" y="601.32" width="18.42" height="18.42"/>
  <rect class="cls-4" x="490.79" y="582.9" width="18.42" height="18.42"/>
  <rect class="cls-5" x="490.79" y="564.48" width="18.42" height="18.42"/>
  <rect class="cls-4" x="490.79" y="546.06" width="18.42" height="18.42"/>
  <rect class="cls-10" x="490.79" y="527.63" width="18.42" height="18.43"/>
  <rect class="cls-10" x="490.79" y="509.21" width="18.42" height="18.42"/>
  <rect class="cls-13" x="490.79" y="490.79" width="18.42" height="18.42"/>
  <rect class="cls-1" x="490.79" y="472.37" width="18.42" height="18.42"/>
  <rect class="cls-3" x="490.79" y="453.94" width="18.42" height="18.43"/>
  <rect class="cls-12" x="490.79" y="435.52" width="18.42" height="18.42"/>
  <rect class="cls-5" x="490.79" y="417.1" width="18.42" height="18.42"/>
  <rect class="cls-5" x="490.79" y="398.68" width="18.42" height="18.42"/>
  <rect class="cls-13" x="490.79" y="380.26" width="18.42" height="18.42"/>
  <rect class="cls-13" x="490.79" y="361.83" width="18.42" height="18.43"/>
  <rect class="cls-5" x="490.79" y="343.41" width="18.42" height="18.42"/>
  <rect class="cls-12" x="490.79" y="324.99" width="18.42" height="18.42"/>
  <rect class="cls-5" x="490.79" y="306.57" width="18.42" height="18.42"/>
  <rect class="cls-5" x="490.79" y="288.15" width="18.42" height="18.42"/>
  <rect class="cls-5" x="490.79" y="269.72" width="18.42" height="18.43"/>
  <rect class="cls-5" x="490.79" y="251.3" width="18.42" height="18.42"/>
  <rect class="cls-6" x="490.79" y="232.88" width="18.42" height="18.42"/>
  <rect class="cls-12" x="490.79" y="214.46" width="18.42" height="18.42"/>
  <rect class="cls-10" x="472.37" y="767.12" width="18.42" height="18.42"/>
  <rect class="cls-10" x="472.37" y="748.7" width="18.42" height="18.42"/>
  <rect class="cls-5" x="472.37" y="730.28" width="18.42" height="18.42"/>
  <rect class="cls-2" x="472.37" y="711.85" width="18.42" height="18.43"/>
  <rect class="cls-2" x="472.37" y="693.43" width="18.42" height="18.42"/>
  <rect class="cls-2" x="472.37" y="675.01" width="18.42" height="18.42"/>
  <rect class="cls-10" x="472.37" y="656.59" width="18.42" height="18.42"/>
  <rect class="cls-11" x="472.37" y="638.17" width="18.42" height="18.42"/>
  <rect class="cls-11" x="472.37" y="619.74" width="18.42" height="18.43"/>
  <rect class="cls-11" x="472.37" y="601.32" width="18.42" height="18.42"/>
  <rect class="cls-11" x="472.37" y="582.9" width="18.42" height="18.42"/>
  <rect class="cls-11" x="472.37" y="564.48" width="18.42" height="18.42"/>
  <rect class="cls-11" x="472.37" y="546.06" width="18.42" height="18.42"/>
  <rect class="cls-11" x="472.37" y="527.63" width="18.42" height="18.43"/>
  <rect class="cls-10" x="472.37" y="509.21" width="18.42" height="18.42"/>
  <rect class="cls-13" x="472.37" y="490.79" width="18.42" height="18.42"/>
  <rect class="cls-12" x="472.37" y="472.37" width="18.42" height="18.42"/>
  <rect class="cls-1" x="472.37" y="453.94" width="18.42" height="18.43"/>
  <rect class="cls-12" x="472.37" y="435.52" width="18.42" height="18.42"/>
  <rect class="cls-5" x="472.37" y="417.1" width="18.42" height="18.42"/>
  <rect class="cls-12" x="472.37" y="398.68" width="18.42" height="18.42"/>
  <rect class="cls-13" x="472.37" y="380.26" width="18.42" height="18.42"/>
  <rect class="cls-12" x="472.37" y="361.83" width="18.42" height="18.43"/>
  <rect class="cls-6" x="472.37" y="343.41" width="18.42" height="18.42"/>
  <rect class="cls-5" x="472.37" y="324.99" width="18.42" height="18.42"/>
  <rect class="cls-12" x="472.37" y="306.57" width="18.42" height="18.42"/>
  <rect class="cls-5" x="472.37" y="288.15" width="18.42" height="18.42"/>
  <rect class="cls-5" x="472.37" y="269.72" width="18.42" height="18.43"/>
  <rect class="cls-5" x="472.37" y="251.3" width="18.42" height="18.42"/>
  <rect class="cls-12" x="472.37" y="232.88" width="18.42" height="18.42"/>
  <rect class="cls-12" x="472.37" y="214.46" width="18.42" height="18.42"/>
  <rect class="cls-12" x="472.37" y="196.04" width="18.42" height="18.42"/>
  <rect class="cls-10" x="453.94" y="767.12" width="18.43" height="18.42"/>
  <rect class="cls-13" x="453.94" y="748.7" width="18.43" height="18.42"/>
  <rect class="cls-5" x="453.94" y="730.28" width="18.43" height="18.42"/>
  <rect class="cls-2" x="453.94" y="711.85" width="18.43" height="18.43"/>
  <rect class="cls-2" x="453.94" y="693.43" width="18.43" height="18.42"/>
  <rect class="cls-2" x="453.94" y="675.01" width="18.43" height="18.42"/>
  <rect class="cls-10" x="453.94" y="656.59" width="18.43" height="18.42"/>
  <rect class="cls-10" x="453.94" y="638.17" width="18.43" height="18.42"/>
  <rect class="cls-11" x="453.94" y="619.74" width="18.43" height="18.43"/>
  <rect class="cls-11" x="453.94" y="601.32" width="18.43" height="18.42"/>
  <rect class="cls-11" x="453.94" y="582.9" width="18.43" height="18.42"/>
  <rect class="cls-11" x="453.94" y="564.48" width="18.43" height="18.42"/>
  <rect class="cls-11" x="453.94" y="546.06" width="18.43" height="18.42"/>
  <rect class="cls-11" x="453.94" y="527.63" width="18.43" height="18.43"/>
  <rect class="cls-10" x="453.94" y="509.21" width="18.43" height="18.42"/>
  <rect class="cls-13" x="453.94" y="490.79" width="18.43" height="18.42"/>
  <rect class="cls-6" x="453.94" y="472.37" width="18.43" height="18.42"/>
  <rect class="cls-12" x="453.94" y="453.94" width="18.43" height="18.43"/>
  <rect class="cls-12" x="453.94" y="435.52" width="18.43" height="18.42"/>
  <rect class="cls-5" x="453.94" y="417.1" width="18.43" height="18.42"/>
  <rect class="cls-13" x="453.94" y="398.68" width="18.43" height="18.42"/>
  <rect class="cls-7" x="453.94" y="380.26" width="18.43" height="18.42"/>
  <rect class="cls-12" x="453.94" y="361.83" width="18.43" height="18.43"/>
  <rect class="cls-12" x="453.94" y="343.41" width="18.43" height="18.42"/>
  <rect class="cls-5" x="453.94" y="324.99" width="18.43" height="18.42"/>
  <rect class="cls-5" x="453.94" y="306.57" width="18.43" height="18.42"/>
  <rect class="cls-12" x="453.94" y="288.15" width="18.43" height="18.42"/>
  <rect class="cls-5" x="453.94" y="269.72" width="18.43" height="18.43"/>
  <rect class="cls-6" x="453.94" y="251.3" width="18.43" height="18.42"/>
  <rect class="cls-3" x="453.94" y="232.88" width="18.43" height="18.42"/>
  <rect class="cls-3" x="453.94" y="214.46" width="18.43" height="18.42"/>
  <rect class="cls-12" x="453.94" y="196.04" width="18.43" height="18.42"/>
  <rect class="cls-10" x="435.52" y="767.12" width="18.42" height="18.42"/>
  <rect class="cls-10" x="435.52" y="748.7" width="18.42" height="18.42"/>
  <rect class="cls-5" x="435.52" y="730.28" width="18.42" height="18.42"/>
  <rect class="cls-2" x="435.52" y="711.85" width="18.42" height="18.43"/>
  <rect class="cls-5" x="435.52" y="693.43" width="18.42" height="18.42"/>
  <rect class="cls-2" x="435.52" y="675.01" width="18.42" height="18.42"/>
  <rect class="cls-2" x="435.52" y="656.59" width="18.42" height="18.42"/>
  <rect class="cls-10" x="435.52" y="638.17" width="18.42" height="18.42"/>
  <rect class="cls-11" x="435.52" y="619.74" width="18.42" height="18.43"/>
  <rect class="cls-13" x="435.52" y="601.32" width="18.42" height="18.42"/>
  <rect class="cls-5" x="435.52" y="582.9" width="18.42" height="18.42"/>
  <rect class="cls-9" x="435.52" y="564.48" width="18.42" height="18.42"/>
  <rect class="cls-11" x="435.52" y="546.06" width="18.42" height="18.42"/>
  <rect class="cls-11" x="435.52" y="527.63" width="18.42" height="18.43"/>
  <rect class="cls-10" x="435.52" y="509.21" width="18.42" height="18.42"/>
  <rect class="cls-13" x="435.52" y="490.79" width="18.42" height="18.42"/>
  <rect class="cls-6" x="435.52" y="472.37" width="18.42" height="18.42"/>
  <rect class="cls-6" x="435.52" y="453.94" width="18.42" height="18.43"/>
  <rect class="cls-12" x="435.52" y="435.52" width="18.42" height="18.42"/>
  <rect class="cls-5" x="435.52" y="417.1" width="18.42" height="18.42"/>
  <rect class="cls-13" x="435.52" y="398.68" width="18.42" height="18.42"/>
  <rect class="cls-7" x="435.52" y="380.26" width="18.42" height="18.42"/>
  <rect class="cls-7" x="435.52" y="361.83" width="18.42" height="18.43"/>
  <rect class="cls-12" x="435.52" y="343.41" width="18.42" height="18.42"/>
  <rect class="cls-6" x="435.52" y="324.99" width="18.42" height="18.42"/>
  <rect class="cls-5" x="435.52" y="306.57" width="18.42" height="18.42"/>
  <rect class="cls-12" x="435.52" y="288.15" width="18.42" height="18.42"/>
  <rect class="cls-6" x="435.52" y="269.72" width="18.42" height="18.43"/>
  <rect class="cls-12" x="435.52" y="251.3" width="18.42" height="18.42"/>
  <rect class="cls-3" x="435.52" y="232.88" width="18.42" height="18.42"/>
  <rect class="cls-3" x="435.52" y="214.46" width="18.42" height="18.42"/>
  <rect class="cls-12" x="435.52" y="196.04" width="18.42" height="18.42"/>
  <rect class="cls-10" x="417.1" y="767.12" width="18.42" height="18.42"/>
  <rect class="cls-13" x="417.1" y="748.7" width="18.42" height="18.42"/>
  <rect class="cls-5" x="417.1" y="730.28" width="18.42" height="18.42"/>
  <rect class="cls-6" x="417.1" y="711.85" width="18.42" height="18.43"/>
  <rect class="cls-8" x="417.1" y="693.43" width="18.42" height="18.42"/>
  <rect class="cls-2" x="417.1" y="675.01" width="18.42" height="18.42"/>
  <rect class="cls-10" x="417.1" y="656.59" width="18.42" height="18.42"/>
  <rect class="cls-10" x="417.1" y="638.17" width="18.42" height="18.42"/>
  <rect class="cls-11" x="417.1" y="619.74" width="18.42" height="18.43"/>
  <rect class="cls-9" x="417.1" y="601.32" width="18.42" height="18.42"/>
  <rect class="cls-5" x="417.1" y="582.9" width="18.42" height="18.42"/>
  <rect class="cls-9" x="417.1" y="564.48" width="18.42" height="18.42"/>
  <rect class="cls-11" x="417.1" y="546.06" width="18.42" height="18.42"/>
  <rect class="cls-11" x="417.1" y="527.63" width="18.42" height="18.43"/>
  <rect class="cls-10" x="417.1" y="509.21" width="18.42" height="18.42"/>
  <rect class="cls-10" x="417.1" y="490.79" width="18.42" height="18.42"/>
  <rect class="cls-5" x="417.1" y="472.37" width="18.42" height="18.42"/>
  <rect class="cls-6" x="417.1" y="453.94" width="18.42" height="18.43"/>
  <rect class="cls-5" x="417.1" y="435.52" width="18.42" height="18.42"/>
  <rect class="cls-5" x="417.1" y="417.1" width="18.42" height="18.42"/>
  <rect class="cls-5" x="417.1" y="398.68" width="18.42" height="18.42"/>
  <rect class="cls-13" x="417.1" y="380.26" width="18.42" height="18.42"/>
  <rect class="cls-7" x="417.1" y="361.83" width="18.42" height="18.43"/>
  <rect class="cls-12" x="417.1" y="343.41" width="18.42" height="18.42"/>
  <rect class="cls-6" x="417.1" y="324.99" width="18.42" height="18.42"/>
  <rect class="cls-5" x="417.1" y="306.57" width="18.42" height="18.42"/>
  <rect class="cls-12" x="417.1" y="288.15" width="18.42" height="18.42"/>
  <rect class="cls-12" x="417.1" y="269.72" width="18.42" height="18.43"/>
  <rect class="cls-3" x="417.1" y="251.3" width="18.42" height="18.42"/>
  <rect class="cls-3" x="417.1" y="232.88" width="18.42" height="18.42"/>
  <rect class="cls-3" x="417.1" y="214.46" width="18.42" height="18.42"/>
  <rect class="cls-12" x="417.1" y="196.04" width="18.42" height="18.42"/>
  <rect class="cls-10" x="398.68" y="748.7" width="18.42" height="18.42"/>
  <rect class="cls-5" x="398.68" y="730.28" width="18.42" height="18.42"/>
  <rect class="cls-10" x="398.68" y="711.85" width="18.42" height="18.43"/>
  <rect class="cls-10" x="398.68" y="693.43" width="18.42" height="18.42"/>
  <rect class="cls-10" x="398.68" y="675.01" width="18.42" height="18.42"/>
  <rect class="cls-10" x="398.68" y="656.59" width="18.42" height="18.42"/>
  <rect class="cls-10" x="398.68" y="638.17" width="18.42" height="18.42"/>
  <rect class="cls-10" x="398.68" y="619.74" width="18.42" height="18.43"/>
  <rect class="cls-11" x="398.68" y="601.32" width="18.42" height="18.42"/>
  <rect class="cls-9" x="398.68" y="582.9" width="18.42" height="18.42"/>
  <rect class="cls-11" x="398.68" y="564.48" width="18.42" height="18.42"/>
  <rect class="cls-11" x="398.68" y="546.06" width="18.42" height="18.42"/>
  <rect class="cls-11" x="398.68" y="527.63" width="18.42" height="18.43"/>
  <rect class="cls-11" x="398.68" y="509.21" width="18.42" height="18.42"/>
  <rect class="cls-10" x="398.68" y="490.79" width="18.42" height="18.42"/>
  <rect class="cls-5" x="398.68" y="472.37" width="18.42" height="18.42"/>
  <rect class="cls-5" x="398.68" y="453.94" width="18.42" height="18.43"/>
  <rect class="cls-6" x="398.68" y="435.52" width="18.42" height="18.42"/>
  <rect class="cls-5" x="398.68" y="417.1" width="18.42" height="18.42"/>
  <rect class="cls-5" x="398.68" y="398.68" width="18.42" height="18.42"/>
  <rect class="cls-13" x="398.68" y="380.26" width="18.42" height="18.42"/>
  <rect class="cls-7" x="398.68" y="361.83" width="18.42" height="18.43"/>
  <rect class="cls-7" x="398.68" y="343.41" width="18.42" height="18.42"/>
  <rect class="cls-12" x="398.68" y="324.99" width="18.42" height="18.42"/>
  <rect class="cls-6" x="398.68" y="306.57" width="18.42" height="18.42"/>
  <rect class="cls-12" x="398.68" y="288.15" width="18.42" height="18.42"/>
  <rect class="cls-3" x="398.68" y="269.72" width="18.42" height="18.43"/>
  <rect class="cls-3" x="398.68" y="251.3" width="18.42" height="18.42"/>
  <rect class="cls-3" x="398.68" y="232.88" width="18.42" height="18.42"/>
  <rect class="cls-3" x="398.68" y="214.46" width="18.42" height="18.42"/>
  <rect class="cls-12" x="398.68" y="196.04" width="18.42" height="18.42"/>
  <rect class="cls-10" x="380.26" y="748.7" width="18.42" height="18.42"/>
  <rect class="cls-10" x="380.26" y="730.28" width="18.42" height="18.42"/>
  <rect class="cls-10" x="380.26" y="711.85" width="18.42" height="18.43"/>
  <rect class="cls-10" x="380.26" y="619.74" width="18.42" height="18.43"/>
  <rect class="cls-10" x="380.26" y="601.32" width="18.42" height="18.42"/>
  <rect class="cls-11" x="380.26" y="582.9" width="18.42" height="18.42"/>
  <rect class="cls-11" x="380.26" y="564.48" width="18.42" height="18.42"/>
  <rect class="cls-11" x="380.26" y="546.06" width="18.42" height="18.42"/>
  <rect class="cls-11" x="380.26" y="527.63" width="18.42" height="18.43"/>
  <rect class="cls-11" x="380.26" y="509.21" width="18.42" height="18.42"/>
  <rect class="cls-10" x="380.26" y="490.79" width="18.42" height="18.42"/>
  <rect class="cls-10" x="380.26" y="472.37" width="18.42" height="18.42"/>
  <rect class="cls-13" x="380.26" y="453.94" width="18.42" height="18.43"/>
  <rect class="cls-13" x="380.26" y="435.52" width="18.42" height="18.42"/>
  <rect class="cls-5" x="380.26" y="417.1" width="18.42" height="18.42"/>
  <rect class="cls-5" x="380.26" y="398.68" width="18.42" height="18.42"/>
  <rect class="cls-5" x="380.26" y="380.26" width="18.42" height="18.42"/>
  <rect class="cls-13" x="380.26" y="361.83" width="18.42" height="18.43"/>
  <rect class="cls-7" x="380.26" y="343.41" width="18.42" height="18.42"/>
  <rect class="cls-12" x="380.26" y="324.99" width="18.42" height="18.42"/>
  <rect class="cls-5" x="380.26" y="306.57" width="18.42" height="18.42"/>
  <rect class="cls-5" x="380.26" y="288.15" width="18.42" height="18.42"/>
  <rect class="cls-6" x="380.26" y="269.72" width="18.42" height="18.43"/>
  <rect class="cls-3" x="380.26" y="251.3" width="18.42" height="18.42"/>
  <rect class="cls-3" x="380.26" y="232.88" width="18.42" height="18.42"/>
  <rect class="cls-12" x="380.26" y="214.46" width="18.42" height="18.42"/>
  <rect class="cls-10" x="361.83" y="601.32" width="18.43" height="18.42"/>
  <rect class="cls-11" x="361.83" y="582.9" width="18.43" height="18.42"/>
  <rect class="cls-11" x="361.83" y="564.48" width="18.43" height="18.42"/>
  <rect class="cls-11" x="361.83" y="546.06" width="18.43" height="18.42"/>
  <rect class="cls-12" x="361.83" y="527.63" width="18.43" height="18.43"/>
  <rect class="cls-10" x="361.83" y="509.21" width="18.43" height="18.42"/>
  <rect class="cls-12" x="361.83" y="453.94" width="18.43" height="18.43"/>
  <rect class="cls-12" x="361.83" y="435.52" width="18.43" height="18.42"/>
  <rect class="cls-12" x="361.83" y="417.1" width="18.43" height="18.42"/>
  <rect class="cls-5" x="361.83" y="398.68" width="18.43" height="18.42"/>
  <rect class="cls-12" x="361.83" y="380.26" width="18.43" height="18.42"/>
  <rect class="cls-12" x="361.83" y="361.83" width="18.43" height="18.43"/>
  <rect class="cls-5" x="361.83" y="343.41" width="18.43" height="18.42"/>
  <rect class="cls-5" x="361.83" y="324.99" width="18.43" height="18.42"/>
  <rect class="cls-5" x="361.83" y="306.57" width="18.43" height="18.42"/>
  <rect class="cls-5" x="361.83" y="288.15" width="18.43" height="18.42"/>
  <rect class="cls-6" x="361.83" y="269.72" width="18.43" height="18.43"/>
  <rect class="cls-12" x="361.83" y="251.3" width="18.43" height="18.42"/>
  <rect class="cls-12" x="361.83" y="232.88" width="18.43" height="18.42"/>
  <rect class="cls-10" x="343.41" y="601.32" width="18.42" height="18.42"/>
  <rect class="cls-10" x="343.41" y="582.9" width="18.42" height="18.42"/>
  <rect class="cls-10" x="343.41" y="564.48" width="18.42" height="18.42"/>
  <rect class="cls-5" x="343.41" y="546.06" width="18.42" height="18.42"/>
  <rect class="cls-10" x="343.41" y="527.63" width="18.42" height="18.43"/>
  <rect class="cls-12" x="343.41" y="398.68" width="18.42" height="18.42"/>
  <rect class="cls-13" x="343.41" y="380.26" width="18.42" height="18.42"/>
  <rect class="cls-5" x="343.41" y="361.83" width="18.42" height="18.43"/>
  <rect class="cls-5" x="343.41" y="343.41" width="18.42" height="18.42"/>
  <rect class="cls-5" x="343.41" y="324.99" width="18.42" height="18.42"/>
  <rect class="cls-12" x="343.41" y="306.57" width="18.42" height="18.42"/>
  <rect class="cls-12" x="343.41" y="288.15" width="18.42" height="18.42"/>
  <rect class="cls-12" x="343.41" y="269.72" width="18.42" height="18.43"/>
  <rect class="cls-10" x="324.99" y="601.32" width="18.42" height="18.42"/>
  <rect class="cls-13" x="324.99" y="582.9" width="18.42" height="18.42"/>
  <rect class="cls-5" x="324.99" y="564.48" width="18.42" height="18.42"/>
  <rect class="cls-10" x="324.99" y="546.06" width="18.42" height="18.42"/>
  <rect class="cls-12" x="324.99" y="380.26" width="18.42" height="18.42"/>
  <rect class="cls-13" x="324.99" y="361.83" width="18.42" height="18.43"/>
  <rect class="cls-5" x="324.99" y="343.41" width="18.42" height="18.42"/>
  <rect class="cls-12" x="324.99" y="324.99" width="18.42" height="18.42"/>
  <rect class="cls-12" x="324.99" y="306.57" width="18.42" height="18.42"/>
  <rect class="cls-10" x="306.57" y="601.32" width="18.42" height="18.42"/>
  <rect class="cls-10" x="306.57" y="582.9" width="18.42" height="18.42"/>
  <rect class="cls-6" x="306.57" y="564.48" width="18.42" height="18.42"/>
  <rect class="cls-10" x="306.57" y="546.06" width="18.42" height="18.42"/>
  <rect class="cls-12" x="306.57" y="361.83" width="18.42" height="18.43"/>
  <rect class="cls-12" x="306.57" y="343.41" width="18.42" height="18.42"/>
  <rect class="cls-10" x="288.15" y="601.32" width="18.42" height="18.42"/>
  <rect class="cls-13" x="288.15" y="582.9" width="18.42" height="18.42"/>
  <rect class="cls-5" x="288.15" y="564.48" width="18.42" height="18.42"/>
  <rect class="cls-10" x="288.15" y="546.06" width="18.42" height="18.42"/>
  <rect class="cls-10" x="269.72" y="601.32" width="18.43" height="18.42"/>
  <rect class="cls-10" x="269.72" y="582.9" width="18.43" height="18.42"/>
  <rect class="cls-5" x="269.72" y="564.48" width="18.43" height="18.42"/>
  <rect class="cls-10" x="269.72" y="546.06" width="18.43" height="18.42"/>
  <rect class="cls-10" x="251.3" y="601.32" width="18.42" height="18.42"/>
  <rect class="cls-13" x="251.3" y="582.9" width="18.42" height="18.42"/>
  <rect class="cls-5" x="251.3" y="564.48" width="18.42" height="18.42"/>
  <rect class="cls-10" x="251.3" y="546.06" width="18.42" height="18.42"/>
  <rect class="cls-10" x="232.88" y="582.9" width="18.42" height="18.42"/>
  <rect class="cls-10" x="232.88" y="564.48" width="18.42" height="18.42"/>
</svg>