<?xml version="1.0" encoding="UTF-8"?>
<svg id="_圖層_2" data-name="圖層 2" xmlns="http://www.w3.org/2000/svg" viewBox="0 0 922.97 894.99">
  <defs>
    <style>
      .cls-1 {
        fill: #e89955;
      }

      .cls-2 {
        fill: #fff;
      }

      .cls-3 {
        fill: #a03237;
      }

      .cls-4 {
        fill: #8e3e49;
      }

      .cls-5 {
        fill: #acd4b0;
      }

      .cls-6 {
        fill: #d6ead7;
      }

      .cls-7 {
        fill: #6d4641;
      }

      .cls-8 {
        fill: #704440;
      }

      .cls-9 {
        fill: #5c5861;
      }

      .cls-10 {
        fill: #2d232d;
      }

      .cls-11 {
        fill: #3d3544;
      }

      .cls-12 {
        fill: #3c3644;
      }

      .cls-13 {
        fill: #5d5564;
      }

      .cls-14 {
        fill: #4e7b57;
      }
    </style>
  </defs>
  <g id="_圖層_2-2" data-name="圖層 2">
    <g>
      <rect class="cls-10" x="895" y="531.4" width="27.97" height="27.97"/>
      <rect class="cls-10" x="895" y="503.42" width="27.97" height="27.98"/>
      <rect class="cls-10" x="895" y="475.46" width="27.97" height="27.97"/>
      <rect class="cls-10" x="895" y="447.49" width="27.97" height="27.97"/>
      <rect class="cls-10" x="867.02" y="559.37" width="27.98" height="27.97"/>
      <rect class="cls-14" x="867.02" y="531.4" width="27.98" height="27.97"/>
      <rect class="cls-5" x="867.02" y="503.42" width="27.98" height="27.98"/>
      <rect class="cls-6" x="867.02" y="475.46" width="27.98" height="27.97"/>
      <rect class="cls-10" x="867.02" y="447.49" width="27.98" height="27.97"/>
      <rect class="cls-10" x="839.05" y="531.4" width="27.97" height="27.97"/>
      <rect class="cls-10" x="839.05" y="503.42" width="27.97" height="27.98"/>
      <rect class="cls-5" x="839.05" y="475.46" width="27.97" height="27.97"/>
      <rect class="cls-10" x="839.05" y="447.49" width="27.97" height="27.97"/>
      <rect class="cls-10" x="811.09" y="559.37" width="27.97" height="27.97"/>
      <rect class="cls-14" x="811.09" y="531.4" width="27.97" height="27.97"/>
      <rect class="cls-5" x="811.09" y="503.42" width="27.97" height="27.98"/>
      <rect class="cls-5" x="811.09" y="475.46" width="27.97" height="27.97"/>
      <rect class="cls-10" x="811.09" y="447.49" width="27.97" height="27.97"/>
      <rect class="cls-10" x="783.12" y="839.05" width="27.97" height="27.97"/>
      <rect class="cls-10" x="783.12" y="811.09" width="27.97" height="27.97"/>
      <rect class="cls-10" x="783.12" y="531.4" width="27.97" height="27.97"/>
      <rect class="cls-10" x="783.12" y="503.42" width="27.97" height="27.98"/>
      <rect class="cls-5" x="783.12" y="475.46" width="27.97" height="27.97"/>
      <rect class="cls-10" x="783.12" y="447.49" width="27.97" height="27.97"/>
      <rect class="cls-10" x="755.16" y="867.02" width="27.97" height="27.97"/>
      <rect class="cls-14" x="755.16" y="839.05" width="27.97" height="27.97"/>
      <rect class="cls-10" x="755.16" y="811.09" width="27.97" height="27.97"/>
      <rect class="cls-10" x="755.16" y="783.11" width="27.97" height="27.98"/>
      <rect class="cls-10" x="755.16" y="559.37" width="27.97" height="27.97"/>
      <rect class="cls-14" x="755.16" y="531.4" width="27.97" height="27.97"/>
      <rect class="cls-5" x="755.16" y="503.42" width="27.97" height="27.98"/>
      <rect class="cls-5" x="755.16" y="475.46" width="27.97" height="27.97"/>
      <rect class="cls-10" x="755.16" y="447.49" width="27.97" height="27.97"/>
      <rect class="cls-10" x="727.18" y="867.02" width="27.98" height="27.97"/>
      <rect class="cls-10" x="727.18" y="839.05" width="27.98" height="27.97"/>
      <rect class="cls-5" x="727.18" y="811.09" width="27.98" height="27.97"/>
      <rect class="cls-10" x="727.18" y="783.11" width="27.98" height="27.98"/>
      <rect class="cls-10" x="727.18" y="531.4" width="27.98" height="27.97"/>
      <rect class="cls-10" x="727.18" y="503.42" width="27.98" height="27.98"/>
      <rect class="cls-5" x="727.18" y="475.46" width="27.98" height="27.97"/>
      <rect class="cls-10" x="727.18" y="447.49" width="27.98" height="27.97"/>
      <rect class="cls-10" x="699.21" y="867.02" width="27.97" height="27.97"/>
      <rect class="cls-14" x="699.21" y="839.05" width="27.97" height="27.97"/>
      <rect class="cls-5" x="699.21" y="811.09" width="27.97" height="27.97"/>
      <rect class="cls-10" x="699.21" y="783.11" width="27.97" height="27.98"/>
      <rect class="cls-10" x="699.21" y="755.14" width="27.97" height="27.97"/>
      <rect class="cls-10" x="699.21" y="727.18" width="27.97" height="27.97"/>
      <rect class="cls-10" x="699.21" y="587.34" width="27.97" height="27.97"/>
      <rect class="cls-8" x="699.21" y="559.37" width="27.97" height="27.97"/>
      <rect class="cls-10" x="699.21" y="531.4" width="27.97" height="27.97"/>
      <rect class="cls-10" x="699.21" y="503.42" width="27.97" height="27.98"/>
      <rect class="cls-8" x="699.21" y="475.46" width="27.97" height="27.97"/>
      <rect class="cls-10" x="699.21" y="447.49" width="27.97" height="27.97"/>
      <rect class="cls-12" x="699.21" y="279.68" width="27.97" height="27.97"/>
      <rect class="cls-12" x="699.21" y="251.7" width="27.97" height="27.98"/>
      <rect class="cls-10" x="671.25" y="867.02" width="27.97" height="27.97"/>
      <rect class="cls-10" x="671.25" y="839.05" width="27.97" height="27.97"/>
      <rect class="cls-5" x="671.25" y="811.09" width="27.97" height="27.97"/>
      <rect class="cls-6" x="671.25" y="783.11" width="27.97" height="27.98"/>
      <rect class="cls-13" x="671.25" y="755.14" width="27.97" height="27.97"/>
      <rect class="cls-10" x="671.25" y="727.18" width="27.97" height="27.97"/>
      <rect class="cls-10" x="671.25" y="699.21" width="27.97" height="27.97"/>
      <rect class="cls-10" x="671.25" y="587.34" width="27.97" height="27.97"/>
      <rect class="cls-10" x="671.25" y="559.37" width="27.97" height="27.97"/>
      <rect class="cls-10" x="671.25" y="531.4" width="27.97" height="27.97"/>
      <rect class="cls-10" x="671.25" y="503.42" width="27.97" height="27.98"/>
      <rect class="cls-3" x="671.25" y="475.46" width="27.97" height="27.97"/>
      <rect class="cls-10" x="671.25" y="447.49" width="27.97" height="27.97"/>
      <rect class="cls-12" x="671.25" y="307.65" width="27.97" height="27.97"/>
      <rect class="cls-12" x="671.25" y="279.68" width="27.97" height="27.97"/>
      <rect class="cls-14" x="671.25" y="251.7" width="27.97" height="27.98"/>
      <rect class="cls-12" x="671.25" y="223.74" width="27.97" height="27.97"/>
      <rect class="cls-10" x="643.28" y="867.02" width="27.97" height="27.97"/>
      <rect class="cls-14" x="643.28" y="839.05" width="27.97" height="27.97"/>
      <rect class="cls-5" x="643.28" y="811.09" width="27.97" height="27.97"/>
      <rect class="cls-11" x="643.28" y="783.11" width="27.97" height="27.98"/>
      <rect class="cls-11" x="643.28" y="755.14" width="27.97" height="27.97"/>
      <rect class="cls-11" x="643.28" y="727.18" width="27.97" height="27.97"/>
      <rect class="cls-10" x="643.28" y="699.21" width="27.97" height="27.97"/>
      <rect class="cls-10" x="643.28" y="671.25" width="27.97" height="27.97"/>
      <rect class="cls-10" x="643.28" y="643.27" width="27.97" height="27.98"/>
      <rect class="cls-10" x="643.28" y="559.37" width="27.97" height="27.97"/>
      <rect class="cls-8" x="643.28" y="531.4" width="27.97" height="27.97"/>
      <rect class="cls-8" x="643.28" y="503.42" width="27.97" height="27.98"/>
      <rect class="cls-8" x="643.28" y="475.46" width="27.97" height="27.97"/>
      <rect class="cls-10" x="643.28" y="447.49" width="27.97" height="27.97"/>
      <rect class="cls-10" x="643.28" y="419.53" width="27.97" height="27.97"/>
      <rect class="cls-12" x="643.28" y="363.58" width="27.97" height="27.97"/>
      <rect class="cls-12" x="643.28" y="335.62" width="27.97" height="27.97"/>
      <rect class="cls-14" x="643.28" y="307.65" width="27.97" height="27.97"/>
      <rect class="cls-3" x="643.28" y="279.68" width="27.97" height="27.97"/>
      <rect class="cls-3" x="643.28" y="251.7" width="27.97" height="27.98"/>
      <rect class="cls-3" x="643.28" y="223.74" width="27.97" height="27.97"/>
      <rect class="cls-12" x="643.28" y="195.77" width="27.97" height="27.97"/>
      <rect class="cls-12" x="643.28" y="167.81" width="27.97" height="27.97"/>
      <rect class="cls-12" x="643.28" y="111.86" width="27.97" height="27.98"/>
      <rect class="cls-10" x="615.32" y="867.02" width="27.97" height="27.97"/>
      <rect class="cls-10" x="615.32" y="839.05" width="27.97" height="27.97"/>
      <rect class="cls-5" x="615.32" y="811.09" width="27.97" height="27.97"/>
      <rect class="cls-11" x="615.32" y="783.11" width="27.97" height="27.98"/>
      <rect class="cls-11" x="615.32" y="755.14" width="27.97" height="27.97"/>
      <rect class="cls-3" x="615.32" y="727.18" width="27.97" height="27.97"/>
      <rect class="cls-3" x="615.32" y="699.21" width="27.97" height="27.97"/>
      <rect class="cls-3" x="615.32" y="671.25" width="27.97" height="27.97"/>
      <rect class="cls-10" x="615.32" y="643.27" width="27.97" height="27.98"/>
      <rect class="cls-10" x="615.32" y="615.3" width="27.97" height="27.97"/>
      <rect class="cls-10" x="615.32" y="559.37" width="27.97" height="27.97"/>
      <rect class="cls-8" x="615.32" y="531.4" width="27.97" height="27.97"/>
      <rect class="cls-8" x="615.32" y="503.42" width="27.97" height="27.98"/>
      <rect class="cls-8" x="615.32" y="475.46" width="27.97" height="27.97"/>
      <rect class="cls-8" x="615.32" y="447.49" width="27.97" height="27.97"/>
      <rect class="cls-10" x="615.32" y="419.53" width="27.97" height="27.97"/>
      <rect class="cls-12" x="615.32" y="391.55" width="27.97" height="27.98"/>
      <rect class="cls-14" x="615.32" y="363.58" width="27.97" height="27.97"/>
      <rect class="cls-3" x="615.32" y="335.62" width="27.97" height="27.97"/>
      <rect class="cls-3" x="615.32" y="307.65" width="27.97" height="27.97"/>
      <rect class="cls-5" x="615.32" y="279.68" width="27.97" height="27.97"/>
      <rect class="cls-5" x="615.32" y="251.7" width="27.97" height="27.98"/>
      <rect class="cls-3" x="615.32" y="223.74" width="27.97" height="27.97"/>
      <rect class="cls-12" x="615.32" y="195.77" width="27.97" height="27.97"/>
      <rect class="cls-3" x="615.32" y="167.81" width="27.97" height="27.97"/>
      <rect class="cls-12" x="615.32" y="139.84" width="27.97" height="27.97"/>
      <rect class="cls-6" x="615.32" y="111.86" width="27.97" height="27.98"/>
      <rect class="cls-12" x="615.32" y="83.9" width="27.97" height="27.97"/>
      <rect class="cls-12" x="615.32" y="55.93" width="27.97" height="27.97"/>
      <rect class="cls-10" x="587.34" y="867.02" width="27.98" height="27.97"/>
      <rect class="cls-14" x="587.34" y="839.05" width="27.98" height="27.97"/>
      <rect class="cls-5" x="587.34" y="811.09" width="27.98" height="27.97"/>
      <rect class="cls-6" x="587.34" y="783.11" width="27.98" height="27.98"/>
      <rect class="cls-11" x="587.34" y="755.14" width="27.98" height="27.97"/>
      <rect class="cls-5" x="587.34" y="727.18" width="27.98" height="27.97"/>
      <rect class="cls-3" x="587.34" y="699.21" width="27.98" height="27.97"/>
      <rect class="cls-13" x="587.34" y="671.25" width="27.98" height="27.97"/>
      <rect class="cls-10" x="587.34" y="643.27" width="27.98" height="27.98"/>
      <rect class="cls-10" x="587.34" y="615.3" width="27.98" height="27.97"/>
      <rect class="cls-10" x="587.34" y="587.34" width="27.98" height="27.97"/>
      <rect class="cls-10" x="587.34" y="559.37" width="27.98" height="27.97"/>
      <rect class="cls-9" x="587.34" y="531.4" width="27.98" height="27.97"/>
      <rect class="cls-8" x="587.34" y="503.42" width="27.98" height="27.98"/>
      <rect class="cls-8" x="587.34" y="475.46" width="27.98" height="27.97"/>
      <rect class="cls-10" x="587.34" y="447.49" width="27.98" height="27.97"/>
      <rect class="cls-10" x="587.34" y="419.53" width="27.98" height="27.97"/>
      <rect class="cls-3" x="587.34" y="391.55" width="27.98" height="27.98"/>
      <rect class="cls-3" x="587.34" y="363.58" width="27.98" height="27.97"/>
      <rect class="cls-3" x="587.34" y="335.62" width="27.98" height="27.97"/>
      <rect class="cls-3" x="587.34" y="307.65" width="27.98" height="27.97"/>
      <rect class="cls-5" x="587.34" y="279.68" width="27.98" height="27.97"/>
      <rect class="cls-14" x="587.34" y="251.7" width="27.98" height="27.98"/>
      <rect class="cls-5" x="587.34" y="223.74" width="27.98" height="27.97"/>
      <rect class="cls-3" x="587.34" y="195.77" width="27.98" height="27.97"/>
      <rect class="cls-1" x="587.34" y="167.81" width="27.98" height="27.97"/>
      <rect class="cls-1" x="587.34" y="139.84" width="27.98" height="27.97"/>
      <rect class="cls-1" x="587.34" y="111.86" width="27.98" height="27.98"/>
      <rect class="cls-3" x="587.34" y="83.9" width="27.98" height="27.97"/>
      <rect class="cls-3" x="587.34" y="55.93" width="27.98" height="27.97"/>
      <rect class="cls-12" x="587.34" y="27.97" width="27.98" height="27.97"/>
      <rect class="cls-12" x="587.34" width="27.98" height="27.97"/>
      <rect class="cls-10" x="559.37" y="867.02" width="27.97" height="27.97"/>
      <rect class="cls-10" x="559.37" y="839.05" width="27.97" height="27.97"/>
      <rect class="cls-10" x="559.37" y="811.09" width="27.97" height="27.97"/>
      <rect class="cls-13" x="559.37" y="783.11" width="27.97" height="27.98"/>
      <rect class="cls-13" x="559.37" y="755.14" width="27.97" height="27.97"/>
      <rect class="cls-11" x="559.37" y="727.18" width="27.97" height="27.97"/>
      <rect class="cls-11" x="559.37" y="699.21" width="27.97" height="27.97"/>
      <rect class="cls-11" x="559.37" y="671.25" width="27.97" height="27.97"/>
      <rect class="cls-7" x="559.37" y="643.27" width="27.97" height="27.98"/>
      <rect class="cls-8" x="559.37" y="615.3" width="27.97" height="27.97"/>
      <rect class="cls-3" x="559.37" y="587.34" width="27.97" height="27.97"/>
      <rect class="cls-3" x="559.37" y="559.37" width="27.97" height="27.97"/>
      <rect class="cls-5" x="559.37" y="531.4" width="27.97" height="27.97"/>
      <rect class="cls-9" x="559.37" y="503.42" width="27.97" height="27.98"/>
      <rect class="cls-10" x="559.37" y="475.46" width="27.97" height="27.97"/>
      <rect class="cls-10" x="559.37" y="447.49" width="27.97" height="27.97"/>
      <rect class="cls-3" x="559.37" y="419.53" width="27.97" height="27.97"/>
      <rect class="cls-5" x="559.37" y="391.55" width="27.97" height="27.98"/>
      <rect class="cls-5" x="559.37" y="363.58" width="27.97" height="27.97"/>
      <rect class="cls-3" x="559.37" y="335.62" width="27.97" height="27.97"/>
      <rect class="cls-5" x="559.37" y="307.65" width="27.97" height="27.97"/>
      <rect class="cls-14" x="559.37" y="279.68" width="27.97" height="27.97"/>
      <rect class="cls-14" x="559.37" y="251.7" width="27.97" height="27.98"/>
      <rect class="cls-5" x="559.37" y="223.74" width="27.97" height="27.97"/>
      <rect class="cls-12" x="559.37" y="195.77" width="27.97" height="27.97"/>
      <rect class="cls-6" x="559.37" y="167.81" width="27.97" height="27.97"/>
      <rect class="cls-5" x="559.37" y="139.84" width="27.97" height="27.97"/>
      <rect class="cls-12" x="559.37" y="111.86" width="27.97" height="27.98"/>
      <rect class="cls-1" x="559.37" y="83.9" width="27.97" height="27.97"/>
      <rect class="cls-3" x="559.37" y="55.93" width="27.97" height="27.97"/>
      <rect class="cls-3" x="559.37" y="27.97" width="27.97" height="27.97"/>
      <rect class="cls-12" x="559.37" width="27.97" height="27.97"/>
      <rect class="cls-10" x="531.4" y="839.05" width="27.97" height="27.97"/>
      <rect class="cls-10" x="531.4" y="783.11" width="27.97" height="27.98"/>
      <rect class="cls-10" x="531.4" y="755.14" width="27.97" height="27.97"/>
      <rect class="cls-13" x="531.4" y="727.18" width="27.97" height="27.97"/>
      <rect class="cls-11" x="531.4" y="699.21" width="27.97" height="27.97"/>
      <rect class="cls-3" x="531.4" y="671.25" width="27.97" height="27.97"/>
      <rect class="cls-10" x="531.4" y="643.27" width="27.97" height="27.98"/>
      <rect class="cls-8" x="531.4" y="615.3" width="27.97" height="27.97"/>
      <rect class="cls-3" x="531.4" y="587.34" width="27.97" height="27.97"/>
      <rect class="cls-3" x="531.4" y="559.37" width="27.97" height="27.97"/>
      <rect class="cls-9" x="531.4" y="531.4" width="27.97" height="27.97"/>
      <rect class="cls-8" x="531.4" y="503.42" width="27.97" height="27.98"/>
      <rect class="cls-10" x="531.4" y="475.46" width="27.97" height="27.97"/>
      <rect class="cls-3" x="531.4" y="447.49" width="27.97" height="27.97"/>
      <rect class="cls-3" x="531.4" y="419.53" width="27.97" height="27.97"/>
      <rect class="cls-5" x="531.4" y="391.55" width="27.97" height="27.98"/>
      <rect class="cls-5" x="531.4" y="363.58" width="27.97" height="27.97"/>
      <rect class="cls-5" x="531.4" y="335.62" width="27.97" height="27.97"/>
      <rect class="cls-14" x="531.4" y="307.65" width="27.97" height="27.97"/>
      <rect class="cls-14" x="531.4" y="279.68" width="27.97" height="27.97"/>
      <rect class="cls-3" x="531.4" y="251.7" width="27.97" height="27.98"/>
      <rect class="cls-1" x="531.4" y="223.74" width="27.97" height="27.97"/>
      <rect class="cls-12" x="531.4" y="195.77" width="27.97" height="27.97"/>
      <rect class="cls-6" x="531.4" y="167.81" width="27.97" height="27.97"/>
      <rect class="cls-12" x="531.4" y="139.84" width="27.97" height="27.97"/>
      <rect class="cls-5" x="531.4" y="111.86" width="27.97" height="27.98"/>
      <rect class="cls-12" x="531.4" y="83.9" width="27.97" height="27.97"/>
      <rect class="cls-3" x="531.4" y="55.93" width="27.97" height="27.97"/>
      <rect class="cls-3" x="531.4" y="27.97" width="27.97" height="27.97"/>
      <rect class="cls-12" x="531.4" width="27.97" height="27.97"/>
      <rect class="cls-10" x="503.44" y="727.18" width="27.97" height="27.97"/>
      <rect class="cls-3" x="503.44" y="699.21" width="27.97" height="27.97"/>
      <rect class="cls-3" x="503.44" y="671.25" width="27.97" height="27.97"/>
      <rect class="cls-10" x="503.44" y="643.27" width="27.97" height="27.98"/>
      <rect class="cls-8" x="503.44" y="615.3" width="27.97" height="27.97"/>
      <rect class="cls-8" x="503.44" y="587.34" width="27.97" height="27.97"/>
      <rect class="cls-8" x="503.44" y="559.37" width="27.97" height="27.97"/>
      <rect class="cls-8" x="503.44" y="531.4" width="27.97" height="27.97"/>
      <rect class="cls-8" x="503.44" y="503.42" width="27.97" height="27.98"/>
      <rect class="cls-10" x="503.44" y="475.46" width="27.97" height="27.97"/>
      <rect class="cls-3" x="503.44" y="447.49" width="27.97" height="27.97"/>
      <rect class="cls-5" x="503.44" y="419.53" width="27.97" height="27.97"/>
      <rect class="cls-12" x="503.44" y="391.55" width="27.97" height="27.98"/>
      <rect class="cls-12" x="503.44" y="363.58" width="27.97" height="27.97"/>
      <rect class="cls-3" x="503.44" y="335.62" width="27.97" height="27.97"/>
      <rect class="cls-14" x="503.44" y="307.65" width="27.97" height="27.97"/>
      <rect class="cls-3" x="503.44" y="279.68" width="27.97" height="27.97"/>
      <rect class="cls-3" x="503.44" y="251.7" width="27.97" height="27.98"/>
      <rect class="cls-12" x="503.44" y="223.74" width="27.97" height="27.97"/>
      <rect class="cls-14" x="503.44" y="195.77" width="27.97" height="27.97"/>
      <rect class="cls-5" x="503.44" y="167.81" width="27.97" height="27.97"/>
      <rect class="cls-12" x="503.44" y="139.84" width="27.97" height="27.97"/>
      <rect class="cls-5" x="503.44" y="111.86" width="27.97" height="27.98"/>
      <rect class="cls-5" x="503.44" y="83.9" width="27.97" height="27.97"/>
      <rect class="cls-12" x="503.44" y="55.93" width="27.97" height="27.97"/>
      <rect class="cls-3" x="503.44" y="27.97" width="27.97" height="27.97"/>
      <rect class="cls-12" x="503.44" width="27.97" height="27.97"/>
      <rect class="cls-10" x="475.47" y="867.02" width="27.97" height="27.97"/>
      <rect class="cls-10" x="475.47" y="839.05" width="27.97" height="27.97"/>
      <rect class="cls-10" x="475.47" y="811.09" width="27.97" height="27.97"/>
      <rect class="cls-3" x="475.47" y="727.18" width="27.97" height="27.97"/>
      <rect class="cls-3" x="475.47" y="699.21" width="27.97" height="27.97"/>
      <rect class="cls-3" x="475.47" y="671.25" width="27.97" height="27.97"/>
      <rect class="cls-10" x="475.47" y="643.27" width="27.97" height="27.98"/>
      <rect class="cls-8" x="475.47" y="615.3" width="27.97" height="27.97"/>
      <rect class="cls-8" x="475.47" y="587.34" width="27.97" height="27.97"/>
      <rect class="cls-8" x="475.47" y="559.37" width="27.97" height="27.97"/>
      <rect class="cls-8" x="475.47" y="531.4" width="27.97" height="27.97"/>
      <rect class="cls-8" x="475.47" y="503.42" width="27.97" height="27.98"/>
      <rect class="cls-10" x="475.47" y="475.46" width="27.97" height="27.97"/>
      <rect class="cls-3" x="475.47" y="447.49" width="27.97" height="27.97"/>
      <rect class="cls-12" x="475.47" y="419.53" width="27.97" height="27.97"/>
      <rect class="cls-2" x="475.47" y="391.55" width="27.97" height="27.98"/>
      <rect class="cls-12" x="475.47" y="363.58" width="27.97" height="27.97"/>
      <rect class="cls-5" x="475.47" y="335.62" width="27.97" height="27.97"/>
      <rect class="cls-14" x="475.47" y="307.65" width="27.97" height="27.97"/>
      <rect class="cls-3" x="475.47" y="279.68" width="27.97" height="27.97"/>
      <rect class="cls-1" x="475.47" y="251.7" width="27.97" height="27.98"/>
      <rect class="cls-12" x="475.47" y="223.74" width="27.97" height="27.97"/>
      <rect class="cls-6" x="475.47" y="195.77" width="27.97" height="27.97"/>
      <rect class="cls-5" x="475.47" y="167.81" width="27.97" height="27.97"/>
      <rect class="cls-5" x="475.47" y="139.84" width="27.97" height="27.97"/>
      <rect class="cls-5" x="475.47" y="111.86" width="27.97" height="27.98"/>
      <rect class="cls-5" x="475.47" y="83.9" width="27.97" height="27.97"/>
      <rect class="cls-14" x="475.47" y="55.93" width="27.97" height="27.97"/>
      <rect class="cls-12" x="475.47" y="27.97" width="27.97" height="27.97"/>
      <rect class="cls-10" x="447.49" y="867.02" width="27.98" height="27.97"/>
      <rect class="cls-14" x="447.49" y="839.05" width="27.98" height="27.97"/>
      <rect class="cls-5" x="447.49" y="811.09" width="27.98" height="27.97"/>
      <rect class="cls-10" x="447.49" y="783.11" width="27.98" height="27.98"/>
      <rect class="cls-10" x="447.49" y="699.21" width="27.98" height="27.97"/>
      <rect class="cls-3" x="447.49" y="671.25" width="27.98" height="27.97"/>
      <rect class="cls-8" x="447.49" y="643.27" width="27.98" height="27.98"/>
      <rect class="cls-4" x="447.49" y="615.3" width="27.98" height="27.97"/>
      <rect class="cls-4" x="447.49" y="587.34" width="27.98" height="27.97"/>
      <rect class="cls-5" x="447.49" y="559.37" width="27.98" height="27.97"/>
      <rect class="cls-4" x="447.49" y="531.4" width="27.98" height="27.97"/>
      <rect class="cls-8" x="447.49" y="503.42" width="27.98" height="27.98"/>
      <rect class="cls-14" x="447.49" y="475.46" width="27.98" height="27.97"/>
      <rect class="cls-14" x="447.49" y="447.49" width="27.98" height="27.97"/>
      <rect class="cls-12" x="447.49" y="419.53" width="27.98" height="27.97"/>
      <rect class="cls-3" x="447.49" y="391.55" width="27.98" height="27.98"/>
      <rect class="cls-12" x="447.49" y="363.58" width="27.98" height="27.97"/>
      <rect class="cls-5" x="447.49" y="335.62" width="27.98" height="27.97"/>
      <rect class="cls-5" x="447.49" y="307.65" width="27.98" height="27.97"/>
      <rect class="cls-1" x="447.49" y="279.68" width="27.98" height="27.97"/>
      <rect class="cls-12" x="447.49" y="251.7" width="27.98" height="27.98"/>
      <rect class="cls-12" x="447.49" y="223.74" width="27.98" height="27.97"/>
      <rect class="cls-6" x="447.49" y="195.77" width="27.98" height="27.97"/>
      <rect class="cls-5" x="447.49" y="167.81" width="27.98" height="27.97"/>
      <rect class="cls-12" x="447.49" y="139.84" width="27.98" height="27.97"/>
      <rect class="cls-3" x="447.49" y="111.86" width="27.98" height="27.98"/>
      <rect class="cls-5" x="447.49" y="83.9" width="27.98" height="27.97"/>
      <rect class="cls-5" x="447.49" y="55.93" width="27.98" height="27.97"/>
      <rect class="cls-12" x="447.49" y="27.97" width="27.98" height="27.97"/>
      <rect class="cls-10" x="419.53" y="867.02" width="27.97" height="27.97"/>
      <rect class="cls-10" x="419.53" y="839.05" width="27.97" height="27.97"/>
      <rect class="cls-5" x="419.53" y="811.09" width="27.97" height="27.97"/>
      <rect class="cls-13" x="419.53" y="783.11" width="27.97" height="27.98"/>
      <rect class="cls-10" x="419.53" y="755.14" width="27.97" height="27.97"/>
      <rect class="cls-10" x="419.53" y="727.18" width="27.97" height="27.97"/>
      <rect class="cls-13" x="419.53" y="699.21" width="27.97" height="27.97"/>
      <rect class="cls-11" x="419.53" y="671.25" width="27.97" height="27.97"/>
      <rect class="cls-10" x="419.53" y="643.27" width="27.97" height="27.98"/>
      <rect class="cls-10" x="419.53" y="615.3" width="27.97" height="27.97"/>
      <rect class="cls-4" x="419.53" y="587.34" width="27.97" height="27.97"/>
      <rect class="cls-4" x="419.53" y="559.37" width="27.97" height="27.97"/>
      <rect class="cls-4" x="419.53" y="531.4" width="27.97" height="27.97"/>
      <rect class="cls-4" x="419.53" y="503.42" width="27.97" height="27.98"/>
      <rect class="cls-10" x="419.53" y="475.46" width="27.97" height="27.97"/>
      <rect class="cls-14" x="419.53" y="447.49" width="27.97" height="27.97"/>
      <rect class="cls-3" x="419.53" y="419.53" width="27.97" height="27.97"/>
      <rect class="cls-2" x="419.53" y="391.55" width="27.97" height="27.98"/>
      <rect class="cls-12" x="419.53" y="363.58" width="27.97" height="27.97"/>
      <rect class="cls-5" x="419.53" y="335.62" width="27.97" height="27.97"/>
      <rect class="cls-12" x="419.53" y="307.65" width="27.97" height="27.97"/>
      <rect class="cls-14" x="419.53" y="279.68" width="27.97" height="27.97"/>
      <rect class="cls-14" x="419.53" y="251.7" width="27.97" height="27.98"/>
      <rect class="cls-5" x="419.53" y="223.74" width="27.97" height="27.97"/>
      <rect class="cls-5" x="419.53" y="195.77" width="27.97" height="27.97"/>
      <rect class="cls-12" x="419.53" y="167.81" width="27.97" height="27.97"/>
      <rect class="cls-5" x="419.53" y="139.84" width="27.97" height="27.97"/>
      <rect class="cls-5" x="419.53" y="111.86" width="27.97" height="27.98"/>
      <rect class="cls-14" x="419.53" y="83.9" width="27.97" height="27.97"/>
      <rect class="cls-5" x="419.53" y="55.93" width="27.97" height="27.97"/>
      <rect class="cls-12" x="419.53" y="27.97" width="27.97" height="27.97"/>
      <rect class="cls-10" x="391.56" y="867.02" width="27.97" height="27.97"/>
      <rect class="cls-14" x="391.56" y="839.05" width="27.97" height="27.97"/>
      <rect class="cls-5" x="391.56" y="811.09" width="27.97" height="27.97"/>
      <rect class="cls-11" x="391.56" y="783.11" width="27.97" height="27.98"/>
      <rect class="cls-13" x="391.56" y="755.14" width="27.97" height="27.97"/>
      <rect class="cls-13" x="391.56" y="727.18" width="27.97" height="27.97"/>
      <rect class="cls-11" x="391.56" y="699.21" width="27.97" height="27.97"/>
      <rect class="cls-10" x="391.56" y="671.25" width="27.97" height="27.97"/>
      <rect class="cls-10" x="391.56" y="643.27" width="27.97" height="27.98"/>
      <rect class="cls-4" x="391.56" y="615.3" width="27.97" height="27.97"/>
      <rect class="cls-4" x="391.56" y="587.34" width="27.97" height="27.97"/>
      <rect class="cls-5" x="391.56" y="559.37" width="27.97" height="27.97"/>
      <rect class="cls-4" x="391.56" y="531.4" width="27.97" height="27.97"/>
      <rect class="cls-10" x="391.56" y="503.42" width="27.97" height="27.98"/>
      <rect class="cls-10" x="391.56" y="475.46" width="27.97" height="27.97"/>
      <rect class="cls-14" x="391.56" y="447.49" width="27.97" height="27.97"/>
      <rect class="cls-2" x="391.56" y="419.53" width="27.97" height="27.97"/>
      <rect class="cls-1" x="391.56" y="391.55" width="27.97" height="27.98"/>
      <rect class="cls-12" x="391.56" y="363.58" width="27.97" height="27.97"/>
      <rect class="cls-5" x="391.56" y="335.62" width="27.97" height="27.97"/>
      <rect class="cls-5" x="391.56" y="307.65" width="27.97" height="27.97"/>
      <rect class="cls-14" x="391.56" y="279.68" width="27.97" height="27.97"/>
      <rect class="cls-14" x="391.56" y="251.7" width="27.97" height="27.98"/>
      <rect class="cls-5" x="391.56" y="223.74" width="27.97" height="27.97"/>
      <rect class="cls-12" x="391.56" y="195.77" width="27.97" height="27.97"/>
      <rect class="cls-5" x="391.56" y="167.81" width="27.97" height="27.97"/>
      <rect class="cls-5" x="391.56" y="139.84" width="27.97" height="27.97"/>
      <rect class="cls-5" x="391.56" y="111.86" width="27.97" height="27.98"/>
      <rect class="cls-5" x="391.56" y="83.9" width="27.97" height="27.97"/>
      <rect class="cls-6" x="391.56" y="55.93" width="27.97" height="27.97"/>
      <rect class="cls-12" x="391.56" y="27.97" width="27.97" height="27.97"/>
      <rect class="cls-10" x="363.6" y="867.02" width="27.97" height="27.97"/>
      <rect class="cls-10" x="363.6" y="839.05" width="27.97" height="27.97"/>
      <rect class="cls-5" x="363.6" y="811.09" width="27.97" height="27.97"/>
      <rect class="cls-3" x="363.6" y="783.11" width="27.97" height="27.98"/>
      <rect class="cls-3" x="363.6" y="755.14" width="27.97" height="27.97"/>
      <rect class="cls-11" x="363.6" y="727.18" width="27.97" height="27.97"/>
      <rect class="cls-10" x="363.6" y="699.21" width="27.97" height="27.97"/>
      <rect class="cls-8" x="363.6" y="671.25" width="27.97" height="27.97"/>
      <rect class="cls-8" x="363.6" y="643.27" width="27.97" height="27.98"/>
      <rect class="cls-8" x="363.6" y="615.3" width="27.97" height="27.97"/>
      <rect class="cls-8" x="363.6" y="587.34" width="27.97" height="27.97"/>
      <rect class="cls-8" x="363.6" y="559.37" width="27.97" height="27.97"/>
      <rect class="cls-8" x="363.6" y="531.4" width="27.97" height="27.97"/>
      <rect class="cls-8" x="363.6" y="503.42" width="27.97" height="27.98"/>
      <rect class="cls-10" x="363.6" y="475.46" width="27.97" height="27.97"/>
      <rect class="cls-14" x="363.6" y="447.49" width="27.97" height="27.97"/>
      <rect class="cls-12" x="363.6" y="419.53" width="27.97" height="27.97"/>
      <rect class="cls-2" x="363.6" y="391.55" width="27.97" height="27.98"/>
      <rect class="cls-12" x="363.6" y="363.58" width="27.97" height="27.97"/>
      <rect class="cls-5" x="363.6" y="335.62" width="27.97" height="27.97"/>
      <rect class="cls-12" x="363.6" y="307.65" width="27.97" height="27.97"/>
      <rect class="cls-14" x="363.6" y="279.68" width="27.97" height="27.97"/>
      <rect class="cls-12" x="363.6" y="251.7" width="27.97" height="27.98"/>
      <rect class="cls-6" x="363.6" y="223.74" width="27.97" height="27.97"/>
      <rect class="cls-5" x="363.6" y="195.77" width="27.97" height="27.97"/>
      <rect class="cls-12" x="363.6" y="167.81" width="27.97" height="27.97"/>
      <rect class="cls-5" x="363.6" y="139.84" width="27.97" height="27.97"/>
      <rect class="cls-5" x="363.6" y="111.86" width="27.97" height="27.98"/>
      <rect class="cls-5" x="363.6" y="83.9" width="27.97" height="27.97"/>
      <rect class="cls-12" x="363.6" y="55.93" width="27.97" height="27.97"/>
      <rect class="cls-12" x="363.6" y="27.97" width="27.97" height="27.97"/>
      <rect class="cls-12" x="363.6" width="27.97" height="27.97"/>
      <rect class="cls-10" x="335.62" y="867.02" width="27.98" height="27.97"/>
      <rect class="cls-14" x="335.62" y="839.05" width="27.98" height="27.97"/>
      <rect class="cls-5" x="335.62" y="811.09" width="27.98" height="27.97"/>
      <rect class="cls-3" x="335.62" y="783.11" width="27.98" height="27.98"/>
      <rect class="cls-3" x="335.62" y="755.14" width="27.98" height="27.97"/>
      <rect class="cls-11" x="335.62" y="727.18" width="27.98" height="27.97"/>
      <rect class="cls-10" x="335.62" y="699.21" width="27.98" height="27.97"/>
      <rect class="cls-10" x="335.62" y="671.25" width="27.98" height="27.97"/>
      <rect class="cls-3" x="335.62" y="643.27" width="27.98" height="27.98"/>
      <rect class="cls-3" x="335.62" y="615.3" width="27.98" height="27.97"/>
      <rect class="cls-3" x="335.62" y="587.34" width="27.98" height="27.97"/>
      <rect class="cls-8" x="335.62" y="559.37" width="27.98" height="27.97"/>
      <rect class="cls-8" x="335.62" y="531.4" width="27.98" height="27.97"/>
      <rect class="cls-3" x="335.62" y="503.42" width="27.98" height="27.98"/>
      <rect class="cls-10" x="335.62" y="475.46" width="27.98" height="27.97"/>
      <rect class="cls-14" x="335.62" y="447.49" width="27.98" height="27.97"/>
      <rect class="cls-6" x="335.62" y="419.53" width="27.98" height="27.97"/>
      <rect class="cls-12" x="335.62" y="391.55" width="27.98" height="27.98"/>
      <rect class="cls-12" x="335.62" y="363.58" width="27.98" height="27.97"/>
      <rect class="cls-3" x="335.62" y="335.62" width="27.98" height="27.97"/>
      <rect class="cls-14" x="335.62" y="307.65" width="27.98" height="27.97"/>
      <rect class="cls-1" x="335.62" y="279.68" width="27.98" height="27.97"/>
      <rect class="cls-12" x="335.62" y="251.7" width="27.98" height="27.98"/>
      <rect class="cls-12" x="335.62" y="223.74" width="27.98" height="27.97"/>
      <rect class="cls-5" x="335.62" y="195.77" width="27.98" height="27.97"/>
      <rect class="cls-5" x="335.62" y="167.81" width="27.98" height="27.97"/>
      <rect class="cls-12" x="335.62" y="139.84" width="27.98" height="27.97"/>
      <rect class="cls-5" x="335.62" y="111.86" width="27.98" height="27.98"/>
      <rect class="cls-6" x="335.62" y="83.9" width="27.98" height="27.97"/>
      <rect class="cls-3" x="335.62" y="55.93" width="27.98" height="27.97"/>
      <rect class="cls-3" x="335.62" y="27.97" width="27.98" height="27.97"/>
      <rect class="cls-12" x="335.62" width="27.98" height="27.97"/>
      <rect class="cls-10" x="307.65" y="867.02" width="27.97" height="27.97"/>
      <rect class="cls-10" x="307.65" y="839.05" width="27.97" height="27.97"/>
      <rect class="cls-5" x="307.65" y="811.09" width="27.97" height="27.97"/>
      <rect class="cls-3" x="307.65" y="783.11" width="27.97" height="27.98"/>
      <rect class="cls-5" x="307.65" y="755.14" width="27.97" height="27.97"/>
      <rect class="cls-11" x="307.65" y="727.18" width="27.97" height="27.97"/>
      <rect class="cls-11" x="307.65" y="699.21" width="27.97" height="27.97"/>
      <rect class="cls-10" x="307.65" y="671.25" width="27.97" height="27.97"/>
      <rect class="cls-8" x="307.65" y="643.27" width="27.97" height="27.98"/>
      <rect class="cls-14" x="307.65" y="615.3" width="27.97" height="27.97"/>
      <rect class="cls-3" x="307.65" y="587.34" width="27.97" height="27.97"/>
      <rect class="cls-9" x="307.65" y="559.37" width="27.97" height="27.97"/>
      <rect class="cls-8" x="307.65" y="531.4" width="27.97" height="27.97"/>
      <rect class="cls-8" x="307.65" y="503.42" width="27.97" height="27.98"/>
      <rect class="cls-10" x="307.65" y="475.46" width="27.97" height="27.97"/>
      <rect class="cls-14" x="307.65" y="447.49" width="27.97" height="27.97"/>
      <rect class="cls-6" x="307.65" y="419.53" width="27.97" height="27.97"/>
      <rect class="cls-6" x="307.65" y="391.55" width="27.97" height="27.98"/>
      <rect class="cls-12" x="307.65" y="363.58" width="27.97" height="27.97"/>
      <rect class="cls-5" x="307.65" y="335.62" width="27.97" height="27.97"/>
      <rect class="cls-14" x="307.65" y="307.65" width="27.97" height="27.97"/>
      <rect class="cls-3" x="307.65" y="279.68" width="27.97" height="27.97"/>
      <rect class="cls-1" x="307.65" y="251.7" width="27.97" height="27.98"/>
      <rect class="cls-12" x="307.65" y="223.74" width="27.97" height="27.97"/>
      <rect class="cls-6" x="307.65" y="195.77" width="27.97" height="27.97"/>
      <rect class="cls-5" x="307.65" y="167.81" width="27.97" height="27.97"/>
      <rect class="cls-12" x="307.65" y="139.84" width="27.97" height="27.97"/>
      <rect class="cls-6" x="307.65" y="111.86" width="27.97" height="27.98"/>
      <rect class="cls-12" x="307.65" y="83.9" width="27.97" height="27.97"/>
      <rect class="cls-3" x="307.65" y="55.93" width="27.97" height="27.97"/>
      <rect class="cls-3" x="307.65" y="27.97" width="27.97" height="27.97"/>
      <rect class="cls-12" x="307.65" width="27.97" height="27.97"/>
      <rect class="cls-10" x="279.68" y="867.02" width="27.97" height="27.97"/>
      <rect class="cls-14" x="279.68" y="839.05" width="27.97" height="27.97"/>
      <rect class="cls-5" x="279.68" y="811.09" width="27.97" height="27.97"/>
      <rect class="cls-3" x="279.68" y="783.11" width="27.97" height="27.98"/>
      <rect class="cls-13" x="279.68" y="755.14" width="27.97" height="27.97"/>
      <rect class="cls-11" x="279.68" y="727.18" width="27.97" height="27.97"/>
      <rect class="cls-10" x="279.68" y="699.21" width="27.97" height="27.97"/>
      <rect class="cls-10" x="279.68" y="671.25" width="27.97" height="27.97"/>
      <rect class="cls-8" x="279.68" y="643.27" width="27.97" height="27.98"/>
      <rect class="cls-9" x="279.68" y="615.3" width="27.97" height="27.97"/>
      <rect class="cls-5" x="279.68" y="587.34" width="27.97" height="27.97"/>
      <rect class="cls-9" x="279.68" y="559.37" width="27.97" height="27.97"/>
      <rect class="cls-8" x="279.68" y="531.4" width="27.97" height="27.97"/>
      <rect class="cls-8" x="279.68" y="503.42" width="27.97" height="27.98"/>
      <rect class="cls-10" x="279.68" y="475.46" width="27.97" height="27.97"/>
      <rect class="cls-10" x="279.68" y="447.49" width="27.97" height="27.97"/>
      <rect class="cls-3" x="279.68" y="419.53" width="27.97" height="27.97"/>
      <rect class="cls-3" x="279.68" y="391.55" width="27.97" height="27.98"/>
      <rect class="cls-5" x="279.68" y="363.58" width="27.97" height="27.97"/>
      <rect class="cls-5" x="279.68" y="335.62" width="27.97" height="27.97"/>
      <rect class="cls-5" x="279.68" y="307.65" width="27.97" height="27.97"/>
      <rect class="cls-14" x="279.68" y="279.68" width="27.97" height="27.97"/>
      <rect class="cls-3" x="279.68" y="251.7" width="27.97" height="27.98"/>
      <rect class="cls-12" x="279.68" y="223.74" width="27.97" height="27.97"/>
      <rect class="cls-6" x="279.68" y="195.77" width="27.97" height="27.97"/>
      <rect class="cls-5" x="279.68" y="167.81" width="27.97" height="27.97"/>
      <rect class="cls-12" x="279.68" y="139.84" width="27.97" height="27.97"/>
      <rect class="cls-12" x="279.68" y="111.86" width="27.97" height="27.98"/>
      <rect class="cls-3" x="279.68" y="83.9" width="27.97" height="27.97"/>
      <rect class="cls-3" x="279.68" y="55.93" width="27.97" height="27.97"/>
      <rect class="cls-3" x="279.68" y="27.97" width="27.97" height="27.97"/>
      <rect class="cls-12" x="279.68" width="27.97" height="27.97"/>
      <rect class="cls-10" x="251.72" y="839.05" width="27.97" height="27.97"/>
      <rect class="cls-5" x="251.72" y="811.09" width="27.97" height="27.97"/>
      <rect class="cls-10" x="251.72" y="783.11" width="27.97" height="27.98"/>
      <rect class="cls-10" x="251.72" y="755.14" width="27.97" height="27.97"/>
      <rect class="cls-10" x="251.72" y="727.18" width="27.97" height="27.97"/>
      <rect class="cls-10" x="251.72" y="699.21" width="27.97" height="27.97"/>
      <rect class="cls-10" x="251.72" y="671.25" width="27.97" height="27.97"/>
      <rect class="cls-10" x="251.72" y="643.27" width="27.97" height="27.98"/>
      <rect class="cls-11" x="251.72" y="615.3" width="27.97" height="27.97"/>
      <rect class="cls-9" x="251.72" y="587.34" width="27.97" height="27.97"/>
      <rect class="cls-8" x="251.72" y="559.37" width="27.97" height="27.97"/>
      <rect class="cls-8" x="251.72" y="531.4" width="27.97" height="27.97"/>
      <rect class="cls-8" x="251.72" y="503.42" width="27.97" height="27.98"/>
      <rect class="cls-3" x="251.72" y="475.46" width="27.97" height="27.97"/>
      <rect class="cls-10" x="251.72" y="447.49" width="27.97" height="27.97"/>
      <rect class="cls-3" x="251.72" y="419.53" width="27.97" height="27.97"/>
      <rect class="cls-3" x="251.72" y="391.55" width="27.97" height="27.98"/>
      <rect class="cls-3" x="251.72" y="363.58" width="27.97" height="27.97"/>
      <rect class="cls-3" x="251.72" y="335.62" width="27.97" height="27.97"/>
      <rect class="cls-5" x="251.72" y="307.65" width="27.97" height="27.97"/>
      <rect class="cls-14" x="251.72" y="279.68" width="27.97" height="27.97"/>
      <rect class="cls-3" x="251.72" y="251.7" width="27.97" height="27.98"/>
      <rect class="cls-1" x="251.72" y="223.74" width="27.97" height="27.97"/>
      <rect class="cls-12" x="251.72" y="195.77" width="27.97" height="27.97"/>
      <rect class="cls-6" x="251.72" y="167.81" width="27.97" height="27.97"/>
      <rect class="cls-12" x="251.72" y="139.84" width="27.97" height="27.97"/>
      <rect class="cls-1" x="251.72" y="111.86" width="27.97" height="27.98"/>
      <rect class="cls-3" x="251.72" y="83.9" width="27.97" height="27.97"/>
      <rect class="cls-3" x="251.72" y="55.93" width="27.97" height="27.97"/>
      <rect class="cls-3" x="251.72" y="27.97" width="27.97" height="27.97"/>
      <rect class="cls-12" x="251.72" width="27.97" height="27.97"/>
      <rect class="cls-10" x="223.75" y="839.05" width="27.97" height="27.97"/>
      <rect class="cls-10" x="223.75" y="811.09" width="27.97" height="27.97"/>
      <rect class="cls-10" x="223.75" y="783.11" width="27.97" height="27.98"/>
      <rect class="cls-10" x="223.75" y="643.27" width="27.97" height="27.98"/>
      <rect class="cls-10" x="223.75" y="615.3" width="27.97" height="27.97"/>
      <rect class="cls-8" x="223.75" y="587.34" width="27.97" height="27.97"/>
      <rect class="cls-8" x="223.75" y="559.37" width="27.97" height="27.97"/>
      <rect class="cls-8" x="223.75" y="531.4" width="27.97" height="27.97"/>
      <rect class="cls-8" x="223.75" y="503.42" width="27.97" height="27.98"/>
      <rect class="cls-3" x="223.75" y="475.46" width="27.97" height="27.97"/>
      <rect class="cls-10" x="223.75" y="447.49" width="27.97" height="27.97"/>
      <rect class="cls-10" x="223.75" y="419.53" width="27.97" height="27.97"/>
      <rect class="cls-3" x="223.75" y="391.55" width="27.97" height="27.98"/>
      <rect class="cls-3" x="223.75" y="363.58" width="27.97" height="27.97"/>
      <rect class="cls-5" x="223.75" y="335.62" width="27.97" height="27.97"/>
      <rect class="cls-5" x="223.75" y="307.65" width="27.97" height="27.97"/>
      <rect class="cls-5" x="223.75" y="279.68" width="27.97" height="27.97"/>
      <rect class="cls-14" x="223.75" y="251.7" width="27.97" height="27.98"/>
      <rect class="cls-3" x="223.75" y="223.74" width="27.97" height="27.97"/>
      <rect class="cls-12" x="223.75" y="195.77" width="27.97" height="27.97"/>
      <rect class="cls-3" x="223.75" y="167.81" width="27.97" height="27.97"/>
      <rect class="cls-1" x="223.75" y="139.84" width="27.97" height="27.97"/>
      <rect class="cls-1" x="223.75" y="111.86" width="27.97" height="27.98"/>
      <rect class="cls-1" x="223.75" y="83.9" width="27.97" height="27.97"/>
      <rect class="cls-3" x="223.75" y="55.93" width="27.97" height="27.97"/>
      <rect class="cls-12" x="223.75" y="27.97" width="27.97" height="27.97"/>
      <rect class="cls-10" x="195.77" y="615.3" width="27.98" height="27.97"/>
      <rect class="cls-8" x="195.77" y="587.34" width="27.98" height="27.97"/>
      <rect class="cls-8" x="195.77" y="559.37" width="27.98" height="27.97"/>
      <rect class="cls-8" x="195.77" y="531.4" width="27.98" height="27.97"/>
      <rect class="cls-8" x="195.77" y="503.42" width="27.98" height="27.98"/>
      <rect class="cls-10" x="195.77" y="475.46" width="27.98" height="27.97"/>
      <rect class="cls-12" x="195.77" y="391.55" width="27.98" height="27.98"/>
      <rect class="cls-12" x="195.77" y="363.58" width="27.98" height="27.97"/>
      <rect class="cls-12" x="195.77" y="335.62" width="27.98" height="27.97"/>
      <rect class="cls-5" x="195.77" y="307.65" width="27.98" height="27.97"/>
      <rect class="cls-12" x="195.77" y="279.68" width="27.98" height="27.97"/>
      <rect class="cls-12" x="195.77" y="251.7" width="27.98" height="27.98"/>
      <rect class="cls-5" x="195.77" y="223.74" width="27.98" height="27.97"/>
      <rect class="cls-3" x="195.77" y="195.77" width="27.98" height="27.97"/>
      <rect class="cls-3" x="195.77" y="167.81" width="27.98" height="27.97"/>
      <rect class="cls-1" x="195.77" y="139.84" width="27.98" height="27.97"/>
      <rect class="cls-6" x="195.77" y="111.86" width="27.98" height="27.98"/>
      <rect class="cls-12" x="195.77" y="83.9" width="27.98" height="27.97"/>
      <rect class="cls-12" x="195.77" y="55.93" width="27.98" height="27.97"/>
      <rect class="cls-10" x="167.81" y="615.3" width="27.97" height="27.97"/>
      <rect class="cls-10" x="167.81" y="587.34" width="27.97" height="27.97"/>
      <rect class="cls-10" x="167.81" y="559.37" width="27.97" height="27.97"/>
      <rect class="cls-5" x="167.81" y="531.4" width="27.97" height="27.97"/>
      <rect class="cls-10" x="167.81" y="503.42" width="27.97" height="27.98"/>
      <rect class="cls-12" x="167.81" y="307.65" width="27.97" height="27.97"/>
      <rect class="cls-3" x="167.81" y="279.68" width="27.97" height="27.97"/>
      <rect class="cls-3" x="167.81" y="251.7" width="27.97" height="27.98"/>
      <rect class="cls-3" x="167.81" y="223.74" width="27.97" height="27.97"/>
      <rect class="cls-3" x="167.81" y="195.77" width="27.97" height="27.97"/>
      <rect class="cls-3" x="167.81" y="167.81" width="27.97" height="27.97"/>
      <rect class="cls-12" x="167.81" y="139.84" width="27.97" height="27.97"/>
      <rect class="cls-12" x="167.81" y="111.86" width="27.97" height="27.98"/>
      <rect class="cls-10" x="139.84" y="615.3" width="27.97" height="27.97"/>
      <rect class="cls-14" x="139.84" y="587.34" width="27.97" height="27.97"/>
      <rect class="cls-5" x="139.84" y="559.37" width="27.97" height="27.97"/>
      <rect class="cls-10" x="139.84" y="531.4" width="27.97" height="27.97"/>
      <rect class="cls-12" x="139.84" y="279.68" width="27.97" height="27.97"/>
      <rect class="cls-3" x="139.84" y="251.7" width="27.97" height="27.98"/>
      <rect class="cls-3" x="139.84" y="223.74" width="27.97" height="27.97"/>
      <rect class="cls-12" x="139.84" y="195.77" width="27.97" height="27.97"/>
      <rect class="cls-12" x="139.84" y="167.81" width="27.97" height="27.97"/>
      <rect class="cls-10" x="111.88" y="615.3" width="27.97" height="27.97"/>
      <rect class="cls-10" x="111.88" y="587.34" width="27.97" height="27.97"/>
      <rect class="cls-6" x="111.88" y="559.37" width="27.97" height="27.97"/>
      <rect class="cls-10" x="111.88" y="531.4" width="27.97" height="27.97"/>
      <rect class="cls-12" x="111.88" y="251.7" width="27.97" height="27.98"/>
      <rect class="cls-12" x="111.88" y="223.74" width="27.97" height="27.97"/>
      <rect class="cls-10" x="83.91" y="615.3" width="27.97" height="27.97"/>
      <rect class="cls-14" x="83.91" y="587.34" width="27.97" height="27.97"/>
      <rect class="cls-5" x="83.91" y="559.37" width="27.97" height="27.97"/>
      <rect class="cls-10" x="83.91" y="531.4" width="27.97" height="27.97"/>
      <rect class="cls-10" x="55.93" y="615.3" width="27.98" height="27.97"/>
      <rect class="cls-10" x="55.93" y="587.34" width="27.98" height="27.97"/>
      <rect class="cls-5" x="55.93" y="559.37" width="27.98" height="27.97"/>
      <rect class="cls-10" x="55.93" y="531.4" width="27.98" height="27.97"/>
      <rect class="cls-10" x="27.97" y="615.3" width="27.97" height="27.97"/>
      <rect class="cls-14" x="27.97" y="587.34" width="27.97" height="27.97"/>
      <rect class="cls-5" x="27.97" y="559.37" width="27.97" height="27.97"/>
      <rect class="cls-10" x="27.97" y="531.4" width="27.97" height="27.97"/>
      <rect class="cls-10" y="587.34" width="27.97" height="27.97"/>
      <rect class="cls-10" y="559.37" width="27.97" height="27.97"/>
    </g>
  </g>
</svg>